<svg xmlns="http://www.w3.org/2000/svg" width="13.98" height="11.785" viewBox="0 0 13.98 11.785">
  <g id="Group_32188" data-name="Group 32188" transform="translate(-211.529 -294)">
    <path id="Icon_ionic-ios-leaf" data-name="Icon ionic-ios-leaf" d="M15.084,13.577a5.836,5.836,0,0,1-1.607-.338,6.024,6.024,0,0,0-2.2-5.642C9.205,5.89,6.058,7.13,3.606,4.534c-.571-.606-.239,6.793,2.83,9.6a5.4,5.4,0,0,0,5.611,1.085,3.212,3.212,0,0,0,1.116-.978,8.465,8.465,0,0,0,1.788.41C15.373,14.7,15.586,13.655,15.084,13.577Zm-2.648.213a13.583,13.583,0,0,1-5.455-3.64.118.118,0,0,1,.159-.173,17.542,17.542,0,0,0,5.576,3.113A1.076,1.076,0,0,1,12.436,13.791Z" transform="translate(208.153 289.501)" fill="rgba(2,180,24,0.7)"/>
    <g id="Group_32004" data-name="Group 32004" transform="matrix(-0.616, -0.788, 0.788, -0.616, 868.202, 2747.069)">
      <path id="Path_5891" data-name="Path 5891" d="M2330.23,1000.371h2.467a6.264,6.264,0,0,1,1.367-3.711c1.386-1.651-1.2-5.179-3.935-3.67s-.877,4.506-.43,4.935.43,1.693.43,1.693Z" transform="translate(-3.575 -3.194)" fill="#a45211"/>
      <path id="Path_5890" data-name="Path 5890" d="M104.681,8.075a.2.2,0,0,0,.2-.2V7.758a4.85,4.85,0,0,1,.984-2.936,2.974,2.974,0,0,0,.617-1.8A3.006,3.006,0,0,0,103.529,0h-.043a3,3,0,0,0-3,3,2.971,2.971,0,0,0,.623,1.83,4.831,4.831,0,0,1,.978,2.94v.1a.2.2,0,0,0,.2.2h.131V8.9a1.286,1.286,0,1,0,1.064,2.2,1.286,1.286,0,1,0,1.064-2.2V8.074h.131Zm-3.249-3.493A2.592,2.592,0,0,1,103.486.408h.037a2.6,2.6,0,0,1,2.555,2.615,2.568,2.568,0,0,1-.533,1.551,5.258,5.258,0,0,0-1.068,3.093h-1.984A5.232,5.232,0,0,0,101.432,4.581Zm2.773,4.66a.21.21,0,0,0,.148.058h.031a.878.878,0,1,1-.729,1.369.2.2,0,0,0-.169-.09h0a.2.2,0,0,0-.169.09.878.878,0,1,1-.729-1.369h.033a.2.2,0,0,0,.209-.2V8.075h1.313V9.1A.205.205,0,0,0,104.2,9.241Z" transform="translate(2224.514 989.437)" fill="#333"/>
    </g>
  </g>
</svg>
