<svg width="13" height="20" viewBox="0 0 13 20" fill="none" xmlns="http://www.w3.org/2000/svg">
<path d="M4.8581 16.1541C4.67686 16.3354 4.67686 16.6293 4.8581 16.8106C5.76547 17.7157 7.23417 17.7157 8.14153 16.8106C8.3229 16.6293 8.3229 16.3354 8.14158 16.1541C7.96027 15.9727 7.6663 15.9727 7.48498 16.1541C6.94035 16.6969 6.05926 16.6969 5.5146 16.1541C5.3333 15.9728 5.03941 15.9728 4.8581 16.1541Z" fill="white"/>
<path d="M4.4789 13.8435C4.56949 13.7532 4.71609 13.7532 4.80668 13.8435C4.98797 14.0249 5.282 14.025 5.46342 13.8438C5.64483 13.6625 5.64493 13.3684 5.46365 13.187C5.00412 12.7489 4.28146 12.7489 3.82193 13.187C3.64064 13.3684 3.64075 13.6625 3.82217 13.8438C4.00358 14.025 4.29761 14.0249 4.4789 13.8435Z" fill="white"/>
<path d="M8.19325 13.8435C8.28385 13.7532 8.43044 13.7532 8.52104 13.8435C8.70233 14.0249 8.99635 14.025 9.17777 13.8438C9.35918 13.6625 9.35929 13.3684 9.178 13.187C8.71848 12.7489 7.99582 12.7489 7.53628 13.187C7.355 13.3684 7.3551 13.6625 7.53652 13.8438C7.71794 14.025 8.01196 14.0249 8.19325 13.8435Z" fill="white"/>
<path d="M9.28572 18.4099C10.4534 17.5359 11.1415 16.1631 11.1429 14.7045C12.1685 14.7045 13 13.873 13 12.8473C13 11.8216 12.1685 10.9902 11.1429 10.9902L11.1429 9.61449L11.4344 5.5311C12.317 4.98644 12.7304 3.92185 12.4468 2.9243C12.1631 1.92675 11.2514 1.23897 10.2143 1.24017C9.6466 1.23835 9.09851 1.44769 8.67657 1.82749C8.14956 1.16315 7.34799 0.775879 6.5 0.775879C5.65201 0.775879 4.85044 1.16315 4.32343 1.82749C3.90149 1.44769 3.3534 1.23835 2.78571 1.24017C1.74862 1.23897 0.836901 1.92675 0.553244 2.9243C0.269587 3.92185 0.683006 4.98644 1.56557 5.5311L1.72575 7.77313C1.74396 8.02955 1.96658 8.22266 2.223 8.20445C2.47942 8.18625 2.67253 7.96362 2.65432 7.7072L2.47604 5.2112C2.4639 5.04262 2.36111 4.89395 2.20768 4.82306C1.61307 4.55126 1.28823 3.90184 1.42734 3.26303C1.56646 2.62421 2.13193 2.16868 2.78571 2.16874C3.27825 2.16874 3.73359 2.43186 3.9797 2.85886C4.06888 3.00791 4.23308 3.09553 4.40653 3.08663C4.58029 3.07669 4.73388 2.97041 4.80443 2.81131C5.1005 2.13978 5.76517 1.70642 6.49907 1.70642C7.23298 1.70642 7.89765 2.13978 8.19372 2.81131C8.26443 2.9703 8.4181 3.0764 8.59183 3.08618C8.76556 3.09596 8.93017 3.00778 9.01829 2.85774C9.26498 2.43065 9.72106 2.1679 10.2143 2.16874C10.8685 2.16758 11.435 2.62277 11.5747 3.26189C11.7145 3.90101 11.3897 4.55108 10.7946 4.82306C10.6412 4.89395 10.5384 5.04262 10.5263 5.21121L10.2463 9.13303H8.41889L8.81771 5.9406C8.84306 5.68973 8.66356 5.46449 8.41337 5.43322C8.16317 5.40194 7.93375 5.57607 7.89657 5.82546L7.48289 9.13303H5.51711L5.10343 5.82545C5.06624 5.57608 4.83682 5.40196 4.58663 5.43323C4.33644 5.46451 4.15695 5.68974 4.18229 5.9406L4.58111 9.13303H2.32143C2.06501 9.13303 1.85714 9.3409 1.85714 9.59731V10.9902C0.83147 10.9902 0 11.8216 0 12.8473C0 13.873 0.83147 14.7045 1.85714 14.7045C1.85853 16.1631 2.54658 17.5359 3.71429 18.4099C3.71429 18.4099 5.10621 19.4053 6.49907 19.4053C7.89193 19.4053 9.28572 18.4099 9.28572 18.4099ZM12.0714 12.8473C12.0714 13.3601 11.6557 13.7759 11.1429 13.7759V11.9187C11.6557 11.9187 12.0714 12.3345 12.0714 12.8473ZM2.78572 10.0616H10.2143V10.9902H2.78572V10.0616ZM0.928572 12.8473C0.928572 12.3345 1.34431 11.9187 1.85714 11.9187V13.7759C1.34431 13.7759 0.928572 13.3601 0.928572 12.8473ZM2.78572 14.7045V11.9187H10.2143V14.7045C10.2143 16.7558 8.55134 18.4187 6.5 18.4187C4.44866 18.4187 2.78572 16.7558 2.78572 14.7045Z" fill="white"/>
</svg>
