<svg xmlns="http://www.w3.org/2000/svg" width="12.727" height="11.785" viewBox="0 0 12.727 11.785">
  <g id="Group_32002" data-name="Group 32002" transform="matrix(-0.616, -0.788, 0.788, -0.616, 655.42, 2453.069)">
    <path id="Path_5891" data-name="Path 5891" d="M2330.231,1000.375h2.468a6.267,6.267,0,0,1,1.368-3.713c1.387-1.653-1.2-5.183-3.938-3.673s-.877,4.51-.429,4.938.429,1.694.429,1.694Z" transform="translate(-3.601 -3.144)" fill="#a45211"/>
    <path id="Path_5890" data-name="Path 5890" d="M104.681,8.074a.2.2,0,0,0,.2-.2V7.758a4.85,4.85,0,0,1,.984-2.936,2.973,2.973,0,0,0,.617-1.8A3.006,3.006,0,0,0,103.529,0h-.043a3,3,0,0,0-3,3,2.971,2.971,0,0,0,.623,1.83,4.831,4.831,0,0,1,.978,2.94v.1a.2.2,0,0,0,.2.2h.131V8.9a1.286,1.286,0,1,0,1.064,2.2,1.286,1.286,0,1,0,1.064-2.2V8.074h.131Zm-3.249-3.493A2.592,2.592,0,0,1,103.486.408h.037a2.6,2.6,0,0,1,2.555,2.615,2.568,2.568,0,0,1-.533,1.551,5.258,5.258,0,0,0-1.068,3.093h-1.984A5.232,5.232,0,0,0,101.432,4.581Zm2.773,4.66a.21.21,0,0,0,.148.058h.031a.878.878,0,1,1-.729,1.369.2.2,0,0,0-.169-.09h0a.2.2,0,0,0-.169.09.878.878,0,1,1-.729-1.369h.033a.2.2,0,0,0,.209-.2V8.074h1.313V9.1A.2.2,0,0,0,104.2,9.241Z" transform="translate(2224.514 989.437)" fill="#333"/>
  </g>
</svg>
