<svg width="183" height="165" viewBox="0 0 183 165" fill="none" xmlns="http://www.w3.org/2000/svg">
<path d="M126.635 58.5646H100.935V126.945H126.635V58.5646Z" stroke="#FCCDA2" stroke-miterlimit="10"/>
<path d="M117.367 51.7251H110.199V54.1735H117.367V51.7251Z" stroke="#FCCDA2" stroke-miterlimit="10"/>
<path d="M126.635 58.5646H100.935V126.945H126.635V58.5646Z" stroke="#FCCDA2" stroke-miterlimit="10"/>
<path d="M108.799 60.1538H103.241V76.8933H108.799V60.1538Z" stroke="#FCCDA2" stroke-miterlimit="10"/>
<path d="M116.565 60.1538H111.006V76.8933H116.565V60.1538Z" stroke="#FCCDA2" stroke-miterlimit="10"/>
<path d="M124.33 60.1538H118.771V76.8933H124.33V60.1538Z" stroke="#FCCDA2" stroke-miterlimit="10"/>
<path d="M126.635 76.8933H100.935V78.9653H126.635V76.8933Z" stroke="#FCCDA2" stroke-miterlimit="10"/>
<path d="M126.635 58.5646H100.935V60.15H126.635V58.5646Z" stroke="#FCCDA2" stroke-miterlimit="10"/>
<path d="M108.799 78.9653H103.241V95.7048H108.799V78.9653Z" stroke="#FCCDA2" stroke-miterlimit="10"/>
<path d="M116.565 78.9653H111.006V95.7048H116.565V78.9653Z" stroke="#FCCDA2" stroke-miterlimit="10"/>
<path d="M124.33 78.9653H118.771V95.7048H124.33V78.9653Z" stroke="#FCCDA2" stroke-miterlimit="10"/>
<path d="M126.635 95.7048H100.935V97.7768H126.635V95.7048Z" stroke="#FCCDA2" stroke-miterlimit="10"/>
<path d="M108.799 97.7768H103.241V114.516H108.799V97.7768Z" stroke="#FCCDA2" stroke-miterlimit="10"/>
<path d="M116.565 97.7768H111.006V114.516H116.565V97.7768Z" stroke="#FCCDA2" stroke-miterlimit="10"/>
<path d="M124.33 97.7768H118.771V114.516H124.33V97.7768Z" stroke="#FCCDA2" stroke-miterlimit="10"/>
<path d="M126.635 114.516H100.935V126.948H126.635V114.516Z" stroke="#FCCDA2" stroke-miterlimit="10"/>
<path d="M127.385 54.1735H100.182V58.5646H127.385V54.1735Z" stroke="#FCCDA2" stroke-miterlimit="10"/>
<path d="M159.495 78.8741H131.281V126.161H159.495V78.8741Z" stroke="#FCCDA2" stroke-miterlimit="10"/>
<path d="M148.31 83.558H133.13V87.2952H148.31V83.558Z" stroke="#FCCDA2" stroke-miterlimit="10"/>
<path d="M156.882 88.8501H141.701V92.5873H156.882V88.8501Z" stroke="#FCCDA2" stroke-miterlimit="10"/>
<path d="M148.31 104.723H133.13V108.46H148.31V104.723Z" stroke="#FCCDA2" stroke-miterlimit="10"/>
<path d="M155.9 110.015H140.72V113.752H155.9V110.015Z" stroke="#FCCDA2" stroke-miterlimit="10"/>
<path d="M142.462 94.1423H133.13V97.8795H142.462V94.1423Z" stroke="#FCCDA2" stroke-miterlimit="10"/>
<path d="M153.735 94.1423H144.403V97.8795H153.735V94.1423Z" stroke="#FCCDA2" stroke-miterlimit="10"/>
<path d="M153.735 115.307H144.403V119.044H153.735V115.307Z" stroke="#FCCDA2" stroke-miterlimit="10"/>
<path d="M157.308 99.4345H147.975V103.172H157.308V99.4345Z" stroke="#FCCDA2" stroke-miterlimit="10"/>
<path d="M146.632 99.4345H133.13V103.172H146.632V99.4345Z" stroke="#FCCDA2" stroke-miterlimit="10"/>
<path d="M159.495 78.8741H131.281V80.794H159.495V78.8741Z" stroke="#FCCDA2" stroke-miterlimit="10"/>
<path d="M140.72 71.7304H131.281V74.6464H140.72V71.7304Z" stroke="#FCCDA2" stroke-miterlimit="10"/>
<path d="M161.177 74.6426H129.595V78.8741H161.177V74.6426Z" stroke="#FCCDA2" stroke-miterlimit="10"/>
<path d="M69.6199 61.6631H30.3833V127.42H69.6199V61.6631Z" stroke="#FCCDA2" stroke-miterlimit="10"/>
<path d="M54.0668 68.1795H32.9552V73.3766H54.0668V68.1795Z" stroke="#FCCDA2" stroke-miterlimit="10"/>
<path d="M65.9866 75.5361H44.875V80.7332H65.9866V75.5361Z" stroke="#FCCDA2" stroke-miterlimit="10"/>
<path d="M54.0668 97.6096H32.9552V102.807H54.0668V97.6096Z" stroke="#FCCDA2" stroke-miterlimit="10"/>
<path d="M64.6245 104.97H43.5129V110.167H64.6245V104.97Z" stroke="#FCCDA2" stroke-miterlimit="10"/>
<path d="M45.9364 82.8964H32.9552V88.0936H45.9364V82.8964Z" stroke="#FCCDA2" stroke-miterlimit="10"/>
<path d="M61.6151 82.8964H48.6339V88.0936H61.6151V82.8964Z" stroke="#FCCDA2" stroke-miterlimit="10"/>
<path d="M61.6151 112.327H48.6339V117.524H61.6151V112.327Z" stroke="#FCCDA2" stroke-miterlimit="10"/>
<path d="M66.5839 90.253H53.6027V95.4501H66.5839V90.253Z" stroke="#FCCDA2" stroke-miterlimit="10"/>
<path d="M51.7308 90.253H32.9552V95.4501H51.7308V90.253Z" stroke="#FCCDA2" stroke-miterlimit="10"/>
<path d="M69.6199 61.6631H30.3833V64.3358H69.6199V61.6631Z" stroke="#FCCDA2" stroke-miterlimit="10"/>
<path d="M43.5129 51.7251H30.3833V55.7779H43.5129V51.7251Z" stroke="#FCCDA2" stroke-miterlimit="10"/>
<path d="M71.9597 55.7779H28.0397V61.6631H71.9597V55.7779Z" stroke="#FCCDA2" stroke-miterlimit="10"/>
<path d="M97.6406 37.2401H73.7136V127.42H97.6406V37.2401Z" stroke="#FCCDA2" stroke-miterlimit="10"/>
<path d="M81.6195 40.9773H76.2627V56.9146H81.6195V40.9773Z" stroke="#FCCDA2" stroke-miterlimit="10"/>
<path d="M88.2509 40.9773H82.894V56.9146H88.2509V40.9773Z" stroke="#FCCDA2" stroke-miterlimit="10"/>
<path d="M95.0954 40.9773H89.7385V56.9146H95.0954V40.9773Z" stroke="#FCCDA2" stroke-miterlimit="10"/>
<path d="M81.6195 58.3555H76.2627V74.2929H81.6195V58.3555Z" stroke="#FCCDA2" stroke-miterlimit="10"/>
<path d="M88.2509 58.3555H82.894V74.2929H88.2509V58.3555Z" stroke="#FCCDA2" stroke-miterlimit="10"/>
<path d="M95.0954 58.3555H89.7385V74.2929H95.0954V58.3555Z" stroke="#FCCDA2" stroke-miterlimit="10"/>
<path d="M81.6195 75.2243H76.2627V91.1616H81.6195V75.2243Z" stroke="#FCCDA2" stroke-miterlimit="10"/>
<path d="M88.2509 75.2243H82.894V91.1616H88.2509V75.2243Z" stroke="#FCCDA2" stroke-miterlimit="10"/>
<path d="M95.0954 75.2243H89.7385V91.1616H95.0954V75.2243Z" stroke="#FCCDA2" stroke-miterlimit="10"/>
<path d="M81.6195 92.9181H76.2627V108.855H81.6195V92.9181Z" stroke="#FCCDA2" stroke-miterlimit="10"/>
<path d="M88.2509 92.9181H82.894V108.855H88.2509V92.9181Z" stroke="#FCCDA2" stroke-miterlimit="10"/>
<path d="M95.0954 92.9181H89.7385V108.855H95.0954V92.9181Z" stroke="#FCCDA2" stroke-miterlimit="10"/>
<path d="M81.6195 109.874H76.2627V125.812H81.6195V109.874Z" stroke="#FCCDA2" stroke-miterlimit="10"/>
<path d="M88.2509 109.874H82.894V125.812H88.2509V109.874Z" stroke="#FCCDA2" stroke-miterlimit="10"/>
<path d="M95.0954 109.874H89.7385V125.812H95.0954V109.874Z" stroke="#FCCDA2" stroke-miterlimit="10"/>
<path d="M97.6596 37.2401H73.7136V39.5934H97.6596V37.2401Z" stroke="#FCCDA2" stroke-miterlimit="10"/>
<path d="M99.7902 31.1762H71.5679V37.2401H99.7902V31.1762Z" stroke="#FCCDA2" stroke-miterlimit="10"/>
<path d="M82.1788 31.1762L78.8536 27.2489H73.7136V31.1762H82.1788Z" stroke="#FCCDA2" stroke-miterlimit="10"/>
<path d="M95.1143 135.309C143.705 135.309 183.095 132.471 183.095 128.971C183.095 125.471 143.705 122.633 95.1143 122.633C46.5239 122.633 7.13354 125.471 7.13354 128.971C7.13354 132.471 46.5239 135.309 95.1143 135.309Z" fill="#FCCDA2"/>
<path d="M163.163 57.2796C163.094 56.2473 162.723 55.2579 162.096 54.4346C161.469 53.6113 160.614 52.9903 159.636 52.649C159.636 52.5995 159.636 52.5501 159.636 52.4969C159.64 50.5619 158.936 48.6922 157.656 47.2403C156.376 45.7884 154.608 44.8545 152.687 44.6146C150.765 44.3748 148.822 44.8456 147.224 45.9382C145.626 47.0309 144.483 48.67 144.011 50.5465C142.407 50.6027 140.888 51.2784 139.773 52.4315C138.658 53.5846 138.035 55.125 138.034 56.7283C138.034 56.907 138.034 57.0819 138.06 57.253H137.996C136.703 57.253 135.464 57.7661 134.55 58.6794C133.636 59.5928 133.122 60.8315 133.122 62.1232C133.122 62.7629 133.247 63.3964 133.492 63.9875C133.737 64.5786 134.096 65.1157 134.548 65.568C135.001 66.0203 135.539 66.379 136.13 66.6236C136.722 66.8682 137.356 66.9938 137.996 66.9933H162.661C163.301 66.9938 163.935 66.8682 164.526 66.6236C165.118 66.379 165.655 66.0203 166.108 65.568C166.561 65.1157 166.92 64.5786 167.164 63.9875C167.409 63.3964 167.535 62.7629 167.534 62.1232C167.534 60.9185 167.087 59.7567 166.28 58.8621C165.473 57.9676 164.362 57.4037 163.163 57.2796Z" stroke="#FCCDA2" stroke-miterlimit="10"/>
<path d="M38.5669 29.0851C38.5257 28.4613 38.3017 27.8633 37.9229 27.3658C37.544 26.8682 37.027 26.493 36.4363 26.287C36.4363 26.2566 36.4363 26.2262 36.4363 26.1957C36.4152 25.0427 35.9788 23.9359 35.2072 23.0783C34.4356 22.2207 33.3805 21.6697 32.2354 21.5265C31.0902 21.3833 29.9318 21.6574 28.9725 22.2985C28.0131 22.9397 27.3173 23.9049 27.0124 25.0172C26.0434 25.0516 25.1256 25.4604 24.4522 26.1575C23.7788 26.8545 23.4022 27.7855 23.4019 28.7544C23.4019 28.8608 23.4019 28.9673 23.4019 29.0699H23.36C22.5787 29.0709 21.8297 29.3818 21.2775 29.9343C20.7254 30.4867 20.4153 31.2356 20.4153 32.0164C20.4163 32.7965 20.7269 33.5444 21.2789 34.096C21.8309 34.6476 22.5793 34.958 23.36 34.959H38.274C39.0546 34.958 39.8031 34.6476 40.3551 34.096C40.9071 33.5444 41.2177 32.7965 41.2187 32.0164C41.2178 31.2865 40.9462 30.583 40.4564 30.0416C39.9667 29.5002 39.2935 29.1594 38.5669 29.0851Z" stroke="#FCCDA2" stroke-miterlimit="10"/>
<path d="M129.694 39.7835C129.653 39.1787 129.436 38.5992 129.068 38.1167C128.701 37.6342 128.201 37.2699 127.628 37.069C127.628 37.0386 127.628 37.012 127.628 36.9816C127.626 35.8496 127.21 34.7573 126.46 33.9096C125.709 33.0619 124.675 32.517 123.55 32.377C122.426 32.2371 121.29 32.5117 120.354 33.1495C119.418 33.7872 118.747 34.7442 118.467 35.841C117.527 35.8735 116.636 36.2694 115.982 36.9453C115.329 37.6212 114.963 38.5243 114.963 39.4642C114.963 39.5706 114.963 39.6695 114.963 39.7721H114.925C114.167 39.7721 113.44 40.0729 112.904 40.6084C112.369 41.1438 112.068 41.8701 112.068 42.6273C112.068 43.3846 112.369 44.1108 112.904 44.6462C113.44 45.1817 114.167 45.4825 114.925 45.4825H129.382C130.14 45.4825 130.867 45.1817 131.402 44.6462C131.938 44.1108 132.239 43.3846 132.239 42.6273C132.241 41.9231 131.982 41.2432 131.512 40.7182C131.042 40.1933 130.395 39.8604 129.694 39.7835Z" stroke="#FCCDA2" stroke-miterlimit="10"/>
<path d="M77.0084 12.3C76.94 11.3011 76.5788 10.3445 75.9699 9.54938C75.361 8.75429 74.5313 8.15596 73.5843 7.82904C73.5843 7.77962 73.5843 7.73399 73.5843 7.68457C73.5919 5.81527 72.9147 4.00779 71.6803 2.6032C70.446 1.19861 68.7399 0.294028 66.8839 0.0601528C65.0279 -0.173722 63.1505 0.279279 61.6058 1.33368C60.0611 2.38808 58.9561 3.97096 58.4991 5.78365C56.9508 5.83781 55.4839 6.49027 54.4073 7.60363C53.3308 8.71699 52.7286 10.2044 52.7276 11.7525C52.7276 11.9236 52.7276 12.0909 52.7542 12.2582H52.6895C51.4414 12.2582 50.2443 12.7537 49.3617 13.6356C48.4791 14.5176 47.9833 15.7138 47.9833 16.9611C47.9833 18.2083 48.4791 19.4045 49.3617 20.2865C50.2443 21.1685 51.4414 21.6639 52.6895 21.6639H76.5062C77.124 21.6639 77.7358 21.5423 78.3066 21.3059C78.8774 21.0695 79.3959 20.723 79.8326 20.2863C80.2694 19.8495 80.6157 19.3311 80.8518 18.7605C81.0879 18.1899 81.2091 17.5785 81.2086 16.9611C81.205 15.8038 80.7746 14.6886 79.9997 13.8286C79.2247 12.9687 78.1597 12.4244 77.0084 12.3Z" stroke="#FCCDA2" stroke-miterlimit="10"/>
<path d="M73.0795 85.0425H71.2131C71.179 84.8011 71.1094 84.5866 71.0043 84.3991C70.8991 84.2087 70.7642 84.0468 70.5994 83.9133C70.4346 83.7797 70.2443 83.6775 70.0284 83.6065C69.8153 83.5354 69.5838 83.4999 69.3338 83.4999C68.8821 83.4999 68.4886 83.6121 68.1534 83.8366C67.8182 84.0582 67.5582 84.382 67.3736 84.8082C67.1889 85.2315 67.0966 85.7457 67.0966 86.3508C67.0966 86.9729 67.1889 87.4957 67.3736 87.919C67.5611 88.3422 67.8224 88.6619 68.1577 88.8778C68.4929 89.0937 68.8807 89.2016 69.321 89.2016C69.5682 89.2016 69.7969 89.169 70.0071 89.1036C70.2202 89.0383 70.4091 88.9431 70.5739 88.8181C70.7386 88.6903 70.875 88.5354 70.9829 88.3536C71.0937 88.1718 71.1704 87.9644 71.2131 87.7315L73.0795 87.74C73.0312 88.1405 72.9105 88.5269 72.7173 88.8991C72.527 89.2684 72.2699 89.5994 71.946 89.892C71.625 90.1817 71.2415 90.4119 70.7954 90.5823C70.3523 90.7499 69.8508 90.8337 69.2912 90.8337C68.5128 90.8337 67.8168 90.6576 67.2031 90.3053C66.5923 89.953 66.1094 89.4431 65.7543 88.7755C65.402 88.1079 65.2258 87.2996 65.2258 86.3508C65.2258 85.3991 65.4048 84.5894 65.7628 83.9218C66.1207 83.2542 66.6065 82.7457 67.2202 82.3962C67.8338 82.044 68.5241 81.8678 69.2912 81.8678C69.7969 81.8678 70.2656 81.9388 70.6974 82.0809C71.1321 82.2229 71.517 82.4303 71.8523 82.703C72.1875 82.9729 72.4602 83.3039 72.6704 83.6959C72.8835 84.088 73.0199 84.5369 73.0795 85.0425ZM82.4226 86.3508C82.4226 87.3025 82.2422 88.1121 81.8814 88.7797C81.5234 89.4474 81.0348 89.9573 80.4155 90.3096C79.799 90.659 79.1058 90.8337 78.3359 90.8337C77.5604 90.8337 76.8643 90.6576 76.2479 90.3053C75.6314 89.953 75.1442 89.4431 74.7862 88.7755C74.4283 88.1079 74.2493 87.2996 74.2493 86.3508C74.2493 85.3991 74.4283 84.5894 74.7862 83.9218C75.1442 83.2542 75.6314 82.7457 76.2479 82.3962C76.8643 82.044 77.5604 81.8678 78.3359 81.8678C79.1058 81.8678 79.799 82.044 80.4155 82.3962C81.0348 82.7457 81.5234 83.2542 81.8814 83.9218C82.2422 84.5894 82.4226 85.3991 82.4226 86.3508ZM80.5518 86.3508C80.5518 85.7343 80.4595 85.2144 80.2748 84.7911C80.093 84.3678 79.8359 84.0468 79.5035 83.828C79.1712 83.6093 78.7819 83.4999 78.3359 83.4999C77.8899 83.4999 77.5007 83.6093 77.1683 83.828C76.8359 84.0468 76.5774 84.3678 76.3927 84.7911C76.2109 85.2144 76.12 85.7343 76.12 86.3508C76.12 86.9672 76.2109 87.4871 76.3927 87.9104C76.5774 88.3337 76.8359 88.6547 77.1683 88.8735C77.5007 89.0922 77.8899 89.2016 78.3359 89.2016C78.7819 89.2016 79.1712 89.0922 79.5035 88.8735C79.8359 88.6547 80.093 88.3337 80.2748 87.9104C80.4595 87.4871 80.5518 86.9672 80.5518 86.3508ZM91.0891 81.9871V90.7144H89.4954L85.6985 85.2215H85.6346V90.7144H83.7894V81.9871H85.4087L89.1758 87.4758H89.2525V81.9871H91.0891ZM92.2812 83.5084V81.9871H99.4489V83.5084H96.777V90.7144H94.9531V83.5084H92.2812ZM101.067 90.7144H99.0898L102.103 81.9871H104.48L107.489 90.7144H105.512L103.326 83.9815H103.257L101.067 90.7144ZM100.944 87.284H105.614V88.7244H100.944V87.284ZM115.83 85.0425H113.963C113.929 84.8011 113.859 84.5866 113.754 84.3991C113.649 84.2087 113.514 84.0468 113.349 83.9133C113.185 83.7797 112.994 83.6775 112.778 83.6065C112.565 83.5354 112.334 83.4999 112.084 83.4999C111.632 83.4999 111.239 83.6121 110.903 83.8366C110.568 84.0582 110.308 84.382 110.124 84.8082C109.939 85.2315 109.847 85.7457 109.847 86.3508C109.847 86.9729 109.939 87.4957 110.124 87.919C110.311 88.3422 110.572 88.6619 110.908 88.8778C111.243 89.0937 111.631 89.2016 112.071 89.2016C112.318 89.2016 112.547 89.169 112.757 89.1036C112.97 89.0383 113.159 88.9431 113.324 88.8181C113.489 88.6903 113.625 88.5354 113.733 88.3536C113.844 88.1718 113.92 87.9644 113.963 87.7315L115.83 87.74C115.781 88.1405 115.661 88.5269 115.467 88.8991C115.277 89.2684 115.02 89.5994 114.696 89.892C114.375 90.1817 113.991 90.4119 113.545 90.5823C113.102 90.7499 112.601 90.8337 112.041 90.8337C111.263 90.8337 110.567 90.6576 109.953 90.3053C109.342 89.953 108.859 89.4431 108.504 88.7755C108.152 88.1079 107.976 87.2996 107.976 86.3508C107.976 85.3991 108.155 84.5894 108.513 83.9218C108.871 83.2542 109.357 82.7457 109.97 82.3962C110.584 82.044 111.274 81.8678 112.041 81.8678C112.547 81.8678 113.016 81.9388 113.447 82.0809C113.882 82.2229 114.267 82.4303 114.602 82.703C114.937 82.9729 115.21 83.3039 115.42 83.6959C115.634 84.088 115.77 84.5369 115.83 85.0425ZM116.82 83.5084V81.9871H123.988V83.5084H121.316V90.7144H119.492V83.5084H116.82ZM133.336 81.9871H135.181V87.6547C135.181 88.2911 135.029 88.8479 134.725 89.3252C134.424 89.8025 134.002 90.1746 133.46 90.4417C132.917 90.7059 132.285 90.838 131.564 90.838C130.839 90.838 130.206 90.7059 129.663 90.4417C129.12 90.1746 128.698 89.8025 128.397 89.3252C128.096 88.8479 127.946 88.2911 127.946 87.6547V81.9871H129.791V87.4971C129.791 87.8295 129.863 88.1249 130.008 88.3834C130.156 88.642 130.363 88.8451 130.63 88.9928C130.897 89.1405 131.208 89.2144 131.564 89.2144C131.922 89.2144 132.233 89.1405 132.497 88.9928C132.764 88.8451 132.97 88.642 133.115 88.3834C133.262 88.1249 133.336 87.8295 133.336 87.4971V81.9871ZM141.434 84.4971C141.4 84.1533 141.254 83.8863 140.995 83.6959C140.736 83.5056 140.386 83.4104 139.942 83.4104C139.641 83.4104 139.387 83.453 139.18 83.5383C138.972 83.6207 138.813 83.7357 138.702 83.8834C138.594 84.0312 138.54 84.1988 138.54 84.3863C138.535 84.5425 138.567 84.6789 138.638 84.7954C138.712 84.9119 138.813 85.0127 138.941 85.0979C139.069 85.1803 139.217 85.2528 139.384 85.3153C139.552 85.3749 139.731 85.4261 139.921 85.4687L140.705 85.6562C141.086 85.7414 141.435 85.855 141.754 85.9971C142.072 86.1391 142.347 86.3138 142.58 86.5212C142.813 86.7286 142.994 86.9729 143.121 87.2542C143.252 87.5354 143.319 87.8579 143.322 88.2215C143.319 88.7556 143.183 89.2187 142.913 89.6107C142.646 89.9999 142.259 90.3025 141.754 90.5184C141.251 90.7315 140.644 90.838 139.934 90.838C139.229 90.838 138.616 90.73 138.093 90.5141C137.573 90.2982 137.167 89.9786 136.874 89.5553C136.585 89.1292 136.433 88.6022 136.418 87.9744H138.204C138.224 88.267 138.308 88.5113 138.455 88.7073C138.606 88.9005 138.806 89.0468 139.056 89.1462C139.309 89.2428 139.594 89.2911 139.913 89.2911C140.225 89.2911 140.496 89.2457 140.727 89.1547C140.96 89.0638 141.14 88.9374 141.268 88.7755C141.396 88.6136 141.46 88.4275 141.46 88.2172C141.46 88.0212 141.401 87.8565 141.285 87.7229C141.171 87.5894 141.004 87.4758 140.782 87.382C140.563 87.2883 140.295 87.203 139.977 87.1263L139.026 86.8877C138.29 86.7087 137.71 86.4289 137.283 86.0482C136.857 85.6675 136.646 85.1547 136.648 84.5099C136.646 83.9815 136.786 83.5198 137.07 83.1249C137.357 82.73 137.751 82.4218 138.251 82.2002C138.751 81.9786 139.319 81.8678 139.955 81.8678C140.603 81.8678 141.168 81.9786 141.651 82.2002C142.137 82.4218 142.515 82.73 142.785 83.1249C143.055 83.5198 143.194 83.9772 143.202 84.4971H141.434ZM146.698 81.9871L146.532 88.0979H144.972L144.801 81.9871H146.698ZM145.752 90.8252C145.471 90.8252 145.229 90.7258 145.027 90.5269C144.826 90.3252 144.726 90.0837 144.729 89.8025C144.726 89.5241 144.826 89.2854 145.027 89.0866C145.229 88.8877 145.471 88.7883 145.752 88.7883C146.022 88.7883 146.259 88.8877 146.463 89.0866C146.668 89.2854 146.772 89.5241 146.774 89.8025C146.772 89.99 146.722 90.1619 146.625 90.3181C146.532 90.4715 146.408 90.5951 146.255 90.6888C146.101 90.7797 145.934 90.8252 145.752 90.8252Z" fill="#204E5F"/>
<path d="M95.2529 33.3257C101.841 31.7489 105.902 25.1339 104.324 18.5506C102.746 11.9674 96.1265 7.90895 89.5385 9.48579C82.9506 11.0626 78.8892 17.6777 80.4672 24.2609C82.0451 30.8441 88.6649 34.9026 95.2529 33.3257Z" fill="#FFA451"/>
<path d="M94.7757 23.6713C94.247 24.2241 93.5422 24.5756 92.7824 24.6658C92.0225 24.7559 91.255 24.5789 90.6115 24.1652C89.9679 23.7515 89.4886 23.1268 89.2557 22.3985C89.0228 21.6701 89.0508 20.8835 89.335 20.1735C89.6192 19.4636 90.1418 18.8746 90.8131 18.5077C91.4844 18.1408 92.2626 18.0188 93.0142 18.1627C93.7657 18.3066 94.4436 18.7074 94.9317 19.2964C95.4197 19.8853 95.6874 20.6256 95.6888 21.3902V22.3711C95.6805 22.5048 95.6996 22.6388 95.7451 22.7648C95.7906 22.8908 95.8614 23.0062 95.9532 23.1038C96.045 23.2014 96.1558 23.2792 96.2788 23.3324C96.4018 23.3856 96.5345 23.413 96.6685 23.413C96.8026 23.413 96.9352 23.3856 97.0582 23.3324C97.1813 23.2792 97.2921 23.2014 97.3839 23.1038C97.4757 23.0062 97.5465 22.8908 97.5919 22.7648C97.6374 22.6388 97.6565 22.5048 97.6482 22.3711V21.3902C97.6497 20.2592 97.287 19.1577 96.6136 18.2485C95.9403 17.3394 94.9921 16.6709 93.9092 16.3418C92.8263 16.0128 91.6662 16.0406 90.6004 16.4213C89.5345 16.8019 88.6196 17.5152 87.9907 18.4556C87.3618 19.396 87.0525 20.5136 87.1083 21.6433C87.1642 22.773 87.5823 23.8547 88.3009 24.7286C89.0195 25.6024 90.0003 26.2221 91.0985 26.4959C92.1967 26.7697 93.3539 26.6831 94.3991 26.249C94.4773 26.2046 94.5638 26.1765 94.6532 26.1666C94.7426 26.1567 94.8331 26.1651 94.9192 26.1913C95.0052 26.2175 95.085 26.261 95.1537 26.3191C95.2224 26.3771 95.2785 26.4486 95.3186 26.529C95.3588 26.6095 95.3821 26.6973 95.3871 26.787C95.3921 26.8768 95.3788 26.9667 95.348 27.0511C95.3171 27.1355 95.2693 27.2128 95.2076 27.2782C95.1458 27.3436 95.0714 27.3957 94.9888 27.4313L94.8937 27.4732C93.691 27.9713 92.3675 28.1018 91.0906 27.8482C89.8137 27.5947 88.6407 26.9684 87.7201 26.0486C86.7994 25.1288 86.1723 23.9568 85.9182 22.6809C85.6641 21.405 85.7944 20.0824 86.2925 18.8805C86.7907 17.6786 87.6343 16.6512 88.7168 15.9285C89.7993 15.2057 91.0719 14.82 92.3738 14.82C93.6757 14.8201 94.9483 15.2059 96.0307 15.9288C97.1131 16.6516 97.9567 17.679 98.4548 18.881C98.8113 19.6694 98.9943 20.5251 98.9912 21.3902V22.3711C98.9906 22.8638 98.8323 23.3434 98.5393 23.7397C98.2463 24.136 97.8341 24.4282 97.3629 24.5735C96.8918 24.7188 96.3865 24.7096 95.921 24.5473C95.4554 24.385 95.0541 24.078 94.7757 23.6713ZM92.4093 23.3634C92.7998 23.3634 93.1816 23.2477 93.5063 23.0308C93.831 22.814 94.0841 22.5059 94.2336 22.1453C94.383 21.7848 94.4221 21.388 94.3459 21.0053C94.2697 20.6225 94.0817 20.2709 93.8055 19.995C93.5294 19.719 93.1775 19.5311 92.7945 19.455C92.4115 19.3788 92.0145 19.4179 91.6537 19.5673C91.2928 19.7166 90.9845 19.9695 90.7675 20.294C90.5505 20.6185 90.4347 21 90.4347 21.3902C90.4357 21.9132 90.6441 22.4145 91.0142 22.7843C91.3843 23.1542 91.8859 23.3624 92.4093 23.3634Z" fill="white"/>
<path d="M133.833 30.0677C138.623 25.281 138.623 17.5202 133.833 12.7335C129.043 7.94676 121.276 7.94676 116.486 12.7335C111.696 17.5202 111.696 25.281 116.486 30.0677C121.276 34.8544 129.043 34.8544 133.833 30.0677Z" fill="#FFA451"/>
<path d="M130.767 25.5798C129.907 25.3251 127.423 24.1085 127.137 24.3595L125.65 25.6863C124.851 25.5076 123.47 24.3823 122.743 23.5687C122.016 22.7551 121.062 21.2533 120.985 20.4398C120.985 20.4398 122.195 19.3676 122.477 19.1129C122.758 18.8582 121.834 16.2539 121.685 15.3719C121.537 14.4899 120.114 14.6115 119.498 14.775C118.882 14.9385 116.249 19.4475 121.179 24.9754C126.11 30.5032 130.889 28.397 131.125 27.8153C131.361 27.2336 131.638 25.8308 130.767 25.5798Z" fill="white"/>
<path d="M159.78 33.3273C166.368 31.7504 170.43 25.1354 168.852 18.5522C167.274 11.9689 160.654 7.91048 154.066 9.48733C147.478 11.0642 143.417 17.6792 144.995 24.2624C146.572 30.8457 153.192 34.9041 159.78 33.3273Z" fill="#FFA451"/>
<path d="M156.954 13.087C156.192 13.086 155.437 13.2353 154.732 13.5263C154.028 13.8173 153.388 14.2443 152.849 14.7829C152.31 15.3215 151.883 15.961 151.591 16.6649C151.3 17.3688 151.151 18.1231 151.152 18.8848C151.152 22.0213 153.743 26.2528 155.999 29.2562C156.105 29.4008 156.243 29.5184 156.403 29.5994C156.563 29.6805 156.74 29.7227 156.92 29.7227C157.099 29.7227 157.276 29.6805 157.436 29.5994C157.596 29.5184 157.734 29.4008 157.84 29.2562C160.093 26.2528 162.687 22.0327 162.687 18.8848C162.692 17.3574 162.092 15.8901 161.018 14.8037C159.943 13.7172 158.482 13.1 156.954 13.087ZM156.92 22.4129C156.242 22.4129 155.58 22.2122 155.017 21.8363C154.454 21.4603 154.015 20.9259 153.756 20.3007C153.497 19.6754 153.429 18.9875 153.561 18.3237C153.693 17.66 154.02 17.0503 154.498 16.5718C154.977 16.0932 155.587 15.7674 156.252 15.6353C156.916 15.5033 157.604 15.5711 158.23 15.83C158.856 16.089 159.39 16.5276 159.767 17.0903C160.143 17.653 160.344 18.3145 160.344 18.9912C160.344 19.4406 160.255 19.8855 160.083 20.3007C159.911 20.7158 159.659 21.093 159.341 21.4107C159.023 21.7285 158.645 21.9805 158.23 22.1525C157.815 22.3244 157.369 22.4129 156.92 22.4129Z" fill="white"/>
<mask id="mask0_34_1080" style="mask-type:luminance" maskUnits="userSpaceOnUse" x="0" y="7" width="106" height="159">
<path d="M105.044 7.50208H0V165.005H105.044V7.50208Z" fill="white"/>
</mask>
<g mask="url(#mask0_34_1080)">
<path d="M32.8677 101.579L57.6165 101.107L57.5099 103.658L60.3177 210.482H41.4927L45.3619 150.748L44.1939 118.82L37.4979 210.562H15.1194L28.7892 152.117L33.134 104.384L32.8677 101.579Z" fill="#204E5F"/>
<path d="M47.9681 210.483L51.0117 150.851C51.0117 150.851 48.3752 129.921 48.1431 125.287C47.911 120.653 54.4358 117.558 54.4358 117.558L44.1901 118.831L45.3581 150.767L41.4927 210.483H47.9681Z" fill="#18414C"/>
<path d="M51.7689 53.033C51.7689 53.033 50.4106 54.835 47.2452 55.2684C44.0798 55.7019 40.6139 53.512 40.6139 53.512L40.2334 32.6285C40.2334 32.6285 47.9719 33.0885 47.9453 33.4763C47.9186 33.8641 51.7689 53.033 51.7689 53.033Z" fill="#FFC6A8"/>
<path d="M41.428 34.9742C41.3634 34.1758 41.3481 33.4231 41.3595 32.6931L41.7628 32.7197H41.8389L42.2194 32.7463H42.3031L42.7634 32.7767H42.8243L43.239 32.8072H43.3493L43.8287 32.8452H43.92L44.3271 32.8794H44.4489L44.9054 32.9212H45.031L45.4114 32.9592H45.5103L45.9365 33.0049H46.0582L46.4044 33.0429H46.4729L46.8534 33.0923H46.9409L47.2262 33.1379H47.2719C47.367 33.1379 47.4545 33.1683 47.5344 33.1873H47.5914L47.7817 33.233L47.9072 33.2824H47.93C47.9529 33.3014 47.9719 33.3166 47.9719 33.3356C47.9491 33.5979 49.741 42.6349 50.8748 48.3301C44.232 48.8053 41.9569 41.5514 41.428 34.9742Z" fill="#FFA451" fill-opacity="0.8"/>
<path d="M53.4276 45.3913C49.7828 46.2847 42.5009 45.2126 41.7286 34.4762C40.9562 23.7398 46.5147 19.4285 50.5247 20.2801C54.5348 21.1317 57.2208 30.1649 57.6165 34.7271C58.0121 39.2893 58.0502 44.2583 53.4276 45.3913Z" fill="#FFC6A8"/>
<path d="M48.6148 30.4082C48.6278 30.2698 48.6818 30.1384 48.7698 30.0308C48.8579 29.9232 48.976 29.8443 49.1092 29.8041C49.2423 29.7638 49.3845 29.7642 49.5174 29.805C49.6504 29.8459 49.7682 29.9254 49.8557 30.0334C49.9433 30.1414 49.9966 30.273 50.009 30.4115C50.0214 30.5499 49.9922 30.6889 49.9252 30.8107C49.8582 30.9325 49.7563 31.0316 49.6327 31.0953C49.5091 31.1591 49.3693 31.1846 49.2311 31.1686C49.0493 31.1475 48.883 31.0561 48.7678 30.914C48.6526 30.7718 48.5976 30.5903 48.6148 30.4082Z" fill="#18414C"/>
<path d="M53.2868 29.9063C53.2998 29.7681 53.3536 29.6368 53.4414 29.5292C53.5293 29.4216 53.6472 29.3426 53.7801 29.3022C53.913 29.2617 54.055 29.2618 54.1879 29.3023C54.3209 29.3427 54.4387 29.4218 54.5265 29.5295C54.6143 29.6371 54.668 29.7684 54.6809 29.9067C54.6938 30.0449 54.6651 30.1839 54.5987 30.3059C54.5323 30.4278 54.431 30.5273 54.3078 30.5915C54.1846 30.6558 54.0451 30.682 53.907 30.6667C53.7245 30.6466 53.5572 30.5556 53.4412 30.4133C53.3252 30.2711 53.2698 30.089 53.2868 29.9063Z" fill="#18414C"/>
<path d="M51.6166 38.0157C50.9008 38.018 50.2027 37.793 49.623 37.3732C49.6039 37.3602 49.5876 37.3436 49.5751 37.3242C49.5626 37.3048 49.5541 37.2831 49.5502 37.2604C49.5463 37.2377 49.547 37.2144 49.5523 37.192C49.5577 37.1695 49.5675 37.1484 49.5812 37.1298C49.5947 37.1092 49.6125 37.0917 49.6333 37.0784C49.6542 37.0651 49.6776 37.0564 49.702 37.0528C49.7264 37.0492 49.7514 37.0509 49.7751 37.0576C49.7989 37.0643 49.821 37.076 49.8399 37.0918C51.453 38.2324 53.1803 37.4112 53.8842 36.974C53.0776 36.6318 52.1455 35.4114 52.0237 35.2517C52.005 35.2228 51.9951 35.1892 51.9951 35.1548C51.9951 35.1204 52.005 35.0867 52.0237 35.0578C52.0408 35.0285 52.0661 35.0049 52.0966 34.99C52.1271 34.9751 52.1613 34.9696 52.1949 34.9742C53.0814 35.0654 54.2304 34.248 54.6869 33.8793C54.0173 33.5637 52.3395 32.7083 52.0237 31.9023C52.0152 31.8811 52.0109 31.8584 52.0113 31.8356C52.0117 31.8127 52.0166 31.7902 52.0258 31.7693C52.035 31.7484 52.0484 31.7295 52.065 31.7139C52.0816 31.6982 52.1012 31.686 52.1226 31.678C52.1436 31.6694 52.1661 31.665 52.1888 31.6651C52.2114 31.6652 52.2339 31.6698 52.2548 31.6786C52.2757 31.6875 52.2946 31.7004 52.3104 31.7166C52.3263 31.7328 52.3387 31.752 52.3471 31.773C52.6286 32.4688 54.4244 33.3812 55.094 33.674C55.12 33.6865 55.1426 33.7052 55.1598 33.7283C55.1771 33.7515 55.1884 33.7785 55.1929 33.807C55.1979 33.8354 55.1956 33.8645 55.1863 33.8918C55.177 33.919 55.161 33.9435 55.1397 33.9629C55.0788 34.0199 53.7624 35.1985 52.5449 35.3164C53.0814 35.9703 53.8842 36.7611 54.3217 36.7116C54.3589 36.7085 54.3961 36.7171 54.4282 36.7362C54.4603 36.7553 54.4855 36.7839 54.5005 36.8181C54.5149 36.8526 54.5178 36.8907 54.5089 36.927C54.5 36.9632 54.4797 36.9957 54.451 37.0196C53.6309 37.6344 52.6413 37.9822 51.6166 38.0157Z" fill="#18414C"/>
<path d="M50.5628 38.8331C50.3202 38.837 50.0795 38.7895 49.8566 38.6939C49.6336 38.5982 49.4335 38.4565 49.2693 38.278C49.2552 38.2599 49.2449 38.2392 49.2389 38.217C49.233 38.1949 49.2316 38.1718 49.2348 38.1491C49.238 38.1264 49.2457 38.1046 49.2575 38.0849C49.2693 38.0653 49.285 38.0482 49.3035 38.0347C49.3404 38.0073 49.3867 37.9955 49.4323 38.0019C49.4778 38.0083 49.5191 38.0324 49.547 38.0689C49.7118 38.2262 49.9113 38.3426 50.1294 38.4086C50.3475 38.4747 50.578 38.4885 50.8025 38.4491C50.8263 38.4419 50.8514 38.4399 50.876 38.4431C50.9007 38.4464 50.9244 38.4548 50.9455 38.4679C50.9667 38.4811 50.9847 38.4985 50.9986 38.5192C51.0124 38.5398 51.0217 38.5632 51.0258 38.5877C51.0299 38.6123 51.0287 38.6374 51.0223 38.6614C51.0159 38.6854 51.0045 38.7078 50.9887 38.7271C50.973 38.7463 50.9534 38.762 50.9311 38.7731C50.9088 38.7841 50.8844 38.7903 50.8596 38.7913C50.7622 38.8147 50.6628 38.8287 50.5628 38.8331Z" fill="#18414C"/>
<path d="M54.6831 17.7519C47.4544 19.4931 45.5522 17.4857 41.3671 19.7668C37.1821 22.0479 30.8817 29.7619 40.3285 37.1298L42.9156 33.2634C42.9156 33.2634 46.6669 29.0813 46.0125 27.207C45.3581 25.3327 44.9548 24.0173 44.9548 24.0173C44.9548 24.0173 50.6617 27.207 51.4226 25.9182C51.5001 25.7841 51.5409 25.632 51.5409 25.4772C51.5409 25.3224 51.5001 25.1703 51.4226 25.0362C52.7238 25.884 54.276 26.5569 55.3375 25.9182C55.8093 25.6293 55.9196 25.3023 55.8017 24.9716C56.6463 25.2073 57.4833 25.1312 58.1072 24.3823C59.5111 22.6828 61.927 16.0106 54.6831 17.7519Z" fill="#18414C"/>
<path d="M43.6499 33.001C42.889 31.602 39.3317 27.8381 38.8865 30.1307C38.4414 32.4232 39.7045 35.1035 41.5954 35.7042C43.4863 36.3048 44.5135 34.556 43.6499 33.001Z" fill="#FFC6A8"/>
<path d="M50.4107 40.4971L47.7419 41.1937C47.4959 41.2579 47.3486 41.5093 47.4129 41.7551L47.6533 42.6747C47.7175 42.9205 47.969 43.0677 48.215 43.0035L50.8838 42.3069C51.1298 42.2426 51.2771 41.9913 51.2128 41.7455L50.9724 40.8259C50.9082 40.5801 50.6567 40.4329 50.4107 40.4971Z" fill="#204E5F"/>
<path d="M44.8331 43.2736C44.0949 43.3059 43.3607 43.1481 42.7011 42.8152C42.0416 42.4823 41.4787 41.9856 41.0666 41.3727C39.4534 39.0156 39.9632 34.7271 40.104 33.769C39.1567 32.8452 33.9064 27.4199 36.7902 23.504C36.8469 23.4341 36.9284 23.3887 37.0177 23.3772C37.107 23.3658 37.1973 23.3891 37.2698 23.4425C37.3423 23.4959 37.3915 23.5751 37.407 23.6638C37.4226 23.7524 37.4033 23.8436 37.3533 23.9184C34.6216 27.629 40.6519 33.3394 40.7089 33.3964L40.8459 33.5257L40.8155 33.7082C40.8155 33.7576 40.0127 38.605 41.6411 40.9811C43.1058 43.1254 45.7614 42.7071 47.7284 41.981C47.8133 41.9562 47.9045 41.9645 47.9835 42.0042C48.0626 42.0438 48.1237 42.1119 48.1545 42.1948C48.1854 42.2776 48.1837 42.3691 48.1498 42.4507C48.1159 42.5324 48.0523 42.5982 47.9719 42.6349C46.9709 43.0291 45.9086 43.2453 44.8331 43.2736Z" fill="#FF8D24"/>
<path d="M41.622 32.7007H38.8637C38.6094 32.7007 38.4033 32.9067 38.4033 33.1607V34.1112C38.4033 34.3652 38.6094 34.5712 38.8637 34.5712H41.622C41.8762 34.5712 42.0823 34.3652 42.0823 34.1112V33.1607C42.0823 32.9067 41.8762 32.7007 41.622 32.7007Z" fill="#204E5F"/>
<path d="M31.0948 107.894C31.0948 107.894 38.8066 108.901 39.7882 108.566C40.7698 108.232 41.0666 108.745 40.572 109.019C40.0774 109.293 39.0045 110.467 37.6653 110.433C36.3261 110.399 35.1961 110.464 35.1961 110.464C35.1961 110.464 36.5087 113.125 35.957 115.125C35.4053 117.124 33.9178 126.815 33.1606 127.089C32.4035 127.363 32.1106 126.732 32.2247 125.983C32.2247 125.983 30.5089 126.549 30.9045 125.085C30.9045 125.085 29.7289 125.302 30.1208 124.086C30.5127 122.869 31.1709 117.687 31.3953 116.691C31.6198 115.695 29.7441 111.779 29.7441 111.779L31.0948 107.894Z" fill="#FFC6A8"/>
<path d="M89.1754 38.3274L95.3617 30.2181C95.4488 30.1049 95.5677 30.0202 95.7033 29.9748C95.8388 29.9294 95.9848 29.9255 96.1226 29.9634L96.503 30.0774L91.7511 37.2515C91.7511 37.2515 95.4302 36.1566 94.7187 37.8978C94.7187 37.8978 96.7085 37.2553 95.6622 39.0992C95.6622 39.0992 97.7509 38.6734 96.5335 40.0725C95.316 41.4716 94.3078 47.851 90.2826 47.9651C86.2573 48.0792 86.7025 47.1667 86.7025 47.1667L89.1754 38.3274Z" fill="#FFC6A8"/>
<path d="M94.3838 43.4105C93.7028 42.9467 94.0642 42.8934 94.0642 42.8934C94.0642 42.8934 93.1093 43.1025 92.8772 42.8934C92.7104 42.7157 92.581 42.5062 92.4967 42.2775C92.2198 42.3386 91.9329 42.3386 91.6559 42.2775C91.3668 42.1635 90.6401 40.3766 91.2488 39.7873C91.8576 39.1981 93.6571 39.4072 93.7599 38.2666C93.8045 37.8116 93.9081 37.3643 94.068 36.936C93.2837 36.9251 92.5024 37.034 91.751 37.2591L92.0706 36.7497L89.9971 37.2287L89.1601 38.3274L86.6872 47.1667C86.6872 47.1667 86.5958 47.3644 86.9002 47.5469C86.9002 47.5469 90.9445 45.7981 91.3782 44.034C91.8096 44.1185 92.2475 44.1655 92.687 44.1747C92.687 44.1747 93.0674 44.5358 93.4251 44.4484C93.5278 44.59 93.6762 44.6918 93.8452 44.7369C94.0143 44.7819 94.1938 44.7673 94.3534 44.6955C94.5474 44.3153 94.7338 43.9618 94.8898 43.5892C94.7093 43.5707 94.5359 43.5094 94.3838 43.4105Z" fill="#FFA451" fill-opacity="0.8"/>
<path d="M86.7024 47.1667L85.9415 39.563C85.8758 38.9394 86.0536 38.3145 86.4378 37.8186C86.822 37.3228 87.3829 36.9943 88.0036 36.9017L93.7599 36.0539C93.7599 36.0539 94.0072 39.065 91.4771 39.0004C88.9471 38.9357 94.1175 43.2926 86.7024 47.1667Z" fill="#FFC6A8"/>
<path d="M85.0741 46.5204C85.0741 46.5204 82.3614 59.3782 75.8822 60.3059C71.758 60.899 66.3061 57.4203 62.8896 54.816C60.6157 53.0823 57.8204 52.1709 54.9609 52.2308L35.5575 52.649C33.3347 52.6961 31.1639 53.3301 29.2656 54.4866C27.3672 55.6431 25.8089 57.2809 24.7487 59.2338L4.60352 94.3552L28.1006 117.524L34.1346 105.86L17.2575 90.8195L29.8126 69.3391L33.1302 104.384L57.5099 103.658L58.9138 69.8903C62.3379 70.8218 66.1425 71.8597 68.8057 72.5858C74.8436 74.232 89.4341 72.3729 92.0631 59.728L94.6958 47.0793L85.0741 46.5204Z" fill="#FFA451"/>
<path d="M29.8202 69.4607L31.517 87.3712C33.5373 77.9198 34.0433 61.743 34.0433 61.743L29.8202 69.4607Z" fill="#FF8D24"/>
<path d="M84.8718 49.2328L84.7872 49.9233L93.5749 50.9984L93.6595 50.3078L84.8718 49.2328Z" fill="#FFB6B6"/>
<path d="M84.4608 50.6703L84.3762 51.3609L93.1638 52.436L93.2485 51.7454L84.4608 50.6703Z" fill="#FFB6B6"/>
<path d="M31.1633 103.966L25.251 112.775L24.6118 112.342L30.5279 103.529L31.1633 103.966Z" fill="#FFB6B6"/>
<path d="M32.3579 105.126L26.4456 113.938L25.8064 113.501L31.7225 104.689L32.3579 105.126Z" fill="#FFB6B6"/>
<path d="M44.951 57.4963C44.951 57.4963 43.3531 92.633 42.4514 96.0432L47.5876 101.411L51.0117 96.0432C51.0117 96.0432 49.1589 61.2982 47.5876 57.4963H44.951Z" fill="#204E5F"/>
<path d="M47.5876 57.4963H44.951C44.951 57.4963 44.8939 58.6787 44.8026 60.629C44.9262 60.664 45.055 60.6768 45.1831 60.6671L47.4658 60.477C47.7219 60.4497 47.9635 60.3449 48.1582 60.1766C48.0532 59.2672 47.8621 58.3697 47.5876 57.4963Z" fill="#18414C"/>
<path d="M49.5736 55.5612L48.2952 58.1959C48.2409 58.3096 48.1573 58.4068 48.0531 58.4776C47.9488 58.5484 47.8275 58.5903 47.7017 58.5989L44.776 58.8118C44.6504 58.8202 44.5248 58.7959 44.4114 58.7413C44.298 58.6866 44.2008 58.6035 44.1292 58.5L42.4857 56.0744C42.415 55.9696 42.3729 55.8482 42.3636 55.7222C42.3542 55.5962 42.3779 55.4699 42.4324 55.3559L43.7107 52.7212C43.766 52.6074 43.8503 52.5103 43.9552 52.4395C44.0601 52.3688 44.1818 52.3269 44.3081 52.3182L47.23 52.1091C47.3558 52.0991 47.4819 52.1227 47.5956 52.1775C47.7093 52.2322 47.8063 52.3162 47.8767 52.4209L49.5203 54.8464C49.591 54.9505 49.6332 55.0713 49.6425 55.1967C49.6518 55.3221 49.6281 55.4478 49.5736 55.5612Z" fill="#204E5F"/>
<path d="M49.1932 56.3444L49.4253 55.8729C49.5248 55.6649 49.5684 55.4345 49.5517 55.2045C49.5351 54.9745 49.4587 54.7528 49.3301 54.5613L48.0708 52.706C47.9413 52.515 47.7638 52.3615 47.5561 52.2607C47.3484 52.1599 47.1179 52.1155 46.8876 52.1319L44.6505 52.2954C44.4204 52.3122 44.1987 52.3893 44.0077 52.5187C43.8167 52.6482 43.6632 52.8255 43.5624 53.033L42.5846 55.0479C42.4832 55.2555 42.4385 55.4862 42.4552 55.7166C42.4719 55.947 42.5494 56.1688 42.6797 56.3596L42.8928 56.6713L46.199 54.8654L49.1932 56.3444Z" fill="#18414C"/>
<path d="M45.9972 52.7934L53.1536 57.5229L52.0389 49.2691L46.0049 49.3946L39.8262 49.5239L38.9968 57.8195L45.9972 52.7934Z" fill="#FF8D24"/>
</g>
</svg>
