<svg width="72" height="90" viewBox="0 0 72 90" fill="none" xmlns="http://www.w3.org/2000/svg">
<g id="Frame" clip-path="url(#clip0_30_143)">
<g id="Group">
<path id="Vector" d="M21.2103 43.0722L18.2159 46.0666C18.108 46.1746 17.9328 46.1746 17.8248 46.0666L16.7153 44.9571C16.607 44.8492 16.4317 44.8492 16.3238 44.9571C16.2159 45.065 16.2159 45.2403 16.3238 45.3482L17.8248 46.8488C17.9328 46.9567 18.108 46.9567 18.2159 46.8488L21.6018 43.4633C21.7097 43.3554 21.7097 43.1802 21.6018 43.0722C21.4935 42.9639 21.3187 42.9639 21.2103 43.0722Z" fill="#00EA25"/>
<path id="Vector_2" d="M21.2103 67.909L18.2159 70.9034C18.108 71.0113 17.9328 71.0113 17.8248 70.9034L16.7153 69.7939C16.607 69.686 16.4317 69.686 16.3238 69.7939C16.2159 69.9018 16.2159 70.077 16.3238 70.185L17.8248 71.6856C17.9328 71.7935 18.108 71.7935 18.2159 71.6856L21.6018 68.3001C21.7097 68.1922 21.7097 68.0169 21.6018 67.909C21.4935 67.8007 21.3187 67.8007 21.2103 67.909Z" fill="#00EA25"/>
<path id="Vector_3" d="M21.2103 30.6537L18.2159 33.6481C18.108 33.756 17.9328 33.756 17.8248 33.6481L16.7153 32.5385C16.607 32.4306 16.4317 32.4306 16.3238 32.5385C16.2159 32.6464 16.2159 32.8217 16.3238 32.9296L17.8248 34.4302C17.9328 34.5381 18.108 34.5381 18.2159 34.4302L21.6018 31.0447C21.7097 30.9368 21.7097 30.7616 21.6018 30.6537C21.4935 30.5457 21.3187 30.5457 21.2103 30.6537Z" fill="#00EA25"/>
<path id="Vector_4" d="M21.2103 55.4904L18.2159 58.4848C18.108 58.5927 17.9328 58.5927 17.8248 58.4848L16.7153 57.3753C16.607 57.2673 16.4317 57.2673 16.3238 57.3753C16.2159 57.4832 16.2159 57.6584 16.3238 57.7663L17.8248 59.267C17.9328 59.3749 18.108 59.3749 18.2159 59.267L21.6018 55.8815C21.7097 55.7736 21.7097 55.5983 21.6018 55.4904C21.4935 55.3825 21.3187 55.3825 21.2103 55.4904Z" fill="#00EA25"/>
<path id="Vector_5" d="M46.1842 14.8027V5.23364H14.8479C10.8924 5.23364 7.67322 8.4528 7.67322 12.4083V77.5922C7.67322 81.5481 10.8924 84.7668 14.8479 84.7668H56.3561C60.312 84.7668 63.5307 81.5477 63.5307 77.5922V24.0707H55.4522C50.3417 24.0707 46.1842 19.9127 46.1842 14.8027ZM18.9628 74.5012C16.3647 74.5012 14.2588 72.3953 14.2588 69.7973C14.2588 67.1992 16.3647 65.0933 18.9628 65.0933C21.5608 65.0933 23.6668 67.1992 23.6668 69.7973C23.6672 72.3949 21.5608 74.5012 18.9628 74.5012ZM18.9628 62.0827C16.3647 62.0827 14.2588 59.9767 14.2588 57.3787C14.2588 54.7806 16.3647 52.6747 18.9628 52.6747C21.5608 52.6747 23.6668 54.7806 23.6668 57.3787C23.6668 59.9767 21.5608 62.0827 18.9628 62.0827ZM18.9628 49.6645C16.3647 49.6645 14.2588 47.5585 14.2588 44.9605C14.2588 42.3624 16.3647 40.2565 18.9628 40.2565C21.5608 40.2565 23.6668 42.3624 23.6668 44.9605C23.6672 47.5581 21.5608 49.6645 18.9628 49.6645ZM18.9628 37.2459C16.3647 37.2459 14.2588 35.1399 14.2588 32.5419C14.2588 29.9438 16.3647 27.8379 18.9628 27.8379C21.5608 27.8379 23.6668 29.9438 23.6668 32.5419C23.6668 35.1399 21.5608 37.2459 18.9628 37.2459ZM54.4388 71.7904H26.8113C25.8903 71.7904 25.137 71.0371 25.137 70.1161C25.137 69.1952 25.8903 68.4418 26.8113 68.4418H54.4388C55.3597 68.4418 56.1135 69.1952 56.1135 70.1161C56.1135 71.0371 55.3597 71.7904 54.4388 71.7904ZM54.4388 59.3722H26.8113C25.8903 59.3722 25.137 58.6189 25.137 57.6979C25.137 56.777 25.8903 56.0237 26.8113 56.0237H54.4388C55.3597 56.0237 56.1135 56.777 56.1135 57.6979C56.1135 58.6189 55.3597 59.3722 54.4388 59.3722ZM54.4388 46.9536H26.8113C25.8903 46.9536 25.137 46.2003 25.137 45.2794C25.137 44.3584 25.8903 43.6051 26.8113 43.6051H54.4388C55.3597 43.6051 56.1135 44.3584 56.1135 45.2794C56.1135 46.2003 55.3597 46.9536 54.4388 46.9536ZM56.1135 32.8612C56.1135 33.7821 55.3597 34.5355 54.4388 34.5355H26.8113C25.8903 34.5355 25.137 33.7821 25.137 32.8612C25.137 31.9403 25.8903 31.1869 26.8113 31.1869H54.4388C55.3597 31.1865 56.1135 31.9403 56.1135 32.8612Z" fill="#EA0000"/>
<path id="Vector_6" d="M55.4522 21.9777H63.4074L63.3019 21.8723L48.2772 6.8475V14.8027C48.2772 18.759 51.4959 21.9777 55.4522 21.9777Z" fill="#EA0000"/>
</g>
</g>
<defs>
<clipPath id="clip0_30_143">
<rect width="71.2088" height="90" fill="white"/>
</clipPath>
</defs>
</svg>
