<svg width="131" height="90" viewBox="0 0 131 90" fill="none" xmlns="http://www.w3.org/2000/svg">
<g id="&#240;&#159;&#166;&#134; illustration &#34;envelope email sent checkmark&#34;">
<path id="Vector" d="M110.093 29.896V80.6707C110.093 82.6678 109.301 84.5832 107.889 85.9965C106.478 87.4097 104.564 88.2052 102.567 88.2083L10.4743 88.2661C9.48151 88.2661 8.49851 88.07 7.58174 87.689C6.66496 87.308 5.83248 86.7497 5.1321 86.0461C4.43171 85.3425 3.87722 84.5075 3.50047 83.5889C3.12371 82.6704 2.93212 81.6866 2.93669 80.6938L3.14478 30.3121C3.15388 28.3271 3.9457 26.4257 5.3483 25.0209C6.75091 23.6161 8.65105 22.8214 10.6361 22.8092L102.509 22.3237C103.506 22.3176 104.494 22.5092 105.416 22.8874C106.338 23.2656 107.176 23.823 107.881 24.5272C108.587 25.2314 109.145 26.0685 109.525 26.9901C109.905 27.9116 110.098 28.8993 110.093 29.896Z" fill="white"/>
<path id="Vector_2" d="M9.24876 90C8.02934 90 6.82195 89.7589 5.69608 89.2905C4.5702 88.8221 3.54807 88.1357 2.6885 87.2707C1.82893 86.4058 1.14889 85.3794 0.687523 84.2506C0.226152 83.1219 -0.00744454 81.913 0.000176839 80.6936L0.254512 30.312C0.254512 27.8591 1.22892 25.5067 2.96336 23.7722C4.69781 22.0378 7.05022 21.0634 9.5031 21.0634L101.376 20.5779C103.829 20.5779 106.181 21.5522 107.916 23.2867C109.65 25.0211 110.625 27.3736 110.625 29.8264V80.6705C110.625 83.1234 109.65 85.4758 107.916 87.2102C106.181 88.9447 103.829 89.9191 101.376 89.9191L9.27188 89.9769L9.24876 90ZM101.353 24.1039L9.49154 24.5316C7.95849 24.5316 6.48823 25.1406 5.4042 26.2246C4.32017 27.3087 3.71117 28.7789 3.71117 30.312L3.4684 80.7052C3.4684 82.2382 4.0774 83.7085 5.16143 84.7925C6.24545 85.8765 7.71571 86.4855 9.24876 86.4855L101.353 86.4277C102.886 86.4277 104.356 85.8187 105.44 84.7347C106.524 83.6507 107.133 82.1804 107.133 80.6474V29.8958C107.133 28.3627 106.524 26.8925 105.44 25.8085C104.356 24.7244 102.886 24.1154 101.353 24.1154V24.1039Z" fill="black"/>
<path id="Vector_3" d="M55.353 69.2024C53.7054 69.2062 52.0734 68.8833 50.5513 68.2522C49.0293 67.6212 47.6475 66.6946 46.486 65.5261L16.3009 35.3526L18.7518 32.9018L48.9368 63.0752C50.6387 64.7766 52.9466 65.7324 55.353 65.7324C57.7595 65.7324 60.0674 64.7766 61.7692 63.0752L91.9543 32.8902L94.4052 35.3411L64.2201 65.5261C63.0585 66.6946 61.6767 67.6212 60.1547 68.2522C58.6327 68.8833 57.0007 69.2062 55.353 69.2024Z" fill="black"/>
<path id="Vector_4" d="M12.1505 75.5266L34.48 50.0557L37.088 52.342L14.7584 77.8129L12.1505 75.5266Z" fill="black"/>
<path id="Vector_5" d="M73.6189 52.3275L76.2273 50.0417L98.5524 75.5165L95.944 77.8023L73.6189 52.3275Z" fill="black"/>
<g id="Group">
<path id="Vector_6" d="M99.2953 26.7169H101.607V39.2487H99.2953V26.7169Z" fill="white"/>
<path id="Vector_7" d="M99.2953 41.0405H101.607V46.4163H99.2953V41.0405Z" fill="white"/>
<path id="Vector_8" d="M99.2953 48.1966H101.607V49.9885H99.2953V48.1966Z" fill="white"/>
<path id="Vector_9" d="M100.949 32.4857H103.261V47.1563H100.949V32.4857Z" fill="white"/>
<path id="Vector_10" d="M100.949 49.2488H103.261V55.5378H100.949V49.2488Z" fill="white"/>
<path id="Vector_11" d="M100.949 57.6303H103.261V59.7228H100.949V57.6303Z" fill="white"/>
</g>
<path id="Vector_12" d="M101.191 54.7978C114.746 54.7978 125.735 43.8093 125.735 30.2544C125.735 16.6994 114.746 5.71094 101.191 5.71094C87.6364 5.71094 76.648 16.6994 76.648 30.2544C76.648 43.8093 87.6364 54.7978 101.191 54.7978Z" fill="#EA0000"/>
<path id="Vector_13" d="M100.139 56.5319C94.9421 56.5319 89.8617 54.9907 85.5403 52.1033C81.219 49.2159 77.851 45.1119 75.8621 40.3103C73.8732 35.5088 73.3528 30.2252 74.3667 25.1279C75.3807 20.0305 77.8833 15.3483 81.5583 11.6734C85.2333 7.99838 89.9155 5.49569 95.0129 4.48176C100.11 3.46784 105.394 3.98822 110.195 5.97711C114.997 7.96599 119.101 11.334 121.988 15.6554C124.876 19.9767 126.417 25.0572 126.417 30.2544C126.408 37.2208 123.636 43.8992 118.71 48.8253C113.784 53.7513 107.106 56.5227 100.139 56.5319ZM100.139 7.4335C95.6281 7.4335 91.2181 8.77125 87.4672 11.2776C83.7162 13.7839 80.7927 17.3462 79.0663 21.5141C77.3399 25.6819 76.8882 30.2681 77.7683 34.6927C78.6484 39.1173 80.8208 43.1815 84.0107 46.3714C87.2007 49.5614 91.2649 51.7337 95.6895 52.6138C100.114 53.4939 104.7 53.0422 108.868 51.3159C113.036 49.5895 116.598 46.666 119.105 42.915C121.611 39.164 122.949 34.7541 122.949 30.2428C122.936 24.1982 120.529 18.4049 116.254 14.1318C111.979 9.8587 106.184 7.45423 100.139 7.44507V7.4335Z" fill="black"/>
<path id="Vector_14" d="M97.9195 41.2139C97.4642 41.2127 97.0202 41.0714 96.6479 40.8093L87.7808 34.6012C87.4037 34.3375 87.1467 33.9348 87.0665 33.4817C86.9863 33.0285 87.0894 32.5621 87.353 32.185C87.6167 31.8078 88.0194 31.5509 88.4726 31.4707C88.9257 31.3905 89.3921 31.4935 89.7692 31.7572L97.6537 37.2486L110.521 20.0925C110.66 19.9103 110.835 19.7574 111.033 19.6425C111.232 19.5277 111.452 19.4531 111.679 19.423C111.907 19.393 112.138 19.408 112.36 19.4673C112.582 19.5267 112.789 19.6291 112.972 19.7688C113.154 19.9084 113.307 20.0826 113.422 20.2814C113.536 20.4801 113.611 20.6996 113.641 20.9272C113.671 21.1547 113.656 21.386 113.597 21.6078C113.537 21.8295 113.435 22.0374 113.295 22.2196L99.6999 40.3122C99.4941 40.591 99.2259 40.8178 98.9168 40.9744C98.6076 41.131 98.2661 41.213 97.9195 41.2139Z" fill="white"/>
</g>
</svg>
