<svg xmlns="http://www.w3.org/2000/svg" width="15" height="13.846" viewBox="0 0 15 13.846">
  <path id="Icon_ionic-ios-leaf" data-name="Icon ionic-ios-leaf" d="M18.011,15.847A7.3,7.3,0,0,1,16,15.425a7.53,7.53,0,0,0-2.751-7.053c-2.589-2.135-6.523-.584-9.588-3.829-.714-.757-.3,8.492,3.537,12a6.745,6.745,0,0,0,7.013,1.356,4.015,4.015,0,0,0,1.4-1.222,10.582,10.582,0,0,0,2.236.512C18.372,17.25,18.639,15.944,18.011,15.847Zm-3.31.267a16.979,16.979,0,0,1-6.819-4.551.147.147,0,0,1,.2-.216,21.928,21.928,0,0,0,6.97,3.891A1.345,1.345,0,0,1,14.7,16.114Z" transform="translate(-3.376 -4.499)" fill="rgba(2,180,24,0.7)"/>
</svg>
