<svg width="106" height="124" viewBox="0 0 106 124" fill="none" xmlns="http://www.w3.org/2000/svg">
<path d="M92.8894 7.93517H11.9799C8.81131 7.93517 6.24268 10.5018 6.24268 13.6679V118.262C6.24268 121.428 8.81131 123.995 11.9799 123.995H92.8894C96.058 123.995 98.6266 121.428 98.6266 118.262V13.6679C98.6266 10.5018 96.058 7.93517 92.8894 7.93517Z" fill="#FFA451"/>
<path d="M90.0494 12.6005H14.8093C13.1517 12.6005 11.8079 13.9432 11.8079 15.5996V115.919C11.8079 117.575 13.1517 118.918 14.8093 118.918H90.0494C91.7071 118.918 93.0509 117.575 93.0509 115.919V15.5996C93.0509 13.9432 91.7071 12.6005 90.0494 12.6005Z" stroke="#FF7A00" stroke-width="1.26" stroke-miterlimit="10"/>
<path d="M103.223 110.067V87.4639H90.3361V110.067H103.223Z" fill="#FFBC00"/>
<path d="M62.9944 36H29.9678V83.9651H62.9944V36Z" fill="white"/>
<path d="M53.9535 95.217L29.9678 83.9703V36L53.9535 47.2519V95.217Z" fill="#1A1B1D"/>
<path d="M67.2207 48.5796C67.377 48.8556 82.1499 62.1173 82.1499 62.1173L67.2207 75.655" stroke="#1A1B1D" stroke-width="6.49" stroke-linecap="round" stroke-linejoin="round"/>
<path d="M58.9663 62.1277H82.1287" stroke="#1A1B1D" stroke-width="6.49" stroke-linecap="round" stroke-linejoin="round"/>
<path d="M49.1074 68.2301C49.1074 68.745 48.9546 69.2484 48.6683 69.6765C48.382 70.1046 47.9751 70.4383 47.499 70.6353C47.0229 70.8324 46.499 70.8839 45.9936 70.7835C45.4882 70.683 45.024 70.4351 44.6596 70.071C44.2952 69.7069 44.0471 69.243 43.9465 68.738C43.846 68.233 43.8976 67.7095 44.0948 67.2338C44.292 66.7581 44.626 66.3515 45.0544 66.0655C45.4829 65.7794 45.9866 65.6267 46.5019 65.6267C47.1929 65.6267 47.8556 65.901 48.3443 66.3892C48.8329 66.8775 49.1074 67.5396 49.1074 68.2301Z" fill="white"/>
<path d="M4.78279 20.3361L1.49976 23.6166L13.7107 35.8179L16.9937 32.5375L4.78279 20.3361Z" fill="#1A1B1D"/>
<path d="M13.7064 20.3323L1.49756 32.5358L4.78116 35.8156L16.99 23.6121L13.7064 20.3323Z" fill="#1A1B1D"/>
<path d="M2.95979 74.978C2.95979 75.2704 2.87299 75.5563 2.71038 75.7995C2.54777 76.0427 2.31664 76.2322 2.04623 76.3441C1.77581 76.4561 1.47825 76.4853 1.19118 76.4283C0.90411 76.3712 0.640418 76.2304 0.433452 76.0236C0.226485 75.8168 0.0855384 75.5533 0.0284364 75.2664C-0.0286656 74.9796 0.00064122 74.6823 0.112651 74.4121C0.224661 74.1419 0.414342 73.9109 0.65771 73.7484C0.901077 73.586 1.1872 73.4992 1.47989 73.4992C1.87239 73.4992 2.2488 73.655 2.52634 73.9323C2.80387 74.2097 2.95979 74.5858 2.95979 74.978Z" fill="#1A1B1D"/>
<path d="M10.3541 74.978C10.3541 75.2698 10.2676 75.555 10.1057 75.7979C9.94378 76.0407 9.71357 76.2302 9.44406 76.3426C9.17456 76.4549 8.87781 76.4851 8.59117 76.4293C8.30453 76.3735 8.04083 76.2342 7.83325 76.029C7.62568 75.8237 7.48351 75.5617 7.42466 75.2759C7.3658 74.9901 7.39289 74.6933 7.5025 74.4228C7.61212 74.1524 7.79936 73.9203 8.04067 73.756C8.28197 73.5916 8.56654 73.5023 8.85855 73.4992C9.0542 73.4972 9.24832 73.5339 9.42968 73.6073C9.61104 73.6807 9.77603 73.7893 9.91511 73.9268C10.0542 74.0643 10.1646 74.228 10.2399 74.4084C10.3153 74.5889 10.3541 74.7824 10.3541 74.978Z" fill="#1A1B1D"/>
<path d="M17.7535 74.978C17.7535 75.2704 17.6667 75.5563 17.5041 75.7995C17.3415 76.0427 17.1103 76.2322 16.8399 76.3441C16.5695 76.4561 16.272 76.4853 15.9849 76.4283C15.6978 76.3712 15.4341 76.2304 15.2272 76.0236C15.0202 75.8168 14.8792 75.5533 14.8221 75.2664C14.765 74.9796 14.7943 74.6823 14.9064 74.4121C15.0184 74.1419 15.208 73.9109 15.4514 73.7484C15.6948 73.586 15.9809 73.4992 16.2736 73.4992C16.6661 73.4992 17.0425 73.655 17.32 73.9323C17.5976 74.2097 17.7535 74.5858 17.7535 74.978Z" fill="#1A1B1D"/>
<path d="M2.95979 81.5385C2.95979 81.831 2.87299 82.1169 2.71038 82.3601C2.54777 82.6032 2.31664 82.7928 2.04623 82.9047C1.77581 83.0166 1.47825 83.0459 1.19118 82.9888C0.90411 82.9318 0.640418 82.791 0.433452 82.5841C0.226485 82.3773 0.0855384 82.1139 0.0284364 81.827C-0.0286656 81.5402 0.00064122 81.2428 0.112651 80.9726C0.224661 80.7024 0.414342 80.4715 0.65771 80.309C0.901077 80.1465 1.1872 80.0598 1.47989 80.0598C1.87239 80.0598 2.2488 80.2156 2.52634 80.4929C2.80387 80.7702 2.95979 81.1463 2.95979 81.5385Z" fill="#1A1B1D"/>
<path d="M10.3541 81.5385C10.3541 81.8303 10.2676 82.1156 10.1057 82.3584C9.94378 82.6012 9.71357 82.7908 9.44406 82.9031C9.17456 83.0155 8.87781 83.0457 8.59117 82.9899C8.30453 82.9341 8.04083 82.7948 7.83325 82.5895C7.62568 82.3843 7.48351 82.1223 7.42466 81.8365C7.3658 81.5507 7.39289 81.2538 7.5025 80.9834C7.61212 80.7129 7.79936 80.4809 8.04067 80.3166C8.28197 80.1522 8.56654 80.0629 8.85855 80.0598C9.0542 80.0577 9.24832 80.0945 9.42968 80.1678C9.61104 80.2412 9.77603 80.3498 9.91511 80.4873C10.0542 80.6249 10.1646 80.7886 10.2399 80.969C10.3153 81.1495 10.3541 81.343 10.3541 81.5385Z" fill="#1A1B1D"/>
<path d="M17.7535 81.5385C17.7535 81.831 17.6667 82.1169 17.5041 82.3601C17.3415 82.6032 17.1103 82.7928 16.8399 82.9047C16.5695 83.0166 16.272 83.0459 15.9849 82.9888C15.6978 82.9318 15.4341 82.791 15.2272 82.5841C15.0202 82.3773 14.8792 82.1139 14.8221 81.827C14.765 81.5402 14.7943 81.2428 14.9064 80.9726C15.0184 80.7024 15.208 80.4715 15.4514 80.309C15.6948 80.1465 15.9809 80.0598 16.2736 80.0598C16.6661 80.0598 17.0425 80.2156 17.32 80.4929C17.5976 80.7702 17.7535 81.1463 17.7535 81.5385Z" fill="#1A1B1D"/>
<path d="M2.95979 88.0991C2.95979 88.3916 2.87299 88.6775 2.71038 88.9206C2.54777 89.1638 2.31664 89.3534 2.04623 89.4653C1.77581 89.5772 1.47825 89.6065 1.19118 89.5494C0.90411 89.4924 0.640418 89.3515 0.433452 89.1447C0.226485 88.9379 0.0855384 88.6744 0.0284364 88.3876C-0.0286656 88.1007 0.00064122 87.8034 0.112651 87.5332C0.224661 87.263 0.414342 87.0321 0.65771 86.8696C0.901077 86.7071 1.1872 86.6204 1.47989 86.6204C1.87239 86.6204 2.2488 86.7762 2.52634 87.0535C2.80387 87.3308 2.95979 87.7069 2.95979 88.0991Z" fill="#1A1B1D"/>
<path d="M10.3541 88.0991C10.3541 88.3909 10.2676 88.6762 10.1057 88.919C9.94378 89.1618 9.71357 89.3513 9.44406 89.4637C9.17456 89.5761 8.87781 89.6063 8.59117 89.5505C8.30453 89.4947 8.04083 89.3554 7.83325 89.1501C7.62568 88.9449 7.48351 88.6829 7.42466 88.397C7.3658 88.1112 7.39289 87.8144 7.5025 87.544C7.61212 87.2735 7.79936 87.0415 8.04067 86.8771C8.28197 86.7128 8.56654 86.6234 8.85855 86.6204C9.0542 86.6183 9.24832 86.655 9.42968 86.7284C9.61104 86.8018 9.77603 86.9104 9.91511 87.0479C10.0542 87.1854 10.1646 87.3491 10.2399 87.5296C10.3153 87.71 10.3541 87.9036 10.3541 88.0991Z" fill="#1A1B1D"/>
<path d="M17.7535 88.0991C17.7535 88.3916 17.6667 88.6775 17.5041 88.9206C17.3415 89.1638 17.1103 89.3534 16.8399 89.4653C16.5695 89.5772 16.272 89.6065 15.9849 89.5494C15.6978 89.4924 15.4341 89.3515 15.2272 89.1447C15.0202 88.9379 14.8792 88.6744 14.8221 88.3876C14.765 88.1007 14.7943 87.8034 14.9064 87.5332C15.0184 87.263 15.208 87.0321 15.4514 86.8696C15.6948 86.7071 15.9809 86.6204 16.2736 86.6204C16.6661 86.6204 17.0425 86.7762 17.32 87.0535C17.5976 87.3308 17.7535 87.7069 17.7535 88.0991Z" fill="#1A1B1D"/>
<path d="M93.7905 58.0167L90.5081 61.2977L102.717 73.4933L106 70.2122L93.7905 58.0167Z" fill="#1A1B1D"/>
<path d="M102.72 58.0259L90.5107 70.2215L93.7932 73.5025L106.003 61.3069L102.72 58.0259Z" fill="#1A1B1D"/>
<path d="M71.3424 1.47873C71.3424 1.77142 71.2554 2.05752 71.0926 2.30081C70.9297 2.5441 70.6983 2.73363 70.4276 2.84539C70.1569 2.95716 69.859 2.98614 69.5718 2.92866C69.2846 2.87118 69.0209 2.72983 68.8142 2.5225C68.6074 2.31517 68.4669 2.0512 68.4104 1.76401C68.3539 1.47683 68.3839 1.17934 68.4967 0.90923C68.6095 0.63912 68.8 0.408535 69.0441 0.246678C69.2881 0.0848203 69.5748 -0.00102905 69.8677 1.54165e-06C70.2593 0.0013793 70.6343 0.157782 70.9108 0.434949C71.1872 0.712116 71.3424 1.08745 71.3424 1.47873Z" fill="#1A1B1D"/>
<path d="M78.7418 1.47873C78.7418 1.7712 78.655 2.0571 78.4924 2.30027C78.3298 2.54345 78.0986 2.73298 77.8282 2.8449C77.5578 2.95682 77.2602 2.98611 76.9732 2.92905C76.6861 2.87199 76.4224 2.73116 76.2154 2.52435C76.0085 2.31755 75.8675 2.05406 75.8104 1.76722C75.7533 1.48037 75.7826 1.18305 75.8946 0.912846C76.0066 0.642643 76.1963 0.411696 76.4397 0.249211C76.6831 0.0867261 76.9692 0 77.2619 0C77.6544 0 78.0308 0.155795 78.3083 0.433111C78.5859 0.710427 78.7418 1.08655 78.7418 1.47873Z" fill="#1A1B1D"/>
<path d="M86.1412 1.47873C86.1412 1.7712 86.0544 2.0571 85.8918 2.30027C85.7292 2.54345 85.498 2.73298 85.2276 2.8449C84.9572 2.95682 84.6596 2.98611 84.3726 2.92905C84.0855 2.87199 83.8218 2.73116 83.6149 2.52435C83.4079 2.31755 83.2669 2.05406 83.2098 1.76722C83.1527 1.48037 83.182 1.18305 83.294 0.912846C83.4061 0.642643 83.5957 0.411696 83.8391 0.249211C84.0825 0.0867261 84.3686 0 84.6613 0C85.0538 0 85.4302 0.155795 85.7077 0.433111C85.9853 0.710427 86.1412 1.08655 86.1412 1.47873Z" fill="#1A1B1D"/>
<path d="M71.3424 8.0393C71.3424 8.33199 71.2554 8.61809 71.0926 8.86138C70.9297 9.10467 70.6983 9.2942 70.4276 9.40596C70.1569 9.51773 69.859 9.54671 69.5718 9.48923C69.2846 9.43175 69.0209 9.29039 68.8142 9.08307C68.6074 8.87574 68.4669 8.61177 68.4104 8.32458C68.3539 8.0374 68.3839 7.73991 68.4967 7.4698C68.6095 7.19969 68.8 6.9691 69.0441 6.80725C69.2881 6.64539 69.5748 6.55954 69.8677 6.56057C70.2593 6.56195 70.6343 6.71835 70.9108 6.99552C71.1872 7.27268 71.3424 7.64802 71.3424 8.0393Z" fill="#1A1B1D"/>
<path d="M78.7418 8.0393C78.7418 8.33177 78.655 8.61767 78.4924 8.86084C78.3298 9.10402 78.0986 9.29355 77.8282 9.40547C77.5578 9.51739 77.2602 9.54668 76.9732 9.48962C76.6861 9.43256 76.4224 9.29173 76.2154 9.08492C76.0085 8.87812 75.8675 8.61463 75.8104 8.32779C75.7533 8.04094 75.7826 7.74362 75.8946 7.47342C76.0066 7.20321 76.1963 6.97227 76.4397 6.80978C76.6831 6.6473 76.9692 6.56057 77.2619 6.56057C77.6544 6.56057 78.0308 6.71636 78.3083 6.99368C78.5859 7.271 78.7418 7.64712 78.7418 8.0393Z" fill="#1A1B1D"/>
<path d="M86.1412 8.0393C86.1412 8.33177 86.0544 8.61767 85.8918 8.86084C85.7292 9.10402 85.498 9.29355 85.2276 9.40547C84.9572 9.51739 84.6596 9.54668 84.3726 9.48962C84.0855 9.43256 83.8218 9.29173 83.6149 9.08492C83.4079 8.87812 83.2669 8.61463 83.2098 8.32779C83.1527 8.04094 83.182 7.74362 83.294 7.47342C83.4061 7.20321 83.5957 6.97227 83.8391 6.80978C84.0825 6.6473 84.3686 6.56057 84.6613 6.56057C85.0538 6.56057 85.4302 6.71636 85.7077 6.99368C85.9853 7.271 86.1412 7.64712 86.1412 8.0393Z" fill="#1A1B1D"/>
<path d="M71.3424 14.579C71.3424 14.8717 71.2554 15.1578 71.0926 15.4011C70.9297 15.6444 70.6983 15.8339 70.4276 15.9457C70.1569 16.0575 69.859 16.0865 69.5718 16.029C69.2846 15.9715 69.0209 15.8301 68.8142 15.6228C68.6074 15.4155 68.4669 15.1515 68.4104 14.8643C68.3539 14.5771 68.3839 14.2797 68.4967 14.0095C68.6095 13.7394 68.8 13.5088 69.0441 13.347C69.2881 13.1851 69.5748 13.0993 69.8677 13.1003C70.2593 13.1017 70.6343 13.2581 70.9108 13.5353C71.1872 13.8124 71.3424 14.1878 71.3424 14.579Z" fill="#1A1B1D"/>
<path d="M78.7418 14.579C78.7418 14.8715 78.655 15.1574 78.4924 15.4006C78.3298 15.6438 78.0986 15.8333 77.8282 15.9452C77.5578 16.0571 77.2602 16.0864 76.9732 16.0294C76.6861 15.9723 76.4224 15.8315 76.2154 15.6247C76.0085 15.4179 75.8675 15.1544 75.8104 14.8675C75.7533 14.5807 75.7826 14.2834 75.8946 14.0132C76.0066 13.743 76.1963 13.512 76.4397 13.3495C76.6831 13.187 76.9692 13.1003 77.2619 13.1003C77.6544 13.1003 78.0308 13.2561 78.3083 13.5334C78.5859 13.8107 78.7418 14.1869 78.7418 14.579Z" fill="#1A1B1D"/>
<path d="M86.1412 14.579C86.1412 14.8715 86.0544 15.1574 85.8918 15.4006C85.7292 15.6438 85.498 15.8333 85.2276 15.9452C84.9572 16.0571 84.6596 16.0864 84.3726 16.0294C84.0855 15.9723 83.8218 15.8315 83.6149 15.6247C83.4079 15.4179 83.2669 15.1544 83.2098 14.8675C83.1527 14.5807 83.182 14.2834 83.294 14.0132C83.4061 13.743 83.5957 13.512 83.8391 13.3495C84.0825 13.187 84.3686 13.1003 84.6613 13.1003C85.0538 13.1003 85.4302 13.2561 85.7077 13.5334C85.9853 13.8107 86.1412 14.1869 86.1412 14.579Z" fill="#1A1B1D"/>
</svg>
