<svg width="110" height="90" viewBox="0 0 110 90" fill="none" xmlns="http://www.w3.org/2000/svg">
<g id="Frame" clip-path="url(#clip0_30_121)">
<g id="Group">
<path id="Vector" fill-rule="evenodd" clip-rule="evenodd" d="M54.5448 90C47.263 90 40.0299 88.2199 33.6269 84.8524C27.4302 81.5933 21.9984 76.8543 17.9179 71.147C17.3233 70.3157 17.5155 69.1599 18.3469 68.5653C19.1785 67.9707 20.3344 68.163 20.9286 68.9947C28.6761 79.8301 41.2428 86.2991 54.5448 86.2991C77.317 86.2991 95.8439 67.7722 95.8439 45C95.8439 43.9777 96.6726 43.1494 97.6945 43.1494C98.7168 43.1494 99.5452 43.9781 99.5452 45C99.5452 57.0199 94.8642 68.3203 86.3651 76.82C77.8654 85.3193 66.5651 90 54.5448 90ZM11.3954 46.8506C12.4177 46.8506 13.2461 46.0219 13.2461 45C13.2461 22.2278 31.7729 3.70095 54.5451 3.70095C67.8459 3.70095 80.4129 10.1696 88.1614 21.0057C88.7559 21.837 89.9114 22.0293 90.7431 21.4344C91.5744 20.8398 91.7663 19.684 91.1718 18.8526C87.0909 13.1457 81.6587 8.40669 75.4624 5.14762C69.0597 1.78007 61.8264 0 54.5448 0C42.5249 0 31.2242 4.68068 22.7248 13.18C14.2255 21.6794 9.54446 32.9801 9.54446 45C9.54479 46.0219 10.3732 46.8506 11.3954 46.8506Z" fill="#EA0000"/>
<path id="Vector_2" fill-rule="evenodd" clip-rule="evenodd" d="M11.2932 59.2976C11.2899 59.2976 11.2869 59.2976 11.2836 59.2976C10.7062 59.2946 10.1634 59.0222 9.81586 58.5616L0.427455 46.1146C0.00469677 45.5543 -0.0645538 44.8028 0.248723 44.1746C0.561669 43.5461 1.20339 43.1494 1.90513 43.1494H20.8857C21.5911 43.1494 22.2351 43.5503 22.5464 44.1832C22.8577 44.816 22.7822 45.5708 22.3515 46.1294L12.7593 58.5761C12.4088 59.0311 11.8673 59.2976 11.2932 59.2976Z" fill="#EA0000"/>
<path id="Vector_3" fill-rule="evenodd" clip-rule="evenodd" d="M107.185 46.8506H88.2042C87.5022 46.8506 86.8608 46.4536 86.5478 45.8254C86.2349 45.1972 86.3038 44.446 86.7266 43.8854L96.1146 31.4388C96.4625 30.9778 97.005 30.7054 97.5827 30.7024C98.1598 30.7011 98.7056 30.9659 99.0581 31.4233L108.651 43.8699C109.081 44.4285 109.156 45.1837 108.846 45.8165C108.534 46.4496 107.89 46.8506 107.185 46.8506Z" fill="#EA0000"/>
<path id="Vector_4" d="M36.2136 57.8193V56.9193H35.3136H29.2327C28.7076 56.9193 28.2821 56.4936 28.2821 55.9686V22.5566C28.2821 22.0316 28.7076 21.6059 29.2327 21.6059H79.8575C80.3828 21.6059 80.8082 22.0314 80.8082 22.5566V55.969C80.8082 56.4941 80.3825 56.9196 79.8575 56.9196L59.6595 56.9193L59.4392 56.9193L59.2439 57.021L37.6044 68.2865C37.6041 68.2867 37.6038 68.2868 37.6035 68.287C37.4645 68.359 37.3137 68.3944 37.1642 68.3944C36.9934 68.3944 36.8225 68.3482 36.6704 68.2561C36.3869 68.0839 36.2136 67.7758 36.2136 67.4438V57.8193Z" fill="white" stroke="black" stroke-width="1.8"/>
<path id="Vector_5" fill-rule="evenodd" clip-rule="evenodd" d="M43.6863 33.2373H38.1878C37.1655 33.2373 36.3372 32.4089 36.3372 31.3866C36.3372 30.3644 37.1655 29.536 38.1878 29.536H43.6863C44.7086 29.536 45.537 30.3644 45.537 31.3866C45.537 32.4089 44.7086 33.2373 43.6863 33.2373Z" fill="black"/>
<path id="Vector_6" fill-rule="evenodd" clip-rule="evenodd" d="M70.9021 41.1131H38.1878C37.1655 41.1131 36.3372 40.2844 36.3372 39.2624C36.3372 38.2405 37.1655 37.4118 38.1878 37.4118H70.9021C71.9241 37.4118 72.7528 38.2402 72.7528 39.2624C72.7528 40.285 71.9244 41.1131 70.9021 41.1131Z" fill="black"/>
<path id="Vector_7" fill-rule="evenodd" clip-rule="evenodd" d="M70.9021 48.9888H38.1878C37.1655 48.9888 36.3372 48.1604 36.3372 47.1382C36.3372 46.1159 37.1655 45.2875 38.1878 45.2875L70.9021 45.2879C71.9241 45.2879 72.7528 46.1162 72.7528 47.1385C72.7528 48.1604 71.9244 48.9888 70.9021 48.9888Z" fill="black"/>
<path id="Vector_8" fill-rule="evenodd" clip-rule="evenodd" d="M57.2941 33.2373H51.7956C50.7733 33.2373 49.9449 32.4089 49.9449 31.3866C49.9449 30.3644 50.7733 29.536 51.7956 29.536H57.2941C58.3163 29.536 59.1447 30.3644 59.1447 31.3866C59.145 32.4089 58.3163 33.2373 57.2941 33.2373Z" fill="black"/>
<path id="Vector_9" fill-rule="evenodd" clip-rule="evenodd" d="M70.9021 33.2373H65.4033C64.3814 33.2373 63.5527 32.4089 63.5527 31.3866C63.5527 30.3644 64.3814 29.536 65.4033 29.536H70.9021C71.9241 29.536 72.7528 30.3644 72.7528 31.3866C72.7528 32.4089 71.9244 33.2373 70.9021 33.2373Z" fill="black"/>
</g>
</g>
<defs>
<clipPath id="clip0_30_121">
<rect width="108.981" height="90" fill="white" transform="translate(0.0544434)"/>
</clipPath>
</defs>
</svg>
