<svg width="296" height="184" viewBox="0 0 296 184" fill="none" xmlns="http://www.w3.org/2000/svg">
<path fill-rule="evenodd" clip-rule="evenodd" d="M155.173 184C225.272 184 282.445 182.092 282.445 179.754C282.445 177.416 225.272 175.509 155.173 175.509C85.0735 175.509 27.9009 177.416 27.9009 179.754C27.9009 182.092 85.0735 184 155.173 184Z" fill="#FEE4CC"/>
<path fill-rule="evenodd" clip-rule="evenodd" d="M265.495 9.44555C264.558 9.44555 263.642 9.16861 262.862 8.64972C262.083 8.13084 261.476 7.39333 261.117 6.53044C260.758 5.66755 260.664 4.71804 260.847 3.80195C261.03 2.88586 261.481 2.04434 262.144 1.38379C262.806 0.723237 263.65 0.273321 264.57 0.090927C265.489 -0.0914672 266.442 0.00185135 267.308 0.359083C268.174 0.716315 268.914 1.32142 269.435 2.09788C269.956 2.87435 270.234 3.7873 270.234 4.72132C270.234 5.34165 270.112 5.95593 269.874 6.5291C269.636 7.10226 269.287 7.62306 268.847 8.06177C268.406 8.50047 267.884 8.84848 267.309 9.08592C266.734 9.32335 266.118 9.44555 265.495 9.44555ZM64.278 122.673H38.9545C25.335 122.673 14.1787 133.785 14.1787 147.365C14.1787 160.938 25.3277 172.054 38.9545 172.054H253.047C275.114 172.054 293.166 154.064 293.166 132.074C293.166 110.085 275.114 92.0854 253.047 92.0854C243.718 92.0854 236.084 84.4773 236.084 75.1791C236.084 65.8824 243.718 58.2743 253.047 58.2743H273.463C283.162 58.2743 291.098 50.3656 291.098 40.6982C291.098 31.0323 283.162 23.122 273.463 23.122H247.64C245.821 23.1174 244.077 22.3951 242.791 21.113C241.504 19.8309 240.78 18.0933 240.775 16.2802C240.781 14.4683 241.507 12.7325 242.793 11.452C244.08 10.1715 245.822 9.45017 247.64 9.44555H252.192C253.448 9.4417 254.651 8.94269 255.539 8.05752C256.427 7.17234 256.927 5.97295 256.931 4.72132C256.927 3.47121 256.427 2.27344 255.54 1.38906C254.654 0.504677 253.452 0.00538674 252.198 2.11204e-06H222.336C216.047 2.11204e-06 215.347 7.40379 199.461 7.40379H162.625C160.986 7.4088 159.415 8.0606 158.256 9.21665C157.098 10.3727 156.445 11.9389 156.442 13.5729C156.447 15.2058 157.1 16.7705 158.258 17.9253C159.417 19.0801 160.987 19.7311 162.625 19.7361H168.559C170.933 19.7431 173.208 20.6858 174.887 22.3585C176.565 24.0312 177.512 26.2979 177.519 28.6636C177.51 31.0284 176.563 33.2938 174.885 34.9654C173.206 36.6371 170.932 37.5793 168.559 37.5866H150.693C126.562 37.5866 123.154 43.8623 118.927 56.3712C114.701 68.8801 92.75 69.8799 92.75 69.8799H62.7286C55.3023 69.8799 49.2277 75.9337 49.2277 83.3345C49.2277 90.7354 55.3023 96.7906 62.7286 96.7906H64.2736C67.7144 96.8007 71.0115 98.1673 73.4445 100.592C75.8776 103.017 77.2489 106.303 77.2589 109.732C77.2489 113.161 75.8776 116.446 73.4445 118.871C71.0115 121.296 67.7144 122.662 64.2736 122.673H64.278Z" fill="#E9EEF7"/>
<path fill-rule="evenodd" clip-rule="evenodd" d="M50.3524 170.192L70.0348 33.6578C70.4844 30.5433 79.9448 32.5822 83.0685 32.4217L267.928 22.9469C271.056 22.7864 277.353 31.4117 276.903 34.5247L257.222 171.059C256.771 174.174 253.841 176.768 250.706 176.827L61.7577 180.286C58.6237 180.341 49.9029 173.308 50.3524 170.192Z" fill="#FEE2C8"/>
<path fill-rule="evenodd" clip-rule="evenodd" d="M50.061 170.141L69.7434 33.6067C70.1095 31.0673 75.3567 31.5416 79.4323 31.9109C80.907 32.0451 82.225 32.1633 83.051 32.121L267.91 22.6448C268.081 22.6378 268.252 22.6496 268.42 22.6798C270.022 22.9717 272.166 24.9303 273.929 27.2435C275.692 29.5568 277.085 32.2188 277.215 33.9351C277.232 34.1486 277.227 34.3634 277.199 34.5758L257.517 171.109C257.282 172.739 256.401 174.229 255.174 175.319C253.946 176.409 252.362 177.098 250.725 177.127L61.7709 180.586C61.5715 180.589 61.3724 180.571 61.1763 180.535C59.4424 180.224 56.6994 178.534 54.3812 176.533C52.0381 174.514 50.1137 172.155 50.042 170.522C50.0366 170.395 50.0424 170.267 50.0596 170.141H50.061ZM70.3263 33.7133L50.6439 170.245C50.6318 170.334 50.6279 170.424 50.6322 170.513C50.6951 171.957 52.5257 174.162 54.7517 176.075C56.9982 178.015 59.6298 179.648 61.2612 179.94C61.4211 179.97 61.5834 179.984 61.746 179.984L250.698 176.526C252.196 176.498 253.648 175.862 254.78 174.859C255.912 173.857 256.72 172.494 256.934 171.007L276.618 34.4722C276.639 34.3037 276.643 34.1336 276.629 33.9643C276.509 32.3691 275.165 29.8268 273.471 27.6084C271.776 25.39 269.783 23.5351 268.335 23.2753C268.209 23.2522 268.082 23.2429 267.954 23.2476L83.0949 32.7238C82.2162 32.769 80.885 32.6479 79.3942 32.5121C75.5559 32.1648 70.6148 31.7182 70.3263 33.7133Z" fill="#FFA451"/>
<path fill-rule="evenodd" clip-rule="evenodd" d="M50.6249 168.298L70.3073 31.762C70.7569 28.6475 73.6873 26.0526 76.8227 25.9942L265.775 22.5368C268.909 22.4799 271.107 24.9814 270.657 28.0959L250.974 164.626C250.525 167.742 247.595 170.338 244.46 170.395L55.503 173.857C52.3735 173.914 50.1768 171.412 50.6249 168.298Z" fill="white"/>
<path fill-rule="evenodd" clip-rule="evenodd" d="M50.3333 168.245L70.0157 31.7109C70.25 30.0822 71.1316 28.5906 72.3588 27.5019C73.5861 26.4131 75.1691 25.7228 76.8064 25.6921L265.76 22.2347C266.134 22.2265 266.509 22.2554 266.877 22.3208C268.004 22.5123 269.031 23.0843 269.784 23.9408C270.533 24.8121 270.963 25.9115 271.001 27.0582C271.017 27.4225 270.998 27.7875 270.946 28.1484L251.263 164.683C251.029 166.311 250.147 167.802 248.92 168.893C247.693 169.985 246.108 170.671 244.473 170.7L55.519 174.159C55.1441 174.167 54.7693 174.138 54.4001 174.073C53.2738 173.881 52.2479 173.309 51.4946 172.453C50.7454 171.581 50.3162 170.481 50.2777 169.334C50.2623 168.97 50.2809 168.606 50.3333 168.245ZM70.5986 31.816L50.9176 168.35C50.8697 168.673 50.8526 168.999 50.8664 169.325C50.8982 170.33 51.2727 171.294 51.9281 172.057C52.5925 172.809 53.4958 173.309 54.4865 173.476C54.8194 173.536 55.1574 173.562 55.4956 173.555L244.448 170.097C245.944 170.07 247.396 169.433 248.529 168.431C249.663 167.428 250.47 166.063 250.683 164.578L270.364 28.0448C270.412 27.7216 270.429 27.3947 270.416 27.0684C270.383 26.0645 270.008 25.1016 269.354 24.3378C268.691 23.584 267.787 23.081 266.795 22.9133C266.463 22.8535 266.125 22.8271 265.786 22.8345L76.8342 26.2978C75.3376 26.3241 73.8848 26.9604 72.7542 27.963C71.6237 28.9657 70.8124 30.3288 70.5986 31.816Z" fill="#FFA451"/>
<path fill-rule="evenodd" clip-rule="evenodd" d="M58.7175 165.948L243.519 162.567L262.565 30.4441L77.7629 33.8271L58.7175 165.948Z" fill="#F8F3EF"/>
<path fill-rule="evenodd" clip-rule="evenodd" d="M59.0601 165.647L97.1786 164.948C97.246 165.153 97.3251 165.351 97.3968 165.55L58.3733 166.263L61.8133 142.398C61.989 142.551 62.1662 142.702 62.3449 142.852L59.0601 165.647ZM139.789 164.169L243.262 162.272L248.295 127.369C248.491 127.388 248.689 127.403 248.881 127.411L243.768 162.876L139.77 164.773C139.78 164.57 139.784 164.369 139.783 164.168L139.789 164.169ZM252.491 98.2632L262.222 30.7593L181.54 32.2363C181.458 32.0334 181.372 31.8335 181.281 31.635L262.909 30.142L253.05 98.5303C252.866 98.4354 252.68 98.3479 252.491 98.2632ZM136.927 33.0463L122.136 33.3163C121.99 33.1134 121.843 32.915 121.676 32.7208L137.151 32.4377C137.07 32.6381 136.995 32.841 136.927 33.0463ZM101.509 33.6943L78.0132 34.1248L73.0882 68.3285L72.4746 68.4379L77.5065 33.5294L101.941 33.0813C101.794 33.2818 101.652 33.4861 101.515 33.6943H101.509Z" fill="#FFA451"/>
<path fill-rule="evenodd" clip-rule="evenodd" d="M146.484 99.0834H208.823C204.964 109.737 194.618 148.716 184.806 148.716H129.091C119.267 148.716 120.168 109.739 119.381 99.0834H146.484Z" fill="#FCD7B6"/>
<path fill-rule="evenodd" clip-rule="evenodd" d="M118.377 92.4809H211.732C213.05 92.4809 213.986 93.5609 213.794 94.8817L213.536 96.6812C213.344 97.9947 212.105 99.0834 210.78 99.0834H117.423C116.105 99.0834 115.171 98.002 115.361 96.6812L115.621 94.8817C115.811 93.5609 117.05 92.4809 118.377 92.4809Z" fill="#FEE2C8"/>
<path fill-rule="evenodd" clip-rule="evenodd" d="M118.406 92.2678H171.928C171.864 92.4011 171.828 92.5453 171.819 92.6925H118.346C117.138 92.6925 116.003 93.6776 115.834 94.8817L115.574 96.6812C115.529 96.9542 115.543 97.2337 115.616 97.5007C115.689 97.7676 115.819 98.0158 115.997 98.2282C116.178 98.4345 116.403 98.5988 116.654 98.7097C116.906 98.8206 117.179 98.8755 117.454 98.8704H146.576C146.467 98.9949 146.384 99.1397 146.332 99.2965H119.614C119.743 101.178 119.828 103.851 119.925 106.995C120.399 122.217 121.216 148.503 129.121 148.503H184.834C192.742 148.503 201.136 122.217 205.998 106.995C207.003 103.851 207.857 101.178 208.529 99.2965H161.883C161.977 99.1685 162.046 99.0239 162.086 98.8704H210.811C211.418 98.8603 212.001 98.6323 212.454 98.2282C212.918 97.8318 213.226 97.2833 213.322 96.6812L213.581 94.8817C213.754 93.6776 212.908 92.6925 211.701 92.6925H182.254C182.286 92.5532 182.291 92.4088 182.267 92.2678H211.761C213.203 92.2678 214.215 93.4441 214.006 94.8817L213.747 96.6812C213.54 98.1187 212.19 99.2965 210.748 99.2965H208.964C208.292 101.172 207.426 103.878 206.407 107.068C201.505 122.417 193.036 148.929 184.772 148.929H129.06C120.796 148.929 119.971 122.417 119.494 107.068C119.394 103.878 119.311 101.172 119.179 99.2965H117.393C115.95 99.2965 114.94 98.1187 115.147 96.6812L115.407 94.8817C115.615 93.4441 116.963 92.2678 118.406 92.2678Z" fill="#FFA451"/>
<path fill-rule="evenodd" clip-rule="evenodd" d="M202.926 89.5926C205.708 89.5926 207.646 91.8431 207.245 94.619C206.843 97.3948 204.263 99.6453 201.478 99.6453C198.692 99.6453 196.758 97.3963 197.156 94.619C197.554 91.8416 200.141 89.5926 202.926 89.5926ZM202.509 92.4809C201.914 92.4981 201.344 92.7209 200.897 93.111C200.449 93.5011 200.152 94.0342 200.056 94.619C199.884 95.7997 200.707 96.7585 201.894 96.7585C203.08 96.7585 204.177 95.7997 204.346 94.619C204.516 93.4383 203.695 92.4809 202.509 92.4809Z" fill="#FFA451"/>
<path fill-rule="evenodd" clip-rule="evenodd" d="M202.957 89.3796C204.408 89.3796 205.638 89.9633 206.454 90.9134C207.27 91.8635 207.666 93.1727 207.458 94.619C207.23 96.0602 206.495 97.3736 205.385 98.3245C204.3 99.2918 202.902 99.8364 201.447 99.8584C199.994 99.8584 198.764 99.2746 197.95 98.3245C197.135 97.3744 196.734 96.0653 196.942 94.619C197.172 93.1771 197.908 91.8636 199.02 90.9134C200.106 89.9468 201.504 89.4023 202.96 89.3796H202.957ZM206.108 91.2156C205.708 90.7612 205.213 90.3996 204.658 90.1561C204.103 89.9125 203.502 89.793 202.895 89.8057C201.558 89.8262 200.273 90.3268 199.277 91.2156C198.256 92.0886 197.581 93.2959 197.373 94.6204C197.181 95.95 197.547 97.154 198.297 98.0253C198.697 98.4796 199.191 98.8412 199.746 99.0848C200.301 99.3283 200.902 99.4479 201.508 99.4352C202.845 99.4138 204.13 98.9133 205.127 98.0253C206.148 97.1523 206.823 95.945 207.031 94.6204C207.224 93.2909 206.857 92.0868 206.108 91.2156ZM202.535 92.2678C201.882 92.2771 201.255 92.5218 200.769 92.9567C200.271 93.3834 199.941 93.9726 199.839 94.619C199.79 94.9122 199.806 95.2124 199.884 95.4992C199.962 95.786 200.101 96.0528 200.291 96.2813C200.486 96.5034 200.727 96.6802 200.998 96.7992C201.269 96.9182 201.563 96.9766 201.858 96.9702C202.512 96.9608 203.14 96.7162 203.626 96.2813C204.124 95.8544 204.453 95.2654 204.556 94.619C204.605 94.3259 204.59 94.0257 204.512 93.7388C204.434 93.452 204.295 93.1852 204.105 92.9567C203.91 92.7346 203.668 92.5578 203.397 92.4387C203.126 92.3197 202.833 92.2614 202.536 92.2678H202.535ZM203.758 93.2573C203.598 93.0753 203.4 92.9305 203.179 92.8329C202.957 92.7353 202.716 92.6874 202.473 92.6925C201.938 92.7006 201.424 92.9012 201.025 93.2573C200.617 93.6069 200.347 94.0894 200.262 94.619C200.222 94.8593 200.234 95.1053 200.298 95.3405C200.362 95.5757 200.475 95.7945 200.631 95.9821C200.791 96.1635 200.99 96.3079 201.212 96.4052C201.434 96.5025 201.674 96.5504 201.917 96.5455C202.452 96.5373 202.966 96.3373 203.365 95.9821C203.773 95.632 204.044 95.149 204.128 94.619C204.169 94.3795 204.157 94.1341 204.094 93.8995C204.031 93.6648 203.918 93.4463 203.764 93.2588L203.758 93.2573Z" fill="#FFA451"/>
<path fill-rule="evenodd" clip-rule="evenodd" d="M173.596 54.544L204.048 93.6499C204.487 94.206 204.319 95.0773 203.688 95.5881L202.826 96.2842C202.197 96.795 201.327 96.7585 200.895 96.2039L170.444 57.0907C170.005 56.5361 170.172 55.6634 170.803 55.154L171.664 54.4579C172.294 53.9529 173.164 53.9894 173.596 54.544Z" fill="#FEE2C8"/>
<path fill-rule="evenodd" clip-rule="evenodd" d="M125.186 89.5926C122.404 89.5926 119.818 91.8431 119.418 94.619C119.018 97.3948 120.95 99.6453 123.737 99.6453C126.523 99.6453 129.105 97.3963 129.505 94.619C129.905 91.8416 127.972 89.5926 125.186 89.5926ZM124.772 92.4809C125.958 92.4809 126.78 93.4383 126.61 94.619C126.514 95.2051 126.216 95.7397 125.768 96.1307C125.319 96.5217 124.748 96.7447 124.152 96.7614C122.968 96.7614 122.145 95.8026 122.316 94.6219C122.412 94.0362 122.709 93.502 123.158 93.1112C123.606 92.7205 124.177 92.4976 124.772 92.4809Z" fill="#FFA451"/>
<path fill-rule="evenodd" clip-rule="evenodd" d="M125.156 89.8043C123.818 89.8257 122.533 90.3267 121.536 91.2156C120.516 92.0894 119.841 93.2963 119.632 94.6204C119.44 95.95 119.808 97.154 120.556 98.0253C120.956 98.4796 121.451 98.8413 122.006 99.0848C122.561 99.3283 123.163 99.4479 123.769 99.4352C125.106 99.4138 126.391 98.9133 127.388 98.0253C128.408 97.1519 129.083 95.9448 129.291 94.6204C129.485 93.2909 129.116 92.0868 128.367 91.2156C127.968 90.7613 127.473 90.3997 126.918 90.1561C126.364 89.9126 125.762 89.793 125.156 89.8057V89.8043ZM121.278 90.9134C122.361 89.9474 123.758 89.4029 125.212 89.3796C126.663 89.3796 127.893 89.9633 128.707 90.9134C129.521 91.8635 129.921 93.1727 129.713 94.619C129.485 96.0602 128.75 97.3736 127.64 98.3245C126.555 99.292 125.156 99.8366 123.7 99.8584C122.247 99.8584 121.017 99.2746 120.203 98.3245C119.389 97.3744 118.989 96.0653 119.197 94.619C119.425 93.1775 120.161 91.8641 121.272 90.9134H121.278ZM124.738 92.6925C124.981 92.6873 125.222 92.7351 125.444 92.8327C125.666 92.9303 125.864 93.0752 126.024 93.2573C126.18 93.4447 126.294 93.6633 126.357 93.8982C126.421 94.1331 126.433 94.3789 126.393 94.619C126.31 95.1491 126.04 95.6323 125.632 95.9821C125.233 96.3373 124.718 96.5373 124.183 96.5455C123.941 96.5505 123.701 96.5026 123.479 96.4053C123.257 96.308 123.059 96.1636 122.899 95.9821C122.743 95.7945 122.63 95.5757 122.566 95.3405C122.502 95.1053 122.49 94.8593 122.53 94.619C122.615 94.0894 122.885 93.6069 123.293 93.2573C123.691 92.9015 124.205 92.7009 124.74 92.6925H124.738ZM123.032 92.9567C123.519 92.522 124.147 92.2774 124.8 92.2678C125.096 92.2614 125.39 92.3197 125.661 92.4387C125.932 92.5578 126.173 92.7346 126.368 92.9567C126.56 93.1849 126.699 93.4516 126.777 93.7385C126.856 94.0253 126.871 94.3257 126.822 94.619C126.72 95.2654 126.39 95.8544 125.892 96.2813C125.406 96.7157 124.778 96.9603 124.125 96.9702C123.829 96.9766 123.535 96.9182 123.264 96.7992C122.993 96.6802 122.751 96.5034 122.556 96.2813C122.366 96.0528 122.227 95.7861 122.149 95.4992C122.071 95.2123 122.056 94.9121 122.105 94.619C122.207 93.9728 122.535 93.3835 123.032 92.9567Z" fill="#FFA451"/>
<path fill-rule="evenodd" clip-rule="evenodd" d="M164.622 54.544L122.895 93.6499C122.309 94.206 122.212 95.0773 122.695 95.5881L123.354 96.2842C123.838 96.795 124.718 96.7585 125.311 96.2039L167.038 57.0907C167.631 56.5361 167.719 55.6634 167.236 55.154L166.577 54.4579C166.093 53.9529 165.213 53.9894 164.622 54.544Z" fill="#FEE2C8"/>
<path fill-rule="evenodd" clip-rule="evenodd" d="M164.752 54.6885L123.031 93.7944C122.53 94.2629 122.454 94.9999 122.862 95.4319L123.529 96.1339C123.933 96.5542 124.7 96.5294 125.182 96.0522L140.559 81.6343C140.589 81.7714 140.65 81.8998 140.738 82.0093L125.434 96.3528C124.75 96.9848 123.738 97.0242 123.183 96.4389L122.529 95.7398C121.972 95.1561 122.075 94.1447 122.757 93.504L164.485 54.3907C165.168 53.75 166.186 53.7077 166.744 54.2959L167.408 54.9993C167.959 55.5904 167.848 56.593 167.174 57.2308L145.841 77.2326C145.782 77.1126 145.696 77.0077 145.589 76.9261L166.909 56.9462C167.397 56.4836 167.48 55.7261 167.056 55.3102L166.404 54.6199C165.994 54.182 165.25 54.2185 164.749 54.6885H164.752ZM173.769 54.3966L204.221 93.5098C204.72 94.1505 204.531 95.1575 203.805 95.7457L202.952 96.4375H202.945C202.213 97.0212 201.22 96.9833 200.719 96.3514L180.861 70.8504C180.986 70.7596 181.095 70.648 181.182 70.5206L201.065 96.0609C201.412 96.5382 202.169 96.563 202.693 96.1427L203.562 95.4407C204.093 95.0028 204.229 94.2731 203.866 93.8032L173.419 54.6885C173.053 54.2185 172.317 54.1879 171.784 54.6199L170.933 55.3102C170.395 55.7261 170.26 56.4778 170.616 56.9462L174.474 61.9011C174.318 61.9337 174.169 61.9951 174.035 62.082L170.27 57.2469C169.774 56.6091 169.957 55.6065 170.677 55.0154L171.546 54.3119C172.269 53.7179 173.274 53.7603 173.773 54.401L173.769 54.3966Z" fill="#FFA451"/>
<path fill-rule="evenodd" clip-rule="evenodd" d="M155.909 105.199H169.612C169.85 105.192 170.085 105.239 170.302 105.335C170.519 105.431 170.712 105.574 170.866 105.754C171.021 105.933 171.133 106.145 171.195 106.374C171.256 106.602 171.266 106.841 171.223 107.074L166.011 143.239C165.925 143.751 165.664 144.218 165.272 144.56C164.88 144.902 164.381 145.098 163.86 145.114H150.156C149.918 145.121 149.683 145.074 149.466 144.978C149.249 144.882 149.056 144.739 148.902 144.559C148.747 144.38 148.635 144.168 148.574 143.939C148.512 143.711 148.502 143.472 148.545 143.239L153.757 107.074C153.843 106.562 154.104 106.095 154.497 105.753C154.889 105.411 155.388 105.215 155.909 105.199Z" fill="#FEE2C8"/>
<path fill-rule="evenodd" clip-rule="evenodd" d="M181.138 105.199H194.842C195.876 105.199 196.815 106.065 196.453 107.074L190.664 123.205C188.984 127.886 183.419 145.114 182.236 145.114H175.384C175.147 145.12 174.911 145.074 174.694 144.978C174.478 144.881 174.285 144.738 174.131 144.559C173.976 144.379 173.864 144.167 173.802 143.939C173.74 143.711 173.73 143.472 173.773 143.239L178.986 107.074C179.072 106.562 179.334 106.095 179.726 105.753C180.118 105.411 180.617 105.215 181.138 105.199Z" fill="#FEE2C8"/>
<path fill-rule="evenodd" clip-rule="evenodd" d="M144.414 105.199H130.709C129.675 105.199 128.486 106.065 128.558 107.074L129.696 123.205C130.025 127.886 130.63 145.114 131.802 145.114H138.652C139.173 145.098 139.673 144.902 140.065 144.56C140.458 144.218 140.719 143.751 140.805 143.239L146.019 107.074C146.061 106.842 146.051 106.603 145.989 106.375C145.928 106.147 145.816 105.936 145.663 105.757C145.509 105.577 145.317 105.434 145.101 105.337C144.885 105.241 144.65 105.193 144.414 105.199Z" fill="#FEE2C8"/>
<path fill-rule="evenodd" clip-rule="evenodd" d="M144.383 105.412H130.678C129.846 105.412 128.707 106.112 128.775 107.03L129.312 114.628C129.163 114.617 129.014 114.635 128.873 114.681L128.342 107.124C128.259 105.93 129.634 104.991 130.74 104.991H144.443C145.597 104.991 146.404 105.931 146.237 107.08L141.028 143.239C140.862 144.389 139.784 145.328 138.63 145.328H131.777C130.886 145.328 130.34 138.35 129.971 132.032C130.112 132.083 130.261 132.102 130.41 132.089C130.762 138.219 131.241 144.901 131.841 144.901H138.685C139.146 144.886 139.587 144.711 139.934 144.408C140.281 144.106 140.512 143.692 140.588 143.239L145.802 107.074C145.839 106.868 145.83 106.656 145.775 106.454C145.72 106.251 145.621 106.064 145.484 105.905C145.347 105.746 145.177 105.619 144.985 105.533C144.793 105.448 144.584 105.407 144.374 105.412H144.383ZM155.94 104.985H159.024C158.935 105.114 158.87 105.259 158.834 105.412H155.879C155.418 105.428 154.977 105.602 154.63 105.905C154.283 106.208 154.052 106.621 153.975 107.074L151.292 125.686C151.164 125.621 151.024 125.586 150.881 125.581L153.547 107.074C153.714 105.925 154.791 104.985 155.945 104.985H155.94ZM149.276 139.639L148.759 143.239C148.721 143.445 148.73 143.657 148.785 143.86C148.839 144.062 148.939 144.25 149.076 144.409C149.212 144.568 149.383 144.695 149.575 144.78C149.767 144.865 149.976 144.907 150.186 144.901H163.889C164.351 144.886 164.792 144.712 165.139 144.409C165.486 144.106 165.717 143.693 165.793 143.239L166.269 139.93C166.379 140.039 166.514 140.117 166.663 140.158L166.224 143.239C166.057 144.388 164.977 145.328 163.825 145.328H150.123C148.971 145.328 148.164 144.389 148.329 143.239L148.833 139.745C148.985 139.738 149.134 139.701 149.273 139.639H149.276ZM169.09 120.405L171.011 107.071C171.049 106.865 171.04 106.653 170.985 106.45C170.93 106.248 170.831 106.06 170.694 105.901C170.557 105.741 170.386 105.615 170.193 105.529C170.001 105.444 169.792 105.403 169.582 105.409H162.952C162.963 105.264 162.941 105.118 162.888 104.983H169.643C170.796 104.983 171.603 105.922 171.437 107.071L169.533 120.326C169.383 120.323 169.234 120.35 169.094 120.405H169.09ZM181.169 104.983H194.872C195.979 104.983 197.081 105.921 196.655 107.115L193.748 115.237C193.602 115.217 193.452 115.226 193.309 115.263L196.261 107.03C196.592 106.112 195.655 105.412 194.822 105.412H181.119C180.658 105.427 180.216 105.602 179.87 105.905C179.523 106.207 179.291 106.621 179.215 107.074L177.786 116.902C177.624 116.932 177.469 116.994 177.332 117.084L178.773 107.081C178.941 105.933 180.016 104.993 181.17 104.993L181.169 104.983ZM187.744 132.318C185.575 138.559 183.081 145.325 182.204 145.325H175.353C174.201 145.325 173.394 144.386 173.558 143.236L176.427 123.337C176.544 123.427 176.682 123.489 176.828 123.518L173.985 143.236C173.948 143.442 173.957 143.654 174.012 143.857C174.067 144.059 174.167 144.247 174.304 144.406C174.44 144.565 174.611 144.692 174.803 144.777C174.996 144.862 175.204 144.904 175.415 144.898H182.265C182.859 144.898 185.194 138.437 187.289 132.388C187.443 132.397 187.598 132.374 187.744 132.321V132.318Z" fill="#FFA451"/>
<path fill-rule="evenodd" clip-rule="evenodd" d="M168.789 75.0288C183.705 75.0288 194.059 87.0795 191.916 101.944C189.774 116.808 175.945 128.859 161.029 128.859C146.114 128.859 135.755 116.808 137.902 101.944C140.049 87.0795 153.872 75.0288 168.789 75.0288Z" fill="#FB9674"/>
<path fill-rule="evenodd" clip-rule="evenodd" d="M180.301 88.5316C186.666 95.9383 184.935 107.942 176.434 115.356C167.933 122.77 155.882 122.764 149.517 115.356C143.152 107.948 144.883 95.9456 153.383 88.5316C161.883 81.1176 173.937 81.1235 180.301 88.5316ZM178.421 92.7071L153.891 114.084C159.234 118.643 167.906 118.192 174.176 112.729C180.445 107.267 182.136 98.6879 178.423 92.7071H178.421ZM151.396 111.181L175.926 89.8043C170.585 85.2435 161.911 85.6944 155.641 91.1586C149.372 96.6228 147.682 105.201 151.396 111.181Z" fill="#E5E5E5"/>
<path fill-rule="evenodd" clip-rule="evenodd" d="M179.678 88.7009C182.888 92.4371 184.055 97.3335 183.35 102.23C182.646 107.126 180.064 112.023 175.776 115.759C171.488 119.495 166.306 121.363 161.394 121.363C156.482 121.363 151.835 119.494 148.625 115.759C145.415 112.024 144.249 107.124 144.952 102.23C145.655 97.3365 148.24 92.4371 152.525 88.7009C156.81 84.9647 161.997 83.0966 166.909 83.0966C171.821 83.0966 176.466 84.9647 179.678 88.7009ZM168.054 75.1514C160.552 75.1514 153.32 78.1827 147.698 83.082C142.076 87.9814 138.058 94.7576 136.978 102.23C135.899 109.702 137.967 116.477 142.177 121.378C146.387 126.279 152.743 129.307 160.249 129.307C167.754 129.307 174.981 126.274 180.605 121.375C186.228 116.476 190.247 109.699 191.323 102.227C192.399 94.7547 190.336 87.9785 186.126 83.0791C181.915 78.1797 175.558 75.1485 168.054 75.1485V75.1514ZM185.858 83.3141C181.698 78.4746 175.419 75.4798 168.007 75.4798C160.596 75.4798 153.453 78.4746 147.899 83.3141C142.344 88.1536 138.38 94.8437 137.309 102.23C136.239 109.616 138.285 116.305 142.444 121.146C146.603 125.987 152.882 128.979 160.294 128.979C167.706 128.979 174.851 125.985 180.404 121.146C185.957 116.306 189.923 109.616 190.993 102.23C192.064 94.8437 190.018 88.1551 185.858 83.3141ZM183.019 102.23C183.712 97.4138 182.565 92.5976 179.41 88.933C176.254 85.2683 171.692 83.4265 166.862 83.4265C162.032 83.4265 156.939 85.2624 152.726 88.933C148.512 92.6035 145.976 97.4167 145.283 102.23C144.59 107.043 145.739 111.855 148.892 115.527C152.045 119.199 156.612 121.034 161.441 121.034C166.269 121.034 171.364 119.198 175.577 115.527C179.79 111.857 182.325 107.042 183.019 102.23ZM177.61 93.2456L153.388 114.351C156.024 116.54 159.465 117.521 163.01 117.283C166.556 117.045 170.238 115.584 173.319 112.904C176.4 110.225 178.364 106.775 179.108 103.26C179.852 99.746 179.385 96.1966 177.61 93.25V93.2456ZM153.036 114.253C153.002 114.28 152.979 114.319 152.973 114.363C152.967 114.406 152.978 114.45 153.004 114.485L153.023 114.503C155.738 116.822 159.307 117.859 162.981 117.611C166.619 117.37 170.368 115.874 173.515 113.131C176.662 110.387 178.671 106.868 179.432 103.278C180.202 99.6424 179.697 95.9354 177.806 92.8939C177.793 92.8768 177.777 92.8624 177.759 92.8515C177.741 92.8407 177.72 92.8336 177.699 92.8308C177.678 92.8279 177.656 92.8293 177.636 92.8349C177.615 92.8405 177.596 92.8501 177.579 92.8633L177.56 92.8779L153.036 114.253ZM150.693 111.21L174.915 90.1034C172.279 87.9143 168.836 86.9364 165.292 87.1729C161.748 87.4093 158.065 88.8717 154.984 91.5512C151.903 94.2308 149.939 97.6809 149.195 101.195C148.451 104.71 148.919 108.268 150.693 111.21ZM175.268 90.2027C175.303 90.176 175.326 90.1369 175.332 90.0935C175.339 90.0501 175.328 90.006 175.302 89.9706L175.284 89.9531C172.568 87.6341 168.999 86.5964 165.318 86.8445C161.681 87.0868 157.932 88.5798 154.785 91.3235C151.637 94.0673 149.628 97.589 148.868 101.179C148.098 104.813 148.603 108.52 150.494 111.56C150.506 111.578 150.522 111.592 150.54 111.603C150.559 111.615 150.579 111.622 150.6 111.625C150.622 111.628 150.643 111.627 150.664 111.621C150.685 111.615 150.704 111.606 150.721 111.592L150.738 111.576L175.262 90.2071L175.268 90.2027Z" fill="white"/>
<path fill-rule="evenodd" clip-rule="evenodd" d="M225.82 158.788C225.654 158.787 225.494 158.729 225.366 158.625C225.294 158.565 225.234 158.492 225.19 158.41C225.147 158.327 225.12 158.237 225.111 158.144C225.102 158.051 225.112 157.958 225.14 157.868C225.167 157.779 225.212 157.697 225.272 157.625C227.812 154.577 229.522 150.928 230.238 147.031C230.953 143.134 230.65 139.118 229.358 135.371C229.297 135.193 229.309 134.998 229.392 134.829C229.475 134.66 229.622 134.53 229.8 134.469C229.979 134.408 230.175 134.42 230.344 134.503C230.514 134.585 230.644 134.732 230.705 134.91C232.074 138.888 232.394 143.15 231.634 147.286C230.875 151.423 229.061 155.295 226.368 158.533C226.301 158.613 226.217 158.677 226.122 158.721C226.028 158.766 225.924 158.788 225.82 158.788Z" fill="white"/>
<path fill-rule="evenodd" clip-rule="evenodd" d="M240.599 149.612C234.888 150.691 227.722 152.908 219.103 156.266C219.666 156.413 220.218 156.601 220.753 156.829C232.652 152.524 240.538 150.361 244.41 150.339C243.743 150.105 243.053 149.943 242.351 149.855C242.409 143.543 242.737 137.954 243.335 133.087C241.87 140.632 240.958 146.14 240.599 149.612Z" fill="#242424"/>
<path fill-rule="evenodd" clip-rule="evenodd" d="M219.102 156.265C216.456 155.477 214.107 155.652 212.057 156.791L213.778 162.743C213.972 163.417 213.586 163.947 212.919 163.919L214.513 163.985C215.198 163.595 215.951 163.337 216.733 163.226C218.184 164.146 220.091 163.946 222.456 162.626C222.629 160.259 222.028 158.339 220.655 156.864C220.688 156.854 220.721 156.84 220.751 156.829C220.216 156.601 219.665 156.412 219.102 156.265Z" fill="#FFB17D"/>
<path fill-rule="evenodd" clip-rule="evenodd" d="M238.819 166.9C239.185 164.759 239.544 162.461 239.895 160.007C235.41 161.174 229.573 162.283 222.384 163.334C222.415 163.093 222.439 162.858 222.456 162.626C220.094 163.946 218.187 164.146 216.733 163.226C215.952 163.337 215.198 163.595 214.513 163.985L230.612 164.654C230.418 165.741 229.943 166.567 229.21 167.069C232.413 167.217 235.623 167.16 238.819 166.9Z" fill="#242424"/>
<path fill-rule="evenodd" clip-rule="evenodd" d="M212.054 156.791C213.591 155.938 215.295 155.626 217.166 155.855C220.242 149.226 218.338 139.801 222.676 125.421C219.551 126.984 215.911 134.549 211.754 148.115C211.173 148.589 210.561 149.023 209.922 149.414L212.054 156.791Z" fill="#8A8B8C"/>
<path fill-rule="evenodd" clip-rule="evenodd" d="M222.679 125.421C218.344 139.804 220.248 149.226 217.169 155.855C217.824 155.937 218.471 156.075 219.103 156.266C227.72 152.911 234.886 150.693 240.599 149.612C240.957 146.139 241.869 140.631 243.335 133.087C242.736 137.952 242.408 143.541 242.351 149.855C243.053 149.943 243.743 150.105 244.41 150.339C240.538 150.362 232.652 152.525 220.753 156.829L220.655 156.864C222.027 158.338 222.627 160.258 222.456 162.626C222.44 162.858 222.415 163.095 222.383 163.336C229.571 162.286 235.409 161.176 239.895 160.007C243.59 159.042 246.367 158.037 248.225 156.99C253.084 148.931 253.842 138.526 250.498 125.777C248.69 123.479 244.654 122.621 238.392 123.205C231.86 128.697 228.871 128.961 229.427 123.999C226.577 124.075 224.328 124.549 222.679 125.421Z" fill="#8A8B8C"/>
<path fill-rule="evenodd" clip-rule="evenodd" d="M222.48 125.527C218.606 133.526 217.94 149.776 216.157 151.53C215.481 152.34 213.893 153.329 211.394 154.499L211.442 154.661L212.057 156.791C213.594 155.938 215.298 155.626 217.169 155.855C220.245 149.226 218.341 139.801 222.679 125.421C222.613 125.453 222.547 125.489 222.48 125.527Z" fill="#242424"/>
<path fill-rule="evenodd" clip-rule="evenodd" d="M188.144 166.009L227.015 167.624C229.015 167.707 230.265 166.602 230.612 164.654L186.849 162.835H186.729C186.307 162.819 185.688 163.006 185.886 164.178C186.063 165.14 187.082 165.966 188.144 166.009Z" fill="#F47A44"/>
<path fill-rule="evenodd" clip-rule="evenodd" d="M181.775 142.022L206.892 143.065C207.56 143.093 208.262 143.668 208.459 144.339L213.778 162.743C213.972 163.417 213.586 163.947 212.919 163.919L187.801 162.874C187.135 162.847 186.43 162.272 186.235 161.597L180.915 143.195C180.714 142.524 181.107 141.994 181.775 142.022Z" fill="#FABEA7"/>
<path fill-rule="evenodd" clip-rule="evenodd" d="M184.017 149.499L187.288 160.82C187.451 161.381 188.049 161.9 188.64 161.923L211.559 162.876C212.145 162.899 212.41 162.438 212.256 161.911L210.073 154.356C208.123 154.596 206.16 154.716 204.196 154.715C202.676 154.715 201.188 154.643 199.739 154.51C199.446 155.281 198.724 155.803 197.786 155.803C196.591 155.803 195.456 154.953 195.053 153.823C190.664 152.936 186.865 151.427 184.017 149.499Z" fill="#F47A44"/>
<path fill-rule="evenodd" clip-rule="evenodd" d="M176.492 169.226C178.412 167.983 179.895 166.828 180.941 165.763C182.569 166.493 184.121 167.156 185.597 167.749C189.163 167.289 193.339 166.847 198.124 166.424L188.144 166.009C187.082 165.966 186.063 165.134 185.886 164.173C185.686 163.006 186.307 162.815 186.729 162.831H186.849L187.801 162.872C187.135 162.844 186.43 162.269 186.235 161.595L183.599 152.499C181.997 152.407 180.576 152.378 179.336 152.412C172.286 154.957 166.215 165.401 153.111 174.086C153.325 176.367 154.452 177.819 156.202 179.267C163.085 176.335 169.996 173.07 174.053 170.71C174.933 170.202 175.747 169.708 176.492 169.226Z" fill="#5F5F5F"/>
<path fill-rule="evenodd" clip-rule="evenodd" d="M139.103 175.058C144.315 179.642 148.183 182.409 150.466 183.461C152.929 184.597 153.629 183.733 154.231 180.874C147.36 178.695 151.097 177.192 148.52 175.474C145.763 175.305 142.624 174.02 139.103 171.621C136.896 171.393 136.642 172.746 139.103 175.058Z" fill="#303030"/>
<path fill-rule="evenodd" clip-rule="evenodd" d="M140.468 169.087C140.692 170.693 140.839 171.456 141.042 172.854L141.149 172.917L141.202 172.946L141.256 172.98L141.359 173.037L141.464 173.096L141.511 173.123L141.571 173.156L141.668 173.21H141.676L141.782 173.267L141.823 173.289L142.098 173.435L142.133 173.453L142.202 173.491L142.287 173.534L142.306 173.545L142.411 173.597L142.441 173.613L142.514 173.651L142.593 173.69L142.618 173.702L142.72 173.753L142.745 173.765L142.824 173.804L142.898 173.839L142.927 173.854L143.029 173.904L143.049 173.912L143.132 173.952L143.199 173.982L143.235 173.998L143.336 174.045H143.35L143.438 174.086L143.5 174.114L143.646 174.176H143.655L143.801 174.242L143.845 174.26L143.945 174.302L144.041 174.341L144.093 174.363L144.141 174.384L144.239 174.423L144.339 174.463L144.384 174.48L144.437 174.502L144.531 174.535L144.629 174.572L144.67 174.588L144.727 174.61L144.813 174.642H144.825L144.922 174.677L144.958 174.69L145.02 174.711L145.102 174.74H145.116L145.214 174.773L145.245 174.782L145.311 174.804L145.408 174.835L145.503 174.865L145.529 174.874L145.6 174.896L145.67 174.916H145.695L145.79 174.944H145.811L145.885 174.966L145.951 174.984L145.98 174.994L146.076 175.019H146.09L146.169 175.039L146.229 175.055H146.263L146.357 175.078L146.544 175.125L146.638 175.146L146.724 175.163L146.774 175.173L146.817 175.183L146.91 175.202L147.001 175.22L147.092 175.237L147.18 175.254L147.271 175.27L147.312 175.277H147.363C147.343 175.088 147.307 174.901 147.254 174.718C145.272 172.797 143.516 170.726 142.422 166.621C140.897 165.015 140.099 165.666 140.451 169.019L140.468 169.087ZM141.741 177.322C142.146 179.522 142.637 181.57 143.119 182.625C144.144 184.871 146.057 183.717 148.146 182.151C146.446 181.055 144.293 179.448 141.741 177.323V177.322Z" fill="#303030"/>
<path fill-rule="evenodd" clip-rule="evenodd" d="M144.759 174.641L144.825 174.667H144.837L144.933 174.7L144.97 174.715L145.032 174.735L145.114 174.765H145.128L145.226 174.798L145.257 174.807L145.323 174.829L145.42 174.859L145.515 174.89L145.541 174.899L145.61 174.921L145.682 174.941H145.707L145.802 174.969H145.822L145.897 174.991L145.963 175.01L145.992 175.019L146.087 175.043H146.104L146.181 175.064L146.243 175.08H146.275L146.369 175.105L146.556 175.15L146.65 175.17L146.736 175.188L146.786 175.198L146.828 175.208L146.922 175.227L147.013 175.246L147.104 175.262L147.192 175.278L147.282 175.294H147.323L147.373 175.303C147.353 175.114 147.316 174.927 147.265 174.744C145.282 172.824 143.526 170.753 142.432 166.647C142.035 166.227 141.687 165.963 141.395 165.859C141.632 169.269 142.753 172.196 144.759 174.641Z" fill="black"/>
<path fill-rule="evenodd" clip-rule="evenodd" d="M153.562 180.652C154.105 179.884 154.803 179.237 155.612 178.755C154.413 177.66 153.584 176.509 153.246 174.96C151.886 175.675 150.565 176.089 149.283 176.202C150.207 177.578 148.496 178.898 153.562 180.652Z" fill="#FFB17D"/>
<path fill-rule="evenodd" clip-rule="evenodd" d="M226.333 181.563C234.721 181.036 238.136 174.785 237.977 166.968C235.059 167.17 232.132 167.205 229.21 167.07C228.633 167.467 227.892 167.663 227.014 167.625L198.121 166.425C193.337 166.851 189.162 167.292 185.594 167.751C183.397 168.032 181.433 168.321 179.7 168.617C178.463 168.947 176.61 169.628 174.142 170.661L174.056 170.71C169.999 173.07 163.084 176.335 156.205 179.267C156 179.098 155.805 178.927 155.62 178.755C154.81 179.237 154.112 179.884 153.569 180.652C153.78 180.725 154.003 180.799 154.239 180.874L154.208 181.02C173.792 182.792 180.242 179.825 185.435 178.261C202.427 181.285 210.613 182.396 226.333 181.563Z" fill="#5F5F5F"/>
<path fill-rule="evenodd" clip-rule="evenodd" d="M235.989 113.415C235.346 110.777 235.226 107.773 234.355 106.613C227.289 104.132 226.499 108.034 223.384 108.777C223.297 111.354 224.612 118.726 227.289 119.919C227.857 120.519 228.791 120.87 230.092 120.971C229.969 121.517 229.588 123.491 229.427 123.998C228.871 128.96 231.86 128.695 238.392 123.204H238.419C238.379 121.452 238.231 120.117 238.259 118.801C238.281 117.904 238.315 117.108 238.367 116.413C240.711 113.981 241.173 112.013 239.756 110.509C237.901 109.634 236.827 110.874 236.534 114.23C235.982 114.014 236.364 114.196 235.989 113.415Z" fill="#FFB17D"/>
<path fill-rule="evenodd" clip-rule="evenodd" d="M223.385 108.777C226.499 108.034 227.287 104.136 234.355 106.613C235.225 107.78 235.346 110.777 235.989 113.415C236.366 114.196 235.989 114.014 236.534 114.228C236.827 110.876 237.901 109.636 239.756 110.507C241.169 112.015 240.706 113.983 238.367 116.411C238.315 117.106 238.279 117.902 238.259 118.799C244.849 112.754 243.511 104.548 239.502 101.849C240.479 101.946 241.473 102.324 242.486 102.982C241.027 101.036 239.063 100.358 236.593 100.949C236.857 99.5719 236.805 98.5503 236.437 97.8838C236.326 98.8168 236.14 99.5373 235.879 100.045C234.293 98.6004 231.247 98.2647 228.129 99.4337C224.093 100.947 223.549 100.864 221.96 99.7606C217.67 102.661 220.738 109.648 223.385 108.777Z" fill="black"/>
<path fill-rule="evenodd" clip-rule="evenodd" d="M234.252 119.777C233.081 120.53 231.694 120.928 230.092 120.971C230.021 121.274 229.875 122.017 229.73 122.706C231.751 122.166 233.258 121.19 234.252 119.777Z" fill="#EF8161"/>
<path fill-rule="evenodd" clip-rule="evenodd" d="M185.946 163.247C183.74 162.468 181.84 161.536 180.246 160.45C179.505 161.166 178.767 161.866 178.032 162.55C170.832 169.239 163.876 174.354 157.2 177.505C156.538 177.818 155.879 178.11 155.224 178.381C155.35 178.507 155.482 178.632 155.617 178.756L156.202 179.268C157.561 178.685 158.92 178.101 160.257 177.503C165.699 175.081 170.802 172.605 174.054 170.712L174.139 170.662C174.984 170.17 175.765 169.69 176.482 169.223C177.032 168.867 177.545 168.519 178.021 168.178C179.059 167.456 180.032 166.647 180.931 165.76C182.559 166.491 184.111 167.153 185.587 167.746C187.598 167.486 189.802 167.233 192.199 166.987C194.054 166.793 196.026 166.604 198.114 166.421L192.199 166.176L188.134 166.006C187.072 165.963 186.053 165.131 185.875 164.17C185.812 163.75 185.849 163.45 185.946 163.247Z" fill="#303030"/>
<path fill-rule="evenodd" clip-rule="evenodd" d="M225.132 177.505C220.245 178.874 213.45 179.044 204.745 178.013C203.259 177.845 201.822 177.676 200.435 177.505C197.46 177.14 194.718 176.767 192.209 176.387C189.7 176.008 187.434 175.624 185.41 175.235C183.786 176.169 182.068 176.93 180.284 177.505C179.565 177.744 178.815 177.967 178.036 178.174C171.923 179.796 163.904 180.451 153.976 180.14C153.838 180.302 153.702 180.473 153.568 180.652C153.777 180.725 154.007 180.798 154.236 180.874L154.205 181.02C166.115 182.097 173.17 181.421 178.036 180.376C181.17 179.702 183.396 178.874 185.43 178.261C187.855 178.699 190.1 179.085 192.214 179.438C204.919 181.564 212.862 182.279 226.336 181.564C230.09 181.329 232.849 179.947 234.736 177.789C237.066 175.127 238.067 171.287 237.978 166.967C237.602 166.994 237.221 167.019 236.84 167.041C236.072 167.082 235.291 167.112 234.497 167.13C234.221 172.375 231.099 175.834 225.132 177.505Z" fill="#303030"/>
<path fill-rule="evenodd" clip-rule="evenodd" d="M197.116 151.667C197.589 151.683 198.043 151.859 198.402 152.167C198.761 152.474 199.003 152.895 199.089 153.359C199.235 154.294 198.607 155.05 197.667 155.05C197.194 155.035 196.74 154.859 196.382 154.551C196.023 154.243 195.78 153.823 195.694 153.359C195.535 152.423 196.172 151.667 197.116 151.667Z" fill="#F47A44"/>
<path fill-rule="evenodd" clip-rule="evenodd" d="M222.923 103.873C221.101 105.236 220.609 106.587 221.447 107.929C224.571 108.977 227.415 108.758 229.979 107.272C228.336 107.348 225.984 106.215 222.923 103.873Z" fill="black"/>
<path fill-rule="evenodd" clip-rule="evenodd" d="M228.209 104.47C227.183 105.096 226.857 105.782 227.23 106.53C228.821 107.236 230.326 107.262 231.747 106.607C230.88 106.562 229.7 105.85 228.209 104.47Z" fill="black"/>
<path fill-rule="evenodd" clip-rule="evenodd" d="M90.3895 11.7077C90.3895 9.83608 90.9464 8.00649 91.9898 6.4503C93.0331 4.89411 94.5162 3.6812 96.2512 2.96497C97.9863 2.24873 99.8956 2.06133 101.738 2.42646C103.579 2.7916 105.271 3.69287 106.599 5.0163C107.927 6.33973 108.832 8.02589 109.198 9.86155C109.565 11.6972 109.377 13.5999 108.658 15.3291C107.939 17.0582 106.722 18.5361 105.16 19.576C103.599 20.6158 101.763 21.1708 99.885 21.1708C98.638 21.171 97.4032 20.9263 96.251 20.4508C95.0989 19.9753 94.052 19.2783 93.1702 18.3995C92.2884 17.5208 91.589 16.4775 91.1119 15.3293C90.6348 14.1811 90.3893 12.9505 90.3895 11.7077ZM99.885 22.7995C102.086 22.7995 104.238 22.149 106.068 20.9302C107.899 19.7114 109.325 17.9791 110.168 15.9524C111.01 13.9256 111.231 11.6954 110.801 9.54379C110.372 7.39219 109.312 5.41582 107.755 3.8646C106.199 2.31339 104.215 1.25699 102.056 0.829014C99.8974 0.401034 97.6595 0.620689 95.6258 1.4602C93.5921 2.29971 91.8538 3.72138 90.6309 5.54542C89.4079 7.36946 88.7551 9.51395 88.7551 11.7077C88.7547 13.1645 89.0423 14.6072 89.6015 15.9532C90.1607 17.2993 90.9804 18.5224 92.014 19.5527C93.0475 20.583 94.2746 21.4002 95.6251 21.9578C96.9757 22.5154 98.4232 22.8024 99.885 22.8024V22.7995Z" fill="#E9EEF7"/>
<path fill-rule="evenodd" clip-rule="evenodd" d="M99.8849 6.59234C98.8697 6.59234 97.8773 6.89235 97.0332 7.45443C96.1891 8.01651 95.5312 8.81543 95.1427 9.75014C94.7542 10.6848 94.6525 11.7134 94.8506 12.7057C95.0486 13.6979 95.5375 14.6094 96.2554 15.3248C96.9732 16.0402 97.8878 16.5274 98.8835 16.7248C99.8792 16.9222 100.911 16.8209 101.849 16.4337C102.787 16.0465 103.589 15.3909 104.153 14.5496C104.717 13.7084 105.018 12.7194 105.018 11.7077C105.019 11.0357 104.887 10.3701 104.629 9.749C104.371 9.12794 103.993 8.56365 103.517 8.08845C103.04 7.61325 102.474 7.23649 101.85 6.97976C101.227 6.72303 100.559 6.59138 99.8849 6.59234Z" fill="#E9EEF7"/>
<path fill-rule="evenodd" clip-rule="evenodd" d="M275.372 76.5714C275.371 74.6998 275.928 72.87 276.971 71.3136C278.014 69.7573 279.497 68.5441 281.232 67.8277C282.967 67.1112 284.877 66.9236 286.719 67.2886C288.561 67.6535 290.253 68.5547 291.581 69.8781C292.909 71.2014 293.814 72.8876 294.18 74.7233C294.547 76.559 294.359 78.4618 293.64 80.191C292.921 81.9202 291.704 83.3983 290.143 84.4381C288.581 85.478 286.745 86.033 284.867 86.033C282.349 86.033 279.934 85.0362 278.153 83.2619C276.373 81.4875 275.372 79.0809 275.372 76.5714ZM284.867 87.6633C287.069 87.6633 289.22 87.0127 291.051 85.7939C292.881 84.5752 294.308 82.8429 295.15 80.8161C295.992 78.7893 296.213 76.5591 295.783 74.4075C295.354 72.2559 294.294 70.2796 292.737 68.7284C291.181 67.1771 289.198 66.1207 287.039 65.6928C284.88 65.2648 282.642 65.4844 280.608 66.3239C278.574 67.1635 276.836 68.5851 275.613 70.4092C274.39 72.2332 273.737 74.3777 273.737 76.5714C273.737 78.0283 274.025 79.4709 274.584 80.817C275.143 82.163 275.963 83.3861 276.996 84.4164C278.03 85.4467 279.257 86.264 280.607 86.8216C281.958 87.3792 283.405 87.6662 284.867 87.6662V87.6633Z" fill="#E9EEF7"/>
<path fill-rule="evenodd" clip-rule="evenodd" d="M284.867 71.4561C283.851 71.4546 282.858 71.7536 282.012 72.3151C281.167 72.8767 280.508 73.6755 280.119 74.6105C279.729 75.5455 279.627 76.5746 279.825 77.5676C280.023 78.5606 280.512 79.4727 281.23 80.1885C281.948 80.9044 282.864 81.3917 283.86 81.5889C284.856 81.786 285.889 81.6841 286.827 81.296C287.765 80.9079 288.567 80.2512 289.13 79.4088C289.694 78.5665 289.994 77.5765 289.992 76.5641C289.992 75.2094 289.452 73.9101 288.491 72.9522C287.53 71.9942 286.226 71.4561 284.867 71.4561Z" fill="#E9EEF7"/>
<path fill-rule="evenodd" clip-rule="evenodd" d="M40.4922 54.3791C40.4922 53.2504 40.828 52.1472 41.4572 51.2087C42.0864 50.2703 42.9807 49.5389 44.027 49.107C45.0733 48.6751 46.2246 48.5621 47.3353 48.7823C48.4461 49.0024 49.4663 49.5459 50.2671 50.344C51.0679 51.1421 51.6133 52.1588 51.8342 53.2658C52.0552 54.3727 51.9418 55.5201 51.5084 56.5628C51.075 57.6055 50.3411 58.4968 49.3994 59.1238C48.4578 59.7508 47.3507 60.0855 46.2182 60.0855C45.4663 60.0855 44.7217 59.9379 44.027 59.6511C43.3322 59.3644 42.701 58.944 42.1693 58.4141C41.6376 57.8842 41.2158 57.2552 40.928 56.5628C40.6403 55.8705 40.4922 55.1284 40.4922 54.3791ZM46.2182 61.0706C47.5463 61.0709 48.8446 60.6787 49.949 59.9436C51.0534 59.2085 51.9143 58.1635 52.4227 56.9408C52.9311 55.7181 53.0643 54.3726 52.8054 53.0745C52.5465 51.7764 51.9071 50.5839 50.9681 49.6479C50.0291 48.7119 48.8327 48.0745 47.5302 47.8162C46.2276 47.5579 44.8775 47.6903 43.6505 48.1967C42.4235 48.7031 41.3747 49.5608 40.6368 50.6613C39.899 51.7617 39.5051 53.0555 39.5051 54.3791C39.5049 55.2577 39.6784 56.1279 40.0157 56.9397C40.353 57.7516 40.8474 58.4892 41.4708 59.1106C42.0942 59.732 42.8343 60.2249 43.6489 60.5612C44.4635 60.8975 45.3365 61.0706 46.2182 61.0706Z" fill="#E9EEF7"/>
<path fill-rule="evenodd" clip-rule="evenodd" d="M46.2182 51.2952C45.6058 51.295 45.007 51.4757 44.4977 51.8146C43.9883 52.1535 43.5913 52.6353 43.3568 53.1992C43.1223 53.763 43.0609 54.3834 43.1803 54.9821C43.2997 55.5807 43.5946 56.1306 44.0276 56.5621C44.4607 56.9937 45.0124 57.2876 45.6131 57.4066C46.2138 57.5256 46.8364 57.4644 47.4021 57.2307C47.9679 56.997 48.4514 56.6013 48.7915 56.0937C49.1315 55.5861 49.3129 54.9894 49.3126 54.3791C49.3126 53.5612 48.9866 52.7768 48.4063 52.1985C47.826 51.6201 47.0389 51.2952 46.2182 51.2952Z" fill="#E9EEF7"/>
<path fill-rule="evenodd" clip-rule="evenodd" d="M272.142 137.029C272.142 135.9 272.478 134.797 273.107 133.858C273.736 132.92 274.63 132.188 275.676 131.756C276.723 131.324 277.874 131.211 278.985 131.431C280.096 131.651 281.116 132.194 281.917 132.993C282.718 133.791 283.264 134.808 283.484 135.915C283.705 137.022 283.592 138.169 283.158 139.212C282.725 140.255 281.991 141.146 281.049 141.773C280.107 142.4 279 142.734 277.867 142.734C276.349 142.734 274.893 142.133 273.819 141.063C272.745 139.993 272.142 138.542 272.142 137.029ZM277.867 143.719C279.195 143.719 280.492 143.326 281.596 142.591C282.7 141.856 283.56 140.811 284.068 139.588C284.576 138.366 284.709 137.021 284.449 135.723C284.19 134.425 283.551 133.233 282.612 132.298C281.673 131.362 280.477 130.725 279.175 130.467C277.872 130.209 276.523 130.342 275.296 130.848C274.07 131.355 273.021 132.212 272.284 133.312C271.546 134.413 271.152 135.706 271.152 137.029C271.152 137.908 271.326 138.778 271.663 139.59C272.001 140.401 272.496 141.139 273.119 141.76C273.743 142.382 274.483 142.874 275.297 143.21C276.112 143.547 276.985 143.719 277.867 143.719Z" fill="white"/>
<path fill-rule="evenodd" clip-rule="evenodd" d="M277.867 133.944C277.255 133.944 276.656 134.125 276.147 134.464C275.638 134.803 275.241 135.285 275.007 135.848C274.772 136.412 274.711 137.033 274.83 137.631C274.95 138.229 275.245 138.779 275.678 139.211C276.111 139.642 276.662 139.936 277.263 140.055C277.863 140.174 278.486 140.113 279.052 139.88C279.617 139.646 280.101 139.251 280.441 138.743C280.781 138.236 280.963 137.639 280.963 137.029C280.963 136.624 280.883 136.223 280.727 135.848C280.572 135.474 280.344 135.134 280.056 134.847C279.769 134.561 279.428 134.333 279.052 134.178C278.676 134.023 278.273 133.944 277.867 133.944Z" fill="white"/>
<path fill-rule="evenodd" clip-rule="evenodd" d="M139.664 13.3073C139.664 12.179 140 11.0761 140.63 10.1381C141.259 9.20015 142.153 8.46915 143.199 8.03758C144.245 7.60601 145.396 7.49324 146.506 7.71353C147.617 7.93382 148.637 8.47729 149.437 9.2752C150.237 10.0731 150.783 11.0896 151.003 12.1963C151.224 13.3029 151.111 14.4499 150.677 15.4923C150.244 16.5346 149.51 17.4255 148.569 18.0523C147.628 18.6791 146.521 19.0137 145.389 19.0137C144.637 19.0137 143.892 18.8661 143.198 18.5793C142.503 18.2925 141.872 17.8721 141.34 17.3422C140.809 16.8123 140.387 16.1832 140.099 15.4909C139.812 14.7986 139.664 14.0566 139.664 13.3073ZM145.389 19.9945C146.717 19.9947 148.015 19.6025 149.119 18.8674C150.224 18.1323 151.085 17.0873 151.593 15.8646C152.102 14.6419 152.235 13.2964 151.976 11.9983C151.717 10.7002 151.078 9.50772 150.139 8.57174C149.2 7.63576 148.003 6.99831 146.701 6.73999C145.398 6.48168 144.048 6.61411 142.821 7.12053C141.594 7.62696 140.545 8.48463 139.807 9.58509C139.069 10.6855 138.676 11.9794 138.676 13.3029C138.675 14.1816 138.849 15.0517 139.186 15.8635C139.523 16.6754 140.018 17.4131 140.641 18.0344C141.265 18.6558 142.005 19.1488 142.819 19.4851C143.634 19.8214 144.507 19.9945 145.389 19.9945Z" fill="#E9EEF7"/>
<path fill-rule="evenodd" clip-rule="evenodd" d="M145.389 10.2234C144.776 10.2232 144.178 10.4039 143.668 10.7428C143.159 11.0817 142.762 11.5635 142.527 12.1274C142.293 12.6912 142.232 13.3116 142.351 13.9103C142.47 14.5089 142.765 15.0588 143.198 15.4903C143.631 15.9219 144.183 16.2158 144.784 16.3348C145.384 16.4538 146.007 16.3926 146.573 16.1589C147.139 15.9252 147.622 15.5295 147.962 15.0219C148.302 14.5143 148.484 13.9176 148.483 13.3073C148.483 12.4894 148.157 11.705 147.577 11.1267C146.997 10.5483 146.21 10.2234 145.389 10.2234Z" fill="#E9EEF7"/>
<path fill-rule="evenodd" clip-rule="evenodd" d="M103.439 30.5477C102.922 37.6217 101.875 38.598 95.1079 39.1424C101.875 39.6868 102.922 40.6632 103.439 47.7371C103.956 40.6632 105.003 39.6868 111.771 39.1424C105.002 38.598 103.956 37.6217 103.439 30.5477Z" fill="white"/>
<path fill-rule="evenodd" clip-rule="evenodd" d="M115.407 89.7911C115.101 93.9812 114.481 94.5591 110.473 94.8817C114.481 95.2042 115.101 95.7822 115.407 99.9708C115.713 95.7822 116.334 95.2042 120.341 94.8817C116.334 94.5591 115.713 93.9885 115.407 89.7911Z" fill="white"/>
<g opacity="0.12">
<path fill-rule="evenodd" clip-rule="evenodd" d="M92.5378 165.736L120.256 165.23L219.562 31.6379L191.843 32.1458L92.5378 165.736Z" fill="white"/>
</g>
<g opacity="0.12">
<path fill-rule="evenodd" clip-rule="evenodd" d="M127.956 165.088L141.814 164.836L241.122 31.2439L227.264 31.4978L127.956 165.088Z" fill="white"/>
</g>
<g opacity="0.12">
<path fill-rule="evenodd" clip-rule="evenodd" d="M151.312 164.661L165.171 164.408L264.479 30.8163L250.619 31.0702L151.312 164.661Z" fill="white"/>
</g>
<path fill-rule="evenodd" clip-rule="evenodd" d="M44.0158 100.079C38.3703 105.215 40.8247 110.355 44.997 119.898C49.1692 129.441 49.9073 164.681 49.9073 164.681L46.4717 164.188C46.4717 164.188 46.9652 127.97 42.2979 118.182C37.6307 108.393 35.6654 103.504 31.4932 106.686C27.3209 109.867 44.0158 100.079 44.0158 100.079Z" fill="#FFCA9A"/>
<path fill-rule="evenodd" clip-rule="evenodd" d="M47.116 93.4252C46.4336 90.3778 42.358 87.0839 36.9117 84.2875C37.7244 88.7797 40.3151 96.1251 37.6322 97.6313C34.0076 99.6628 37.2807 89.4073 35.8748 83.7665C30.7595 81.2767 24.5985 79.2422 18.9398 78.2308C18.9491 78.251 18.9564 78.272 18.9618 78.2936C22.1528 86.3687 26.3265 89.5503 24.6087 90.7733C23.3185 91.6942 19.1082 82.3669 13.5418 77.5843C9.37246 77.3683 5.84311 77.9346 3.75772 79.5808C0.527113 82.129 -1.64029 84.3882 1.61081 92.1467C3.46482 93.4602 5.87094 94.4147 8.6622 94.6949C16.027 95.4246 19.467 95.6727 14.3077 98.1217C11.783 99.3184 7.55653 98.0531 4.11944 97.281C5.23096 99.3242 6.60902 101.639 8.26679 104.275C9.25678 105.853 10.414 107.321 11.7185 108.653C14.0924 109.107 16.1617 109.111 17.2571 108.644C20.6928 107.176 29.5308 102.526 31.7421 104.483C33.9051 106.4 15.3709 107.614 16.6582 112.483C25.6426 117.64 35.9232 115.186 37.7464 110.45C40.1745 104.089 49.1809 102.599 47.116 93.4252Z" fill="#FFC289"/>
<path fill-rule="evenodd" clip-rule="evenodd" d="M28.5437 128.218C38.3702 120.877 48.4326 127.729 53.586 135.559C58.7394 143.389 55.0636 161.008 55.0636 161.008C55.0636 161.008 53.0969 161.008 53.0969 160.278C53.0969 159.548 58.4993 139.48 45.7306 130.422C37.7435 124.76 31.9823 127.489 31.2456 130.18C30.509 132.871 34.4382 137.769 34.4382 137.769L28.5437 128.218Z" fill="#FFCA9A"/>
<path fill-rule="evenodd" clip-rule="evenodd" d="M51.1373 113.129C41.3123 113.129 38.1197 128.307 40.8246 137.108C43.5295 145.908 47.2082 162.313 47.2082 162.313L49.6626 159.868C49.6626 159.868 40.3311 136.866 42.5424 126.593C44.7538 116.32 50.1576 114.602 51.1373 114.602C52.1171 114.602 51.1373 113.129 51.1373 113.129Z" fill="#FFCA9A"/>
<path fill-rule="evenodd" clip-rule="evenodd" d="M42.8997 137.178C42.2237 136.261 41.3375 135.518 40.3149 135.012C40.4432 135.72 40.6134 136.42 40.8246 137.108C42.0547 141.124 43.4855 146.711 44.6878 151.608C44.7918 150.98 44.9646 150.014 45.2194 148.524C45.2839 148.171 45.3278 147.794 45.3659 147.384C44.4008 144.125 43.4943 140.571 42.8997 137.178Z" fill="#FFCA9A"/>
<path fill-rule="evenodd" clip-rule="evenodd" d="M40.2111 137.251C21.5539 129.421 31.3848 118.675 14.9375 125.771C13.7776 126.27 12.3688 127.532 10.9541 129.274C12.4186 129.69 14.1891 129.989 16.1676 129.692C21.0765 128.963 19.3587 132.874 11.2529 133.853C9.72983 134.037 8.48797 134.291 7.45845 134.652C3.58934 142.035 1.84956 151.758 10.0213 155.139C11.6322 155.808 13.6194 156.187 15.8366 156.33C18.357 154.334 15.2186 142.778 19.1097 144.372C22.8382 145.905 17.9381 154.278 18.6059 156.389C22.2905 156.323 26.3676 155.722 30.2616 154.758C31.8066 153.899 32.9884 152.743 33.3457 151.227C34.5759 146.086 26.4745 142.908 26.2255 138.499C26.0029 134.452 29.1999 147.401 37.6601 149.316C45.3163 145.749 48.9364 140.913 40.2111 137.251Z" fill="#FEE2C8"/>
<path fill-rule="evenodd" clip-rule="evenodd" d="M53.5099 123.407C51.5446 119.247 56.7024 118.266 56.4534 121.447C56.2426 124.269 56.2147 131.12 59.1144 132.985C64.117 132.444 70.9223 130.435 76.0714 127.373C76.1377 126.936 76.0633 126.489 75.859 126.096C73.6477 121.692 59.4058 118.021 63.8285 116.554C67.3432 115.387 73.5173 122.286 78.4877 125.764C81.4738 123.504 83.4669 120.815 83.4669 117.813C83.4669 113.745 78.5082 109.143 72.0983 106.944C69.2148 107.236 66.5333 108.805 62.3479 111.176C56.1664 114.663 57.5972 109.021 63.4448 105.664C58.3938 105.924 53.3649 108.074 49.6525 113.207C49.6525 113.207 50.0039 115.396 47.674 118.796C41.3182 128.056 48.6552 133.462 57.4244 133.112C56.925 130.673 54.866 126.28 53.5099 123.407Z" fill="#FFC289"/>
<path fill-rule="evenodd" clip-rule="evenodd" d="M29.1428 127.802C24.3408 131.502 19.0087 135.829 12.4626 138.761C5.91641 141.694 7.22124 151.269 7.22124 151.269C7.22124 151.269 6.24152 143.004 11.6981 140.177C17.1547 137.35 20.747 133.977 24.8958 133.325C29.0447 132.673 31.3395 132.019 31.3395 132.019C31.3395 132.019 30.0215 129.408 30.7888 128.431C31.5562 127.455 29.1428 127.802 29.1428 127.802Z" fill="#FFCA9A"/>
<path fill-rule="evenodd" clip-rule="evenodd" d="M5.46973 84.3809C23.0433 89.0512 35.9144 100.26 38.3205 102.98C40.7267 105.701 40.7208 106.459 40.7208 106.459L38.8624 109.939L37.9837 109.501C37.9837 109.501 39.4042 106.565 35.6918 102.757C29.2921 96.1893 21.5056 91.0098 16.1559 88.7257C10.8062 86.4417 5.46973 84.3809 5.46973 84.3809Z" fill="#FFCA9A"/>
<path fill-rule="evenodd" clip-rule="evenodd" d="M53.9711 181.307H47.258C44.9664 181.307 42.7687 180.4 41.1484 178.785C39.528 177.17 38.6177 174.98 38.6177 172.697V157.329H62.6202V172.698C62.62 173.829 62.3961 174.95 61.9612 175.995C61.5264 177.04 60.8891 177.989 60.0859 178.789C59.2827 179.588 58.3292 180.222 57.28 180.655C56.2308 181.087 55.1064 181.308 53.9711 181.307Z" fill="#FFCA9A"/>
<path d="M62.6158 160.069H38.6147V161.754H62.6158V160.069Z" fill="white"/>
<path d="M62.6158 163.14H38.6147V164.13H62.6158V163.14Z" fill="white"/>
</svg>
