<svg width="218" height="200" viewBox="0 0 218 200" fill="none" xmlns="http://www.w3.org/2000/svg">
<path d="M30.4178 149.785C30.4178 149.785 51.7543 176.803 88.218 177.901C124.682 179 157.291 156.253 184.193 138.555C211.094 120.856 219.922 91.2037 206.49 66.7467C193.058 42.2898 168.685 50.6691 139.434 33.4827C110.183 16.2963 104.94 7.28336 70.984 8.82512C37.0284 10.3669 8.96516 46.6299 10.2007 87.2542C11.4362 127.879 30.4178 149.785 30.4178 149.785Z" fill="#FFA451"/>
<path opacity="0.7" d="M30.4178 149.785C30.4178 149.785 51.7543 176.803 88.218 177.901C124.682 179 157.291 156.253 184.193 138.555C211.094 120.856 219.922 91.2037 206.49 66.7467C193.058 42.2898 168.685 50.6691 139.434 33.4827C110.183 16.2963 104.94 7.28336 70.984 8.82512C37.0284 10.3669 8.96516 46.6299 10.2007 87.2542C11.4362 127.879 30.4178 149.785 30.4178 149.785Z" fill="white"/>
<path d="M37.0494 16.0904C37.0177 16.0904 37.419 14.121 37.4559 13.9784C37.91 12.5687 39.6207 10.1188 41.2734 10.124C41.5487 10.1318 41.8192 10.1975 42.0674 10.3169C42.3156 10.4363 42.5358 10.6067 42.7137 10.817C42.8916 11.0272 43.0231 11.2726 43.0997 11.5372C43.1763 11.8017 43.1963 12.0794 43.1583 12.3522C43.0369 13.5138 41.9915 14.5064 41.0463 15.0767C39.9375 15.7684 37.0494 16.0904 37.0494 16.0904Z" fill="#FFA451"/>
<path d="M33.8444 2.84812C35.4284 3.4078 36.1782 6.29068 36.1254 7.76908C36.1254 7.8958 35.8297 9.88108 35.8033 9.88108H35.7716C35.8931 10.3352 36.0251 10.8262 36.1571 11.3648C36.3894 12.3574 36.6428 13.4768 36.8382 14.7228C37.0647 16.0577 37.2128 17.4046 37.2817 18.7568C37.3659 20.2719 37.3147 21.7915 37.1286 23.2976C37.1261 23.3151 37.1261 23.3329 37.1286 23.3504C37.3345 22.9121 37.947 21.6977 37.9998 21.6132C38.8129 20.3777 41.1044 18.4452 42.7043 18.9046C42.967 18.9847 43.2098 19.1193 43.417 19.2996C43.6241 19.4799 43.7909 19.7018 43.9065 19.951C44.0221 20.2001 44.0839 20.4708 44.0878 20.7454C44.0917 21.02 44.0377 21.2923 43.9292 21.5446C43.5068 22.6323 42.2396 23.3134 41.1784 23.6144C39.9798 23.9576 37.3081 23.5563 37.0969 23.5193C36.8711 25.0479 36.543 26.5596 36.1148 28.0443C35.8684 28.9102 35.6009 29.7744 35.3123 30.6368C35.4971 30.2619 35.6713 29.9292 35.6977 29.887C36.5108 28.6462 38.8076 26.719 40.4022 27.1784C40.6649 27.2585 40.9077 27.3931 41.1149 27.5734C41.322 27.7537 41.4888 27.9756 41.6044 28.2247C41.72 28.4738 41.7818 28.7445 41.7857 29.0191C41.7896 29.2937 41.7356 29.5661 41.6272 29.8184C41.2048 30.906 39.9376 31.5872 38.8763 31.8881C37.815 32.1891 35.5129 31.8881 34.911 31.8089L34.5784 32.8016C34.0504 34.3856 33.4748 35.9696 32.9944 37.5219C32.8201 38.0499 32.667 38.6201 32.5139 39.1692C32.6828 38.8366 32.8254 38.5568 32.8518 38.5145C33.6596 37.279 35.9564 35.3465 37.551 35.8059C37.8132 35.8869 38.0555 36.0219 38.2623 36.2022C38.4692 36.3826 38.6359 36.6042 38.7518 36.853C38.8677 37.1017 38.9302 37.3719 38.9353 37.6463C38.9404 37.9207 38.8879 38.193 38.7812 38.4459C38.3588 39.5388 37.0864 40.2147 36.0251 40.5209C34.9638 40.8272 32.8888 40.5579 32.1707 40.4576C32.0281 41.0225 31.8908 41.5875 31.78 42.1419C31.7113 42.5273 31.6216 42.8864 31.574 43.2718L31.4156 44.407C31.3417 45.1304 31.2572 45.8748 31.2044 46.5824C31.1622 47.0734 31.1305 47.5433 31.0988 48.0185C31.2678 47.4905 31.6268 46.3976 31.6268 46.3131C32.2116 45.1514 33.0841 44.1589 34.1612 43.4302C34.2187 43.2956 34.2913 43.1681 34.3777 43.05C34.5272 42.8194 34.7237 42.6228 34.9543 42.4733C35.185 42.3237 35.4446 42.2245 35.7162 42.1821C35.9878 42.1398 36.2652 42.1552 36.5305 42.2274C36.7957 42.2997 37.0427 42.427 37.2553 42.6012C38.512 43.6836 38.1952 46.651 37.6196 48.0132C37.588 48.0924 37.118 48.9214 36.8171 49.4441C37.0441 49.1643 37.2553 48.8897 37.4929 48.6099C37.9523 48.0449 38.4275 47.4958 38.9344 46.9044L39.7105 46.0649C39.964 45.7798 40.2702 45.5369 40.55 45.2254C41.21 44.5865 41.9123 43.9688 42.6356 43.3616C42.1446 42.9603 40.4128 41.503 39.9164 40.5104C39.4201 39.5177 39.0664 38.1291 39.5838 37.0784C39.6976 36.8278 39.8628 36.6039 40.0687 36.4213C40.2745 36.2386 40.5165 36.1013 40.7788 36.0182C41.0412 35.935 41.3181 35.908 41.5916 35.9387C41.865 35.9694 42.129 36.0573 42.3664 36.1966C43.7656 37.0784 43.9081 40.0616 43.5438 41.4766C43.5438 41.5664 43.1425 42.5643 42.926 43.1081C43.3643 42.7491 43.7972 42.39 44.2513 42.0521C45.5608 41.0436 46.9177 40.0563 48.2641 39.0689L49.4944 38.1608C49.3201 38.0182 47.2292 36.3286 46.6696 35.2145C46.1785 34.2272 45.8195 32.8332 46.3369 31.7878C46.4501 31.5367 46.6149 31.3122 46.8207 31.1291C47.0265 30.946 47.2686 30.8083 47.5312 30.7251C47.7937 30.6419 48.0709 30.615 48.3446 30.6462C48.6183 30.6774 48.8823 30.7659 49.1195 30.906C50.524 31.7825 50.6612 34.7657 50.2969 36.186C50.2705 36.2916 49.7267 37.7278 49.5736 38.0868C50.4712 37.4163 51.3635 36.7404 52.2136 36.0329C53.3702 35.0901 54.4637 34.0723 55.4872 32.9864C55.408 32.9177 53.2168 31.1648 52.6465 30.0296C52.1502 29.0422 51.7964 27.643 52.3139 26.5976C52.4271 26.3472 52.5918 26.1234 52.7972 25.9408C53.0025 25.7582 53.244 25.6208 53.506 25.5377C53.7679 25.4545 54.0444 25.4274 54.3175 25.4581C54.5906 25.4888 54.8542 25.5766 55.0912 25.7158C56.4956 26.5976 56.6382 29.5808 56.2739 30.9958C56.2739 31.0908 55.8356 32.1838 55.6297 32.7012L55.7089 32.754C56.7092 31.6315 57.6085 30.423 58.3964 29.1425C58.84 28.4403 59.2201 27.7486 59.5792 27.0675C59.1356 26.7824 57.1345 25.4571 56.5062 24.4908C55.8779 23.5246 55.4027 22.2152 55.7987 21.1169C55.8835 20.8551 56.0226 20.6142 56.2068 20.4097C56.3911 20.2052 56.6163 20.0419 56.8679 19.9303C57.1194 19.8187 57.3917 19.7614 57.6669 19.7621C57.9421 19.7627 58.2141 19.8214 58.4651 19.9342C59.9593 20.6576 60.424 23.6302 60.218 25.0716C60.218 25.1508 60.0068 25.9481 59.8537 26.5236C60.0068 26.2121 60.1758 25.8953 60.3184 25.5944C60.8464 24.4697 61.2952 23.4032 61.6648 22.4264C61.876 21.8984 62.0502 21.3968 62.1928 20.9321C61.9024 20.4041 60.7724 18.3766 60.6616 17.2361C60.5507 16.0956 60.7302 14.7123 61.5908 13.9203C61.7868 13.7274 62.0212 13.578 62.2787 13.4817C62.5362 13.3854 62.8111 13.3443 63.0855 13.3613C63.3599 13.3782 63.6277 13.4527 63.8714 13.58C64.1152 13.7072 64.3294 13.8843 64.5001 14.0998C65.4928 15.4251 64.5476 18.2604 63.6923 19.4643C63.6184 19.5699 62.272 21.0483 62.2561 21.0483V21.0166C62.1083 21.4654 61.9499 21.9459 61.7598 22.4633C61.4113 23.4243 61.0048 24.5014 60.482 25.6313C59.9295 26.8677 59.3072 28.0717 58.6182 29.2376C57.8493 30.5453 56.9659 31.7821 55.9782 32.9336L55.9412 32.9758C56.3531 32.7224 57.5252 32.0465 57.6256 32.0043C58.9878 31.4235 61.9552 31.0961 63.0428 32.3422C63.2179 32.5543 63.3464 32.8008 63.4198 33.0658C63.4933 33.3308 63.5102 33.6083 63.4694 33.8802C63.4285 34.1522 63.3309 34.4124 63.1828 34.6442C63.0347 34.8759 62.8395 35.0738 62.6099 35.2251C61.6542 35.9009 60.2233 35.7531 59.1673 35.4363C57.9793 35.0561 55.9993 33.2504 55.8198 33.1025C54.7885 34.2531 53.6807 35.3326 52.504 36.3339C51.8228 36.92 51.1153 37.4902 50.392 38.0552C50.7563 37.844 51.0836 37.6592 51.1312 37.638C52.4881 37.0572 55.4555 36.7299 56.5432 37.976C56.719 38.1877 56.8482 38.4342 56.9221 38.6993C56.9961 38.9644 57.0132 39.2422 56.9723 39.5144C56.9314 39.7865 56.8335 40.047 56.6849 40.2787C56.5364 40.5104 56.3405 40.7081 56.1102 40.8588C55.1598 41.5347 53.7236 41.3868 52.6729 41.07C51.6222 40.7532 49.864 39.222 49.4099 38.8155C49.13 39.0267 48.8819 39.2432 48.5809 39.4596C47.2556 40.4734 45.9409 41.4819 44.6473 42.5168C44.1985 42.8758 43.7708 43.2507 43.3379 43.6256L43.982 43.2665C45.339 42.6857 48.3064 42.3531 49.394 43.5992C49.5692 43.8117 49.6977 44.0586 49.7713 44.324C49.8448 44.5894 49.8617 44.8673 49.8209 45.1397C49.78 45.412 49.6824 45.6728 49.5343 45.9049C49.3862 46.1371 49.1909 46.3355 48.9611 46.4873C48.0107 47.1632 46.5745 47.0153 45.5238 46.6932C44.4731 46.3712 42.8838 44.9931 42.3558 44.5126C41.9281 44.9086 41.4952 45.3046 41.0992 45.7059C40.8299 45.9857 40.5712 46.2339 40.3072 46.5348L39.5468 47.3902C39.0875 47.9552 38.607 48.5307 38.1688 49.0904C37.8625 49.4758 37.5774 49.8507 37.2923 50.2308C37.7305 49.8612 38.6176 49.1748 38.6968 49.1115C39.9481 48.33 42.8363 47.5275 44.0982 48.6257C44.3027 48.8094 44.4663 49.0341 44.5782 49.2852C44.6902 49.5363 44.7481 49.8081 44.7481 50.083C44.7481 50.3579 44.6902 50.6297 44.5782 50.8808C44.4663 51.1319 44.3027 51.3566 44.0982 51.5403C43.2534 52.3534 41.8172 52.4379 40.7296 52.2689C39.5257 52.0788 37.3504 50.6849 37.0811 50.4843C36.6059 51.1126 36.1518 51.7198 35.7294 52.3059C34.2668 54.3281 33.1264 56.0705 32.3449 57.2955L32.2657 57.4222L31.252 56.9312L31.4104 56.6883C32.2288 55.4633 33.422 53.7315 34.9427 51.7251C35.4232 51.0862 35.9459 50.4156 36.4897 49.7345C35.9242 49.1166 35.3952 48.466 34.9057 47.7862C33.7388 48.2456 31.3206 48.2614 31.0038 48.2614C30.9563 49.0428 30.914 49.8084 30.8824 50.5265C30.7768 53.0187 30.7873 55.099 30.8137 56.5563V56.7252L29.6996 56.1972C29.6996 54.7505 29.7577 52.7969 29.9056 50.4843C29.9531 49.6923 30.0217 48.8422 30.1009 47.971C29.7894 47.8918 27.2708 47.2476 26.3204 46.4873C25.4598 45.7956 24.5516 44.6816 24.5833 43.5094C24.5812 43.2344 24.637 42.9621 24.7471 42.7101C24.8572 42.4581 25.0191 42.2321 25.2223 42.0468C25.4255 41.8615 25.6655 41.7211 25.9266 41.6347C26.1876 41.5483 26.4639 41.5178 26.7376 41.5452C28.3796 41.7564 29.7577 44.407 30.027 45.859C30.027 45.9488 30.1115 46.915 30.1432 47.4958C30.1801 47.142 30.2065 46.7936 30.2488 46.4398C30.3174 45.7164 30.4124 44.9984 30.5128 44.2222C30.5708 43.8473 30.6342 43.4724 30.6923 43.0923C30.7504 42.7121 30.8507 42.3214 30.9299 41.9307C31.1305 41.0331 31.3734 40.1302 31.6427 39.2273C31.0091 39.164 28.7651 38.9 27.8041 38.3456C26.8432 37.7912 25.7766 36.8302 25.634 35.6686C25.5899 35.3969 25.6035 35.1189 25.674 34.8528C25.7445 34.5868 25.8703 34.3385 26.0431 34.1243C26.216 33.9101 26.4321 33.7347 26.6773 33.6096C26.9225 33.4845 27.1913 33.4124 27.4662 33.3982C29.1188 33.3612 30.8824 35.7689 31.3681 37.1681C31.3998 37.2526 31.6374 38.2928 31.7588 38.8683C31.9225 38.3403 32.0809 37.7859 32.2868 37.242C32.8148 35.658 33.4115 34.111 33.9923 32.5428C34.1718 32.0624 34.3408 31.5819 34.5203 31.1014C34.2932 31.1014 31.6163 30.8216 30.5392 30.2038C29.5835 29.6758 28.5169 28.6884 28.3691 27.5268C28.3258 27.2553 28.34 26.9776 28.4108 26.7119C28.4817 26.4461 28.6075 26.1982 28.7802 25.9842C28.9529 25.7701 29.1687 25.5948 29.4135 25.4694C29.6582 25.3441 29.9266 25.2715 30.2012 25.2564C31.8592 25.2195 33.6227 27.6272 34.1084 29.0264C34.1454 29.132 34.4833 30.6104 34.552 31.0116C34.9321 29.9556 35.307 28.8996 35.608 27.8436C36.0545 26.418 36.4073 24.9646 36.664 23.4929C36.5584 23.4929 33.7652 23.2289 32.6617 22.5953C31.7008 22.0673 30.6342 21.08 30.4916 19.9184C30.4475 19.6469 30.4611 19.3692 30.5316 19.1034C30.6021 18.8376 30.728 18.5897 30.9009 18.3759C31.0739 18.1621 31.29 17.9872 31.5352 17.8627C31.7804 17.7381 32.0491 17.6668 32.3238 17.6532C33.9764 17.611 35.74 20.0187 36.2257 21.4179C36.2574 21.5076 36.5214 22.6481 36.6323 23.1972H36.722C36.9401 21.71 37.0249 20.2063 36.9755 18.704C36.9755 17.875 36.8963 17.0883 36.8171 16.3227C36.2891 16.3227 33.892 16.3227 32.836 15.8633C31.78 15.404 30.6553 14.5803 30.3808 13.4451C30.3075 13.1792 30.2913 12.9008 30.3331 12.6281C30.3749 12.3555 30.4738 12.0948 30.6233 11.863C30.7728 11.6312 30.9696 11.4336 31.2008 11.2832C31.432 11.1327 31.6923 11.0328 31.9648 10.9899C33.6068 10.7628 35.6238 12.9699 36.2627 14.3004C36.2944 14.3744 36.5689 15.1505 36.7537 15.7208C36.7168 15.3723 36.6798 15.0132 36.6323 14.6648C36.4686 13.424 36.2363 12.2993 36.0251 11.3014C35.8984 10.7364 35.7769 10.2454 35.6555 9.75436C35.1275 9.49037 33.0577 8.40268 32.3502 7.5262C31.6427 6.64972 31.0091 5.37725 31.2942 4.24733C31.3573 3.9805 31.4757 3.72989 31.6418 3.51171C31.8079 3.29353 32.0179 3.11265 32.2583 2.98076C32.4986 2.84887 32.764 2.76892 33.0373 2.74607C33.3105 2.72322 33.5855 2.75799 33.8444 2.84812Z" fill="#FFA451"/>
<path d="M63.7715 28.3452C62.4779 28.2924 59.8907 26.9671 59.8907 26.9671C59.8907 26.9671 61.2794 25.5257 61.3797 25.4465C62.536 24.5278 65.3133 23.4243 66.6914 24.343C66.9167 24.5008 67.1061 24.7044 67.2472 24.9405C67.3884 25.1765 67.4781 25.4398 67.5105 25.7129C67.5429 25.986 67.5172 26.2629 67.4352 26.5255C67.3532 26.788 67.2167 27.0303 67.0346 27.2364C66.2954 28.1393 64.8751 28.3927 63.7715 28.3452Z" fill="#FFA451"/>
<g opacity="0.5">
<path d="M37.0494 16.0904C37.0177 16.0904 37.419 14.121 37.4559 13.9784C37.91 12.5687 39.6207 10.1188 41.2734 10.124C41.5487 10.1318 41.8192 10.1975 42.0674 10.3169C42.3156 10.4363 42.5358 10.6067 42.7137 10.817C42.8916 11.0272 43.0231 11.2726 43.0997 11.5372C43.1763 11.8017 43.1963 12.0794 43.1583 12.3522C43.0369 13.5138 41.9915 14.5064 41.0463 15.0767C39.9375 15.7684 37.0494 16.0904 37.0494 16.0904Z" fill="white"/>
<path d="M33.8444 2.84812C35.4284 3.4078 36.1782 6.29068 36.1254 7.76908C36.1254 7.8958 35.8297 9.88108 35.8033 9.88108H35.7716C35.8931 10.3352 36.0251 10.8262 36.1571 11.3648C36.3894 12.3574 36.6428 13.4768 36.8382 14.7228C37.0647 16.0577 37.2128 17.4046 37.2817 18.7568C37.3659 20.2719 37.3147 21.7915 37.1286 23.2976C37.1261 23.3151 37.1261 23.3329 37.1286 23.3504C37.3345 22.9121 37.947 21.6977 37.9998 21.6132C38.8129 20.3777 41.1044 18.4452 42.7043 18.9046C42.967 18.9847 43.2098 19.1193 43.417 19.2996C43.6241 19.4799 43.7909 19.7018 43.9065 19.951C44.0221 20.2001 44.0839 20.4708 44.0878 20.7454C44.0917 21.02 44.0377 21.2923 43.9292 21.5446C43.5068 22.6323 42.2396 23.3134 41.1784 23.6144C39.9798 23.9576 37.3081 23.5563 37.0969 23.5193C36.8711 25.0479 36.543 26.5596 36.1148 28.0443C35.8684 28.9102 35.6009 29.7744 35.3123 30.6368C35.4971 30.2619 35.6713 29.9292 35.6977 29.887C36.5108 28.6462 38.8076 26.719 40.4022 27.1784C40.6649 27.2585 40.9077 27.3931 41.1149 27.5734C41.322 27.7537 41.4888 27.9756 41.6044 28.2247C41.72 28.4738 41.7818 28.7445 41.7857 29.0191C41.7896 29.2937 41.7356 29.5661 41.6272 29.8184C41.2048 30.906 39.9376 31.5872 38.8763 31.8881C37.815 32.1891 35.5129 31.8881 34.911 31.8089L34.5784 32.8016C34.0504 34.3856 33.4748 35.9696 32.9944 37.5219C32.8201 38.0499 32.667 38.6201 32.5139 39.1692C32.6828 38.8366 32.8254 38.5568 32.8518 38.5145C33.6596 37.279 35.9564 35.3465 37.551 35.8059C37.8132 35.8869 38.0555 36.0219 38.2623 36.2022C38.4692 36.3826 38.6359 36.6042 38.7518 36.853C38.8677 37.1017 38.9302 37.3719 38.9353 37.6463C38.9404 37.9207 38.8879 38.193 38.7812 38.4459C38.3588 39.5388 37.0864 40.2147 36.0251 40.5209C34.9638 40.8272 32.8888 40.5579 32.1707 40.4576C32.0281 41.0225 31.8908 41.5875 31.78 42.1419C31.7113 42.5273 31.6216 42.8864 31.574 43.2718L31.4156 44.407C31.3417 45.1304 31.2572 45.8748 31.2044 46.5824C31.1622 47.0734 31.1305 47.5433 31.0988 48.0185C31.2678 47.4905 31.6268 46.3976 31.6268 46.3131C32.2116 45.1514 33.0841 44.1589 34.1612 43.4302C34.2187 43.2956 34.2913 43.1681 34.3777 43.05C34.5272 42.8194 34.7237 42.6228 34.9543 42.4733C35.185 42.3237 35.4446 42.2245 35.7162 42.1821C35.9878 42.1398 36.2652 42.1552 36.5305 42.2274C36.7957 42.2997 37.0427 42.427 37.2553 42.6012C38.512 43.6836 38.1952 46.651 37.6196 48.0132C37.588 48.0924 37.118 48.9214 36.8171 49.4441C37.0441 49.1643 37.2553 48.8897 37.4929 48.6099C37.9523 48.0449 38.4275 47.4958 38.9344 46.9044L39.7105 46.0649C39.964 45.7798 40.2702 45.5369 40.55 45.2254C41.21 44.5865 41.9123 43.9688 42.6356 43.3616C42.1446 42.9603 40.4128 41.503 39.9164 40.5104C39.4201 39.5177 39.0664 38.1291 39.5838 37.0784C39.6976 36.8278 39.8628 36.6039 40.0687 36.4213C40.2745 36.2386 40.5165 36.1013 40.7788 36.0182C41.0412 35.935 41.3181 35.908 41.5916 35.9387C41.865 35.9694 42.129 36.0573 42.3664 36.1966C43.7656 37.0784 43.9081 40.0616 43.5438 41.4766C43.5438 41.5664 43.1425 42.5643 42.926 43.1081C43.3643 42.7491 43.7972 42.39 44.2513 42.0521C45.5608 41.0436 46.9177 40.0563 48.2641 39.0689L49.4944 38.1608C49.3201 38.0182 47.2292 36.3286 46.6696 35.2145C46.1785 34.2272 45.8195 32.8332 46.3369 31.7878C46.4501 31.5367 46.6149 31.3122 46.8207 31.1291C47.0265 30.946 47.2686 30.8083 47.5312 30.7251C47.7937 30.6419 48.0709 30.615 48.3446 30.6462C48.6183 30.6774 48.8823 30.7659 49.1195 30.906C50.524 31.7825 50.6612 34.7657 50.2969 36.186C50.2705 36.2916 49.7267 37.7278 49.5736 38.0868C50.4712 37.4163 51.3635 36.7404 52.2136 36.0329C53.3702 35.0901 54.4637 34.0723 55.4872 32.9864C55.408 32.9177 53.2168 31.1648 52.6465 30.0296C52.1502 29.0422 51.7964 27.643 52.3139 26.5976C52.4271 26.3472 52.5918 26.1234 52.7972 25.9408C53.0025 25.7582 53.244 25.6208 53.506 25.5377C53.7679 25.4545 54.0444 25.4274 54.3175 25.4581C54.5906 25.4888 54.8542 25.5766 55.0912 25.7158C56.4956 26.5976 56.6382 29.5808 56.2739 30.9958C56.2739 31.0908 55.8356 32.1838 55.6297 32.7012L55.7089 32.754C56.7092 31.6315 57.6085 30.423 58.3964 29.1425C58.84 28.4403 59.2201 27.7486 59.5792 27.0675C59.1356 26.7824 57.1345 25.4571 56.5062 24.4908C55.8779 23.5246 55.4027 22.2152 55.7987 21.1169C55.8835 20.8551 56.0226 20.6142 56.2068 20.4097C56.3911 20.2052 56.6163 20.0419 56.8679 19.9303C57.1194 19.8187 57.3917 19.7614 57.6669 19.7621C57.9421 19.7627 58.2141 19.8214 58.4651 19.9342C59.9593 20.6576 60.424 23.6302 60.218 25.0716C60.218 25.1508 60.0068 25.9481 59.8537 26.5236C60.0068 26.2121 60.1758 25.8953 60.3184 25.5944C60.8464 24.4697 61.2952 23.4032 61.6648 22.4264C61.876 21.8984 62.0502 21.3968 62.1928 20.9321C61.9024 20.4041 60.7724 18.3766 60.6616 17.2361C60.5507 16.0956 60.7302 14.7123 61.5908 13.9203C61.7868 13.7274 62.0212 13.578 62.2787 13.4817C62.5362 13.3854 62.8111 13.3443 63.0855 13.3613C63.3599 13.3782 63.6277 13.4527 63.8714 13.58C64.1152 13.7072 64.3294 13.8843 64.5001 14.0998C65.4928 15.4251 64.5476 18.2604 63.6923 19.4643C63.6184 19.5699 62.272 21.0483 62.2561 21.0483V21.0166C62.1083 21.4654 61.9499 21.9459 61.7598 22.4633C61.4113 23.4243 61.0048 24.5014 60.482 25.6313C59.9295 26.8677 59.3072 28.0717 58.6182 29.2376C57.8493 30.5453 56.9659 31.7821 55.9782 32.9336L55.9412 32.9758C56.3531 32.7224 57.5252 32.0465 57.6256 32.0043C58.9878 31.4235 61.9552 31.0961 63.0428 32.3422C63.2179 32.5543 63.3464 32.8008 63.4198 33.0658C63.4933 33.3308 63.5102 33.6083 63.4694 33.8802C63.4285 34.1522 63.3309 34.4124 63.1828 34.6442C63.0347 34.8759 62.8395 35.0738 62.6099 35.2251C61.6542 35.9009 60.2233 35.7531 59.1673 35.4363C57.9793 35.0561 55.9993 33.2504 55.8198 33.1025C54.7885 34.2531 53.6807 35.3326 52.504 36.3339C51.8228 36.92 51.1153 37.4902 50.392 38.0552C50.7563 37.844 51.0836 37.6592 51.1312 37.638C52.4881 37.0572 55.4555 36.7299 56.5432 37.976C56.719 38.1877 56.8482 38.4342 56.9221 38.6993C56.9961 38.9644 57.0132 39.2422 56.9723 39.5144C56.9314 39.7865 56.8335 40.047 56.6849 40.2787C56.5364 40.5104 56.3405 40.7081 56.1102 40.8588C55.1598 41.5347 53.7236 41.3868 52.6729 41.07C51.6222 40.7532 49.864 39.222 49.4099 38.8155C49.13 39.0267 48.8819 39.2432 48.5809 39.4596C47.2556 40.4734 45.9409 41.4819 44.6473 42.5168C44.1985 42.8758 43.7708 43.2507 43.3379 43.6256L43.982 43.2665C45.339 42.6857 48.3064 42.3531 49.394 43.5992C49.5692 43.8117 49.6977 44.0586 49.7713 44.324C49.8448 44.5894 49.8617 44.8673 49.8209 45.1397C49.78 45.412 49.6824 45.6728 49.5343 45.9049C49.3862 46.1371 49.1909 46.3355 48.9611 46.4873C48.0107 47.1632 46.5745 47.0153 45.5238 46.6932C44.4731 46.3712 42.8838 44.9931 42.3558 44.5126C41.9281 44.9086 41.4952 45.3046 41.0992 45.7059C40.8299 45.9857 40.5712 46.2339 40.3072 46.5348L39.5468 47.3902C39.0875 47.9552 38.607 48.5307 38.1688 49.0904C37.8625 49.4758 37.5774 49.8507 37.2923 50.2308C37.7305 49.8612 38.6176 49.1748 38.6968 49.1115C39.9481 48.33 42.8363 47.5275 44.0982 48.6257C44.3027 48.8094 44.4663 49.0341 44.5782 49.2852C44.6902 49.5363 44.7481 49.8081 44.7481 50.083C44.7481 50.3579 44.6902 50.6297 44.5782 50.8808C44.4663 51.1319 44.3027 51.3566 44.0982 51.5403C43.2534 52.3534 41.8172 52.4379 40.7296 52.2689C39.5257 52.0788 37.3504 50.6849 37.0811 50.4843C36.6059 51.1126 36.1518 51.7198 35.7294 52.3059C34.2668 54.3281 33.1264 56.0705 32.3449 57.2955L32.2657 57.4222L31.252 56.9312L31.4104 56.6883C32.2288 55.4633 33.422 53.7315 34.9427 51.7251C35.4232 51.0862 35.9459 50.4156 36.4897 49.7345C35.9242 49.1166 35.3952 48.466 34.9057 47.7862C33.7388 48.2456 31.3206 48.2614 31.0038 48.2614C30.9563 49.0428 30.914 49.8084 30.8824 50.5265C30.7768 53.0187 30.7873 55.099 30.8137 56.5563V56.7252L29.6996 56.1972C29.6996 54.7505 29.7577 52.7969 29.9056 50.4843C29.9531 49.6923 30.0217 48.8422 30.1009 47.971C29.7894 47.8918 27.2708 47.2476 26.3204 46.4873C25.4598 45.7956 24.5516 44.6816 24.5833 43.5094C24.5812 43.2344 24.637 42.9621 24.7471 42.7101C24.8572 42.4581 25.0191 42.2321 25.2223 42.0468C25.4255 41.8615 25.6655 41.7211 25.9266 41.6347C26.1876 41.5483 26.4639 41.5178 26.7376 41.5452C28.3796 41.7564 29.7577 44.407 30.027 45.859C30.027 45.9488 30.1115 46.915 30.1432 47.4958C30.1801 47.142 30.2065 46.7936 30.2488 46.4398C30.3174 45.7164 30.4124 44.9984 30.5128 44.2222C30.5708 43.8473 30.6342 43.4724 30.6923 43.0923C30.7504 42.7121 30.8507 42.3214 30.9299 41.9307C31.1305 41.0331 31.3734 40.1302 31.6427 39.2273C31.0091 39.164 28.7651 38.9 27.8041 38.3456C26.8432 37.7912 25.7766 36.8302 25.634 35.6686C25.5899 35.3969 25.6035 35.1189 25.674 34.8528C25.7445 34.5868 25.8703 34.3385 26.0431 34.1243C26.216 33.9101 26.4321 33.7347 26.6773 33.6096C26.9225 33.4845 27.1913 33.4124 27.4662 33.3982C29.1188 33.3612 30.8824 35.7689 31.3681 37.1681C31.3998 37.2526 31.6374 38.2928 31.7588 38.8683C31.9225 38.3403 32.0809 37.7859 32.2868 37.242C32.8148 35.658 33.4115 34.111 33.9923 32.5428C34.1718 32.0624 34.3408 31.5819 34.5203 31.1014C34.2932 31.1014 31.6163 30.8216 30.5392 30.2038C29.5835 29.6758 28.5169 28.6884 28.3691 27.5268C28.3258 27.2553 28.34 26.9776 28.4108 26.7119C28.4817 26.4461 28.6075 26.1982 28.7802 25.9842C28.9529 25.7701 29.1687 25.5948 29.4135 25.4694C29.6582 25.3441 29.9266 25.2715 30.2012 25.2564C31.8592 25.2195 33.6227 27.6272 34.1084 29.0264C34.1454 29.132 34.4833 30.6104 34.552 31.0116C34.9321 29.9556 35.307 28.8996 35.608 27.8436C36.0545 26.418 36.4073 24.9646 36.664 23.4929C36.5584 23.4929 33.7652 23.2289 32.6617 22.5953C31.7008 22.0673 30.6342 21.08 30.4916 19.9184C30.4475 19.6469 30.4611 19.3692 30.5316 19.1034C30.6021 18.8376 30.728 18.5897 30.9009 18.3759C31.0739 18.1621 31.29 17.9872 31.5352 17.8627C31.7804 17.7381 32.0491 17.6668 32.3238 17.6532C33.9764 17.611 35.74 20.0187 36.2257 21.4179C36.2574 21.5076 36.5214 22.6481 36.6323 23.1972H36.722C36.9401 21.71 37.0249 20.2063 36.9755 18.704C36.9755 17.875 36.8963 17.0883 36.8171 16.3227C36.2891 16.3227 33.892 16.3227 32.836 15.8633C31.78 15.404 30.6553 14.5803 30.3808 13.4451C30.3075 13.1792 30.2913 12.9008 30.3331 12.6281C30.3749 12.3555 30.4738 12.0948 30.6233 11.863C30.7728 11.6312 30.9696 11.4336 31.2008 11.2832C31.432 11.1327 31.6923 11.0328 31.9648 10.9899C33.6068 10.7628 35.6238 12.9699 36.2627 14.3004C36.2944 14.3744 36.5689 15.1505 36.7537 15.7208C36.7168 15.3723 36.6798 15.0132 36.6323 14.6648C36.4686 13.424 36.2363 12.2993 36.0251 11.3014C35.8984 10.7364 35.7769 10.2454 35.6555 9.75436C35.1275 9.49037 33.0577 8.40268 32.3502 7.5262C31.6427 6.64972 31.0091 5.37725 31.2942 4.24733C31.3573 3.9805 31.4757 3.72989 31.6418 3.51171C31.8079 3.29353 32.0179 3.11265 32.2583 2.98076C32.4986 2.84887 32.764 2.76892 33.0373 2.74607C33.3105 2.72322 33.5855 2.75799 33.8444 2.84812Z" fill="white"/>
<path d="M63.7714 28.3452C62.4778 28.2924 59.8906 26.9671 59.8906 26.9671C59.8906 26.9671 61.2793 25.5257 61.3796 25.4465C62.5359 24.5278 65.3132 23.4243 66.6913 24.343C66.9165 24.5008 67.1059 24.7044 67.2471 24.9405C67.3882 25.1765 67.4779 25.4398 67.5103 25.7129C67.5427 25.986 67.5171 26.2629 67.4351 26.5255C67.3531 26.788 67.2166 27.0303 67.0345 27.2364C66.2953 28.1393 64.8749 28.3927 63.7714 28.3452Z" fill="white"/>
</g>
<path d="M48.6654 60.7432C48.6654 60.7432 40.8141 41.8196 36.4211 42.6433C32.0282 43.467 43.9557 72.8132 43.9557 72.8132C43.9557 72.8132 30.1432 46.7564 20.7237 46.7564C11.3042 46.7564 24.1768 75.5536 36.136 85.1526C36.136 85.1526 17.297 64.8563 6.30928 69.244C-4.6784 73.6316 28.2582 94.192 28.2582 94.192C28.2582 94.192 9.10768 88.1675 11.32 92.835C13.5323 97.5025 19.4829 98.3156 19.4829 98.3156L24.52 99.4139H51.976L56.2 97.7718C56.2 97.7718 73.7824 88.9912 69.0726 85.4272C64.3629 81.8632 54.0035 89.5403 54.0035 89.5403C54.0035 89.5403 71.8974 69.7931 68.4443 62.3905C64.9912 54.988 49.6053 75.8281 49.6053 75.8281C49.6053 75.8281 62.1664 49.2222 59.6373 44.56C57.1082 39.8977 48.6654 60.7432 48.6654 60.7432Z" fill="#FFA451"/>
<path opacity="0.4" d="M48.6654 60.7432C48.6654 60.7432 40.8141 41.8196 36.4211 42.6433C32.0282 43.467 43.9557 72.8132 43.9557 72.8132C43.9557 72.8132 30.1432 46.7564 20.7237 46.7564C11.3042 46.7564 24.1768 75.5536 36.136 85.1526C36.136 85.1526 17.297 64.8563 6.30928 69.244C-4.6784 73.6316 28.2582 94.192 28.2582 94.192C28.2582 94.192 9.10768 88.1675 11.32 92.835C13.5323 97.5025 19.4829 98.3156 19.4829 98.3156L27.688 99.4139H49.864L56.2 97.7718C56.2 97.7718 73.7824 88.9912 69.0726 85.4272C64.3629 81.8632 54.0035 89.5403 54.0035 89.5403C54.0035 89.5403 71.8974 69.7931 68.4443 62.3905C64.9912 54.988 49.6053 75.8281 49.6053 75.8281C49.6053 75.8281 62.1664 49.2222 59.6373 44.56C57.1082 39.8977 48.6654 60.7432 48.6654 60.7432Z" fill="white"/>
<path d="M51.1787 61.7412C44.2725 82.1484 44.2725 96.5892 44.2725 96.5892C44.2725 96.5892 52.4353 96.906 60.9097 90.6228" stroke="#263238" stroke-linecap="round" stroke-linejoin="round"/>
<path d="M47.752 72.7289C46.327 66.6285 44.4365 60.6464 42.0972 54.835" stroke="#263238" stroke-linecap="round" stroke-linejoin="round"/>
<path d="M27.3184 60.7959L44.8955 86.858C44.8955 86.858 56.8283 76.826 60.9097 71.1605" stroke="#263238" stroke-linecap="round" stroke-linejoin="round"/>
<path d="M44.584 93.1362C44.584 93.1362 26.0618 84.345 18.5272 79.3237" stroke="#263238" stroke-linecap="round" stroke-linejoin="round"/>
<path d="M77.1035 192.828C98.1692 192.828 115.246 190.752 115.246 188.192C115.246 185.632 98.1692 183.556 77.1035 183.556C56.0379 183.556 38.9608 185.632 38.9608 188.192C38.9608 190.752 56.0379 192.828 77.1035 192.828Z" fill="#FFA451"/>
<path opacity="0.5" d="M77.1035 192.828C98.1692 192.828 115.246 190.752 115.246 188.192C115.246 185.632 98.1692 183.556 77.1035 183.556C56.0379 183.556 38.9608 185.632 38.9608 188.192C38.9608 190.752 56.0379 192.828 77.1035 192.828Z" fill="white"/>
<path d="M156.034 188.176C156.034 189.454 147.518 190.489 137.026 190.489C126.535 190.489 118.018 189.433 118.018 188.176C118.018 186.919 126.53 185.869 137.026 185.869C147.523 185.869 156.034 186.919 156.034 188.176Z" fill="#FFA451"/>
<path opacity="0.5" d="M156.034 188.176C156.034 189.454 147.518 190.489 137.026 190.489C126.535 190.489 118.018 189.433 118.018 188.176C118.018 186.919 126.53 185.869 137.026 185.869C147.523 185.869 156.034 186.919 156.034 188.176Z" fill="white"/>
<path d="M84.7119 35.4731C84.7119 35.4731 81.7604 33.1552 78.3759 34.3115C74.9915 35.4678 72.4254 41.1069 71.5119 45.6899C70.5985 50.2729 67.0873 53.7472 67.9321 59.1222C68.7769 64.4973 74.8859 65.3368 82.262 66.1288C89.6382 66.9208 93.6404 66.0232 97.1147 61.1761C100.589 56.3291 99.1158 50.4313 97.0619 45.2147C95.0079 39.9981 91.5865 35.1563 88.7406 34.2587C85.8947 33.3611 84.7119 35.4731 84.7119 35.4731Z" fill="#263238" stroke="#263238" stroke-linecap="round" stroke-linejoin="round"/>
<path d="M72.5151 63.04C73.0132 63.264 73.5311 63.4408 74.0622 63.568" stroke="white" stroke-linecap="round" stroke-linejoin="round"/>
<path d="M83.9727 39.2271C82.7697 41.9148 81.245 44.4466 79.4319 46.7669C76.4118 50.6477 69.7326 54.312 69.3049 58.3829C69.2362 58.9279 69.2839 59.4813 69.4451 60.0065C69.6062 60.5317 69.8769 61.0167 70.2395 61.4294" stroke="white" stroke-linecap="round" stroke-linejoin="round"/>
<path d="M96.2277 58.6943C96.0094 59.2054 95.7292 59.6877 95.3934 60.1305" stroke="white" stroke-linecap="round" stroke-linejoin="round"/>
<path d="M93.688 48.4937C93.688 48.4937 97.083 52.4114 96.7557 56.5932" stroke="white" stroke-linecap="round" stroke-linejoin="round"/>
<path d="M83.3287 37.0677C82.0055 36.933 80.6693 37.1173 79.4319 37.6051C78.1945 38.0929 77.092 38.87 76.2166 39.8714C76.0951 40.0087 75.9843 40.1459 75.8787 40.2832" stroke="white" stroke-linecap="round" stroke-linejoin="round"/>
<path d="M63.8507 136.59L63.1907 146.749C63.1907 146.749 60.3818 160.377 59.4947 165.994C58.6077 171.612 56.9815 180.155 56.6858 180.155C56.3901 180.155 51.5431 183.086 49.9907 185.478C48.4384 187.87 50.4079 188.883 52.5621 188.118C54.7163 187.352 57.6415 185.187 58.5971 182.616C59.5528 180.045 60.028 179.089 60.0914 178.672C60.1547 178.255 70.3715 150.825 71.3853 147.895C72.3991 144.964 74.5533 136.358 74.5533 136.358L79.5746 119.325C79.5746 119.325 84.9496 136.838 85.013 137.614C85.0763 138.391 90.5675 183.155 90.821 184.828C91.0744 186.502 91.0005 187.695 92.0143 188.054C93.028 188.413 95.4199 188.413 96.6765 188.413C97.9331 188.413 102.294 189.073 104.443 188.535C106.592 187.996 106.835 187.637 105.341 186.56C103.847 185.483 95.5466 184.797 94.781 181.66C94.7176 181.423 94.6595 135.344 94.6595 135.344C94.6595 135.344 93.9415 120.106 92.7482 115.808H65.1338L63.8507 136.59Z" fill="white" stroke="#263238" stroke-linecap="round" stroke-linejoin="round"/>
<path d="M52.5569 188.107C54.7058 187.326 57.6362 185.177 58.5919 182.606L58.7926 182.078C57.5729 183.376 55.6246 185.182 55.6246 185.182C55.5052 184.57 55.2388 183.995 54.8484 183.508C54.6781 183.32 54.4599 183.182 54.2171 183.109C53.9744 183.035 53.7163 183.029 53.4703 183.091L55.5823 180.768C53.9983 181.75 51.1471 183.757 50.0278 185.483C48.4279 187.864 50.3921 188.883 52.5569 188.107Z" fill="#263238" stroke="#263238" stroke-linecap="round" stroke-linejoin="round"/>
<path d="M105.304 186.55C104.28 185.816 100.072 185.262 97.2626 183.979C97.1467 184.077 97.0561 184.202 96.9986 184.343C96.8203 184.849 96.6808 185.368 96.5814 185.895L90.7734 184.654V184.818C91.011 186.492 90.953 187.685 91.9667 188.044C92.9805 188.403 95.3723 188.403 96.629 188.403C97.8856 188.403 102.247 189.063 104.396 188.525C106.545 187.986 106.819 187.648 105.304 186.55Z" fill="#263238" stroke="#263238" stroke-linecap="round" stroke-linejoin="round"/>
<path d="M71.8975 91.0239C71.8975 91.0239 69.1572 92.2858 65.8413 98.2417C62.214 104.741 62.837 108.353 62.7842 116.194C62.7314 124.034 62.573 137.05 62.573 137.05C62.573 137.05 72.605 139.737 79.8016 139.315C86.9983 138.892 96.1274 137.261 96.1274 137.261C96.1274 137.261 94.1791 110.713 92.3364 103.078C90.4936 95.4433 89.3848 91.9902 89.3848 91.9902C85.8234 92.4845 82.2145 92.5377 78.64 92.1486C72.5311 91.5519 71.8975 91.0239 71.8975 91.0239Z" fill="#263238" stroke="#263238" stroke-linecap="round" stroke-linejoin="round"/>
<path d="M83.4395 114.504C83.714 115.407 83.9675 116.32 84.1892 117.234" stroke="white" stroke-linecap="round" stroke-linejoin="round"/>
<path d="M77.0771 99.5615C79.2041 103.486 81.0292 107.567 82.5367 111.769" stroke="white" stroke-linecap="round" stroke-linejoin="round"/>
<path d="M139.159 85.9763C138.843 85.7651 133.652 84.952 133.652 84.952L132.639 84.5348C132.639 84.5348 138.922 85.0364 138.975 84.7724C139.027 84.5084 139.239 84.1916 138.816 84.1388C138.394 84.086 130.31 82.444 130.31 82.444C130.31 82.444 132.364 80.5009 132.628 80.0785C132.892 79.6561 133.256 78.8113 132.834 78.8113C132.412 78.8113 132.306 79.0753 131.73 79.4449C131.155 79.8145 128.884 80.7121 128.251 81.2348C127.617 81.7576 125.727 83.1304 125.727 83.1304L103.773 80.1102C103.773 80.1102 96.064 70.6062 94.3903 68.5787C93.2268 67.2256 91.9022 66.0199 90.4461 64.9883C88.8304 64.2755 88.8621 65.4688 88.8621 65.4688L92.236 80.464C92.236 80.464 100.964 85.6648 101.502 85.6648C102.041 85.6648 125.621 86.4462 125.621 86.4462C125.621 86.4462 127.205 87.1854 128.198 87.8137C129.191 88.442 135.521 90.4537 135.521 90.4537C135.521 90.4537 135.944 90.2425 135.469 89.8729C134.993 89.5033 131.942 88.0302 131.942 88.0302L138.278 89.403C138.278 89.403 138.647 89.139 138.489 88.875C138.33 88.611 132.681 86.4515 132.681 86.4515L139.017 86.7683C139.017 86.7683 139.471 86.1875 139.159 85.9763Z" fill="white" stroke="#263238" stroke-linecap="round" stroke-linejoin="round"/>
<path d="M102.448 78.4787C100.172 75.675 95.6258 70.0782 94.3903 68.5787C93.2268 67.2256 91.9022 66.0199 90.4461 64.9883C88.8304 64.2755 88.8621 65.4688 88.8621 65.4688L92.236 80.464C92.236 80.464 96.1749 82.8083 98.9205 84.35L102.448 78.4787Z" fill="white" stroke="#263238" stroke-linecap="round" stroke-linejoin="round"/>
<path d="M79.1151 63.7052C79.1151 63.7052 74.5321 63.9164 71.7231 67.0263C68.9142 70.1363 69.2468 76.9791 70.4084 81.087C71.57 85.1948 73.0484 87.4599 72.7263 88.8855C72.4043 90.3111 71.2532 90.7811 71.8815 92.0958C72.5099 93.4105 76.1478 94.8361 82.5735 94.6249C88.9993 94.4137 90.2137 93.0409 90.2665 91.837C90.3193 90.6332 89.8441 89.6247 90.0025 88.8855C90.1609 88.1463 94.7967 84.0385 94.7967 79.5083C94.7967 74.978 92.7956 73.3993 92.3204 70.131C91.8452 66.8627 92.0036 66.3927 90.0553 64.9671C88.107 63.5415 81.6971 62.8076 79.1151 63.7052Z" fill="white" stroke="#263238" stroke-linecap="round" stroke-linejoin="round"/>
<path d="M77.0349 79.4082C75.5031 80.69 73.803 81.7559 71.9819 82.5762" stroke="#263238" stroke-linecap="round" stroke-linejoin="round"/>
<path d="M77.5418 79.936C77.5418 79.936 76.4066 83.6004 73.624 85.6226" stroke="#263238" stroke-linecap="round" stroke-linejoin="round"/>
<path d="M88.9149 67.021L89.4429 72.0792L87.2253 69.4973L88.9149 67.021Z" fill="white" stroke="#263238" stroke-linecap="round" stroke-linejoin="round"/>
<path d="M85.9634 72.5015L88.9149 67.0209L86.2274 64.1274L85.9634 72.5015Z" fill="white" stroke="#263238" stroke-linecap="round" stroke-linejoin="round"/>
<path d="M80.2769 54.7505C80.7371 56.5767 80.9659 58.4535 80.958 60.3367C80.9426 61.5562 80.8189 62.7718 80.5884 63.9694L85.9634 72.5018L87.4893 64.5818L88.4925 59.1012C88.4925 59.1012 82.3836 58.7527 80.2769 54.7505Z" fill="white" stroke="#263238" stroke-linecap="round" stroke-linejoin="round"/>
<path d="M85.6466 67.9189L85.9634 72.502L84.3846 70.0257L85.6466 67.9189Z" fill="white" stroke="#263238" stroke-linecap="round" stroke-linejoin="round"/>
<path d="M78.7983 63.7582L83.6982 72.5547L85.6465 67.9189L80.4351 60.7539L78.7983 63.7582Z" fill="white" stroke="#263238" stroke-linecap="round" stroke-linejoin="round"/>
<path d="M164.641 67.8608H120.178V104.346H164.641V67.8608Z" fill="#FFA451"/>
<mask id="mask0_541_95" style="mask-type:luminance" maskUnits="userSpaceOnUse" x="120" y="67" width="45" height="38">
<path d="M164.641 67.8608H120.178V104.346H164.641V67.8608Z" fill="white"/>
</mask>
<g mask="url(#mask0_541_95)">
<path opacity="0.2" d="M164.641 67.8608H120.178V104.346H164.641V67.8608Z" fill="#2F3443"/>
</g>
<path d="M164.641 67.8608H120.178V104.346H164.641V67.8608Z" stroke="#263238" stroke-linecap="round" stroke-linejoin="round"/>
<path d="M155.226 67.8608H110.764V104.346H155.226V67.8608Z" fill="#FFA451" stroke="#263238" stroke-linecap="round" stroke-linejoin="round"/>
<path d="M110.732 104.345L106.64 116.626H153.077L155.232 104.345H110.732Z" fill="#FFA451" stroke="#263238" stroke-linecap="round" stroke-linejoin="round"/>
<path d="M103.414 116.626C104.839 114.367 110.732 104.345 110.732 104.345H120.146L115.304 116.626H103.414Z" fill="#FFA451" stroke="#263238" stroke-linecap="round" stroke-linejoin="round"/>
<path d="M171.964 116.626C170.538 114.367 164.641 104.345 164.641 104.345H155.232L160.073 116.626H171.964Z" stroke="#263238" stroke-linecap="round" stroke-linejoin="round"/>
<path d="M171.964 116.626C170.538 114.367 164.641 104.345 164.641 104.345H155.232L160.073 116.626H171.964Z" fill="#FFA451"/>
<mask id="mask1_541_95" style="mask-type:luminance" maskUnits="userSpaceOnUse" x="155" y="104" width="17" height="13">
<path d="M171.964 116.626C170.538 114.367 164.641 104.345 164.641 104.345H155.232L160.073 116.626H171.964Z" fill="white"/>
</mask>
<g mask="url(#mask1_541_95)">
<path opacity="0.2" d="M171.964 116.626C170.538 114.367 164.641 104.345 164.641 104.345H155.232L160.073 116.626H171.964Z" fill="#2F3443"/>
</g>
<path d="M170.364 81.0605V93.2785" stroke="#263238" stroke-linecap="round" stroke-linejoin="round"/>
<path d="M172.677 86.3457V96.251" stroke="#263238" stroke-linecap="round" stroke-linejoin="round"/>
<path d="M105.985 93.2783V100.871" stroke="#263238" stroke-linecap="round" stroke-linejoin="round"/>
<path d="M104.005 97.5713V103.511" stroke="#263238" stroke-linecap="round" stroke-linejoin="round"/>
<path d="M71.4751 76.8208C73.0508 78.6054 74.8795 80.1495 76.9029 81.4038C80.0709 83.2993 91.6869 89.8835 92.6004 90.2531C93.5138 90.6227 121.255 86.0925 121.255 86.0925C121.255 86.0925 122.839 86.8317 123.837 87.46C124.835 88.0883 131.16 90.1 131.16 90.1C131.16 90.1 131.583 89.8888 131.107 89.5245C130.632 89.1601 127.58 87.6765 127.58 87.6765L133.916 89.0493C133.916 89.0493 134.286 88.7853 134.128 88.5213C133.969 88.2573 128.32 86.0977 128.32 86.0977L134.656 86.4145C134.656 86.4145 135.131 85.8337 134.814 85.6225C134.497 85.4113 128.008 83.9329 128.008 83.9329C128.008 83.9329 134.909 83.3521 134.962 83.0881C135.015 82.8241 135.226 82.5126 134.803 82.4598C134.381 82.407 125.743 81.5622 125.743 81.5622C125.743 81.5622 128.008 80.1419 128.272 79.7195C128.536 79.2971 128.906 78.4523 128.483 78.4523C128.061 78.4523 127.955 78.7163 127.38 79.0859C126.804 79.4555 124.534 80.3531 123.9 80.8758C123.267 81.3985 121.371 82.7766 121.371 82.7766L95.9849 82.8294L80.2241 70.395" fill="white"/>
<path d="M71.4751 76.8208C73.0508 78.6054 74.8795 80.1495 76.9029 81.4038C80.0709 83.2993 91.6869 89.8835 92.6004 90.2531C93.5138 90.6227 121.255 86.0925 121.255 86.0925C121.255 86.0925 122.839 86.8317 123.837 87.46C124.835 88.0883 131.16 90.1 131.16 90.1C131.16 90.1 131.583 89.8888 131.107 89.5245C130.632 89.1601 127.58 87.6765 127.58 87.6765L133.916 89.0493C133.916 89.0493 134.286 88.7853 134.128 88.5213C133.969 88.2573 128.32 86.0977 128.32 86.0977L134.656 86.4145C134.656 86.4145 135.131 85.8337 134.814 85.6225C134.497 85.4113 128.008 83.9329 128.008 83.9329C128.008 83.9329 134.909 83.3521 134.962 83.0881C135.015 82.8241 135.226 82.5126 134.803 82.4598C134.381 82.407 125.743 81.5622 125.743 81.5622C125.743 81.5622 128.008 80.1419 128.272 79.7195C128.536 79.2971 128.906 78.4523 128.483 78.4523C128.061 78.4523 127.955 78.7163 127.38 79.0859C126.804 79.4555 124.534 80.3531 123.9 80.8758C123.267 81.3985 121.371 82.7766 121.371 82.7766L95.9849 82.8294L80.2241 70.395" stroke="#263238" stroke-linecap="round" stroke-linejoin="round"/>
<path d="M134.793 82.4597C134.376 82.4069 125.732 81.5621 125.732 81.5621C125.732 81.5621 127.997 80.1417 128.261 79.7193C128.525 79.2969 128.895 78.4521 128.473 78.4521C128.05 78.4521 127.945 78.7161 127.369 79.0857C126.794 79.4553 124.523 80.3529 123.89 80.8757C123.256 81.3984 121.36 82.7765 121.36 82.7765L95.9742 82.8293L93.16 80.5958C92.104 82.4491 90.1292 85.9233 88.8462 88.2149C90.8209 89.3131 92.3152 90.1315 92.6161 90.2529C93.5137 90.6225 121.271 86.0923 121.271 86.0923C121.271 86.0923 122.855 86.8315 123.853 87.4598C124.851 88.0881 131.176 90.0998 131.176 90.0998C131.176 90.0998 131.598 89.8886 131.123 89.5243C130.648 89.16 127.596 87.6763 127.596 87.6763L133.932 89.0491C133.932 89.0491 134.302 88.7851 134.143 88.5211C133.985 88.2571 128.335 86.0976 128.335 86.0976L134.671 86.4144C134.671 86.4144 135.147 85.8336 134.83 85.6224C134.513 85.4112 128.008 83.9328 128.008 83.9328C128.008 83.9328 134.909 83.352 134.962 83.088C135.015 82.824 135.215 82.5125 134.793 82.4597Z" fill="white" stroke="#263238" stroke-linecap="round" stroke-linejoin="round"/>
<path d="M92.2835 50.3258C92.3735 50.2166 92.4924 50.1348 92.6266 50.0899C92.7608 50.0449 92.9049 50.0386 93.0425 50.0716C93.1801 50.1047 93.3057 50.1757 93.4049 50.2767C93.5041 50.3776 93.5729 50.5044 93.6035 50.6426C93.6917 51.2154 93.6623 51.8001 93.517 52.3611C93.3718 52.9221 93.1138 53.4476 92.7587 53.9056C92.1779 54.4864 91.6499 54.6448 91.6499 53.9056C91.7965 52.7018 92.008 51.5068 92.2835 50.3258Z" fill="white" stroke="#263238" stroke-linecap="round" stroke-linejoin="round"/>
<path d="M85.7997 41.0962C85.6146 43.6658 84.515 46.084 82.7003 47.9127C81.0097 49.5751 79.098 50.9965 77.019 52.1367C77.019 52.1367 77.3253 53.7893 77.9483 54.3068C78.5714 54.8242 79.8069 54.7239 79.8069 54.7239C80.5252 56.6878 81.6933 58.4563 83.2178 59.8877C85.6941 62.1581 88.5875 61.9522 90.2402 58.5466C91.8928 55.141 92.7218 51.7248 92.5158 49.7607L92.3099 47.7965C92.3099 47.7965 86.9349 44.8133 85.7997 41.0962Z" fill="white" stroke="#263238" stroke-linecap="round" stroke-linejoin="round"/>
<path d="M85.4881 51.3078C85.7506 51.3078 85.9633 50.9295 85.9633 50.463C85.9633 49.9964 85.7506 49.6182 85.4881 49.6182C85.2257 49.6182 85.0129 49.9964 85.0129 50.463C85.0129 50.9295 85.2257 51.3078 85.4881 51.3078Z" fill="#263238"/>
<path d="M88.0702 58.0504C88.3326 58.0504 88.5454 57.6722 88.5454 57.2056C88.5454 56.7391 88.3326 56.3608 88.0702 56.3608C87.8077 56.3608 87.595 56.7391 87.595 57.2056C87.595 57.6722 87.8077 58.0504 88.0702 58.0504Z" fill="#263238"/>
<path d="M90.0711 51.3078C90.3336 51.3078 90.5463 50.9295 90.5463 50.463C90.5463 49.9964 90.3336 49.6182 90.0711 49.6182C89.8087 49.6182 89.5959 49.9964 89.5959 50.463C89.5959 50.9295 89.8087 51.3078 90.0711 51.3078Z" fill="#263238"/>
<path d="M89.1208 49.5654C88.9394 50.1979 88.8856 50.8602 88.9624 51.5138C89.1208 52.4114 89.86 53.9373 89.2264 54.2013C88.9373 54.3332 88.6176 54.3832 88.302 54.346C87.9864 54.3087 87.687 54.1856 87.4365 53.9901" stroke="#263238" stroke-linecap="round" stroke-linejoin="round"/>
<path d="M84.1154 48.9368C84.1154 48.9368 84.3688 47.3211 86.4861 47.5059" stroke="#263238" stroke-linecap="round" stroke-linejoin="round"/>
<path d="M89.7861 48.0022C89.7861 48.0022 91.7609 46.4182 92.3997 49.317" stroke="#263238" stroke-linecap="round" stroke-linejoin="round"/>
</svg>
