<svg width="335" height="173" viewBox="0 0 335 173" fill="none" xmlns="http://www.w3.org/2000/svg">
<line x1="1.22946" y1="0.55576" x2="334.229" y2="172.556" stroke="#F72323"/>
<line y1="-0.5" x2="374.797" y2="-0.5" transform="matrix(-0.88848 0.458915 0.458915 0.88848 334 1)" stroke="#F72323"/>
<g filter="url(#filter0_d_488_3)">
<rect x="128" y="72" width="81" height="28" rx="6" fill="#FF7A00"/>
<path d="M142.516 84.084C142.516 84.78 142.276 85.36 141.796 85.824C141.324 86.28 140.6 86.508 139.624 86.508H138.016V90H136.924V81.636H139.624C140.568 81.636 141.284 81.864 141.772 82.32C142.268 82.776 142.516 83.364 142.516 84.084ZM139.624 85.608C140.232 85.608 140.68 85.476 140.968 85.212C141.256 84.948 141.4 84.572 141.4 84.084C141.4 83.052 140.808 82.536 139.624 82.536H138.016V85.608H139.624ZM146.741 90.108C146.125 90.108 145.565 89.968 145.061 89.688C144.565 89.408 144.173 89.012 143.885 88.5C143.605 87.98 143.465 87.38 143.465 86.7C143.465 86.028 143.609 85.436 143.897 84.924C144.193 84.404 144.593 84.008 145.097 83.736C145.601 83.456 146.165 83.316 146.789 83.316C147.413 83.316 147.977 83.456 148.481 83.736C148.985 84.008 149.381 84.4 149.669 84.912C149.965 85.424 150.113 86.02 150.113 86.7C150.113 87.38 149.961 87.98 149.657 88.5C149.361 89.012 148.957 89.408 148.445 89.688C147.933 89.968 147.365 90.108 146.741 90.108ZM146.741 89.148C147.133 89.148 147.501 89.056 147.845 88.872C148.189 88.688 148.465 88.412 148.673 88.044C148.889 87.676 148.997 87.228 148.997 86.7C148.997 86.172 148.893 85.724 148.685 85.356C148.477 84.988 148.205 84.716 147.869 84.54C147.533 84.356 147.169 84.264 146.777 84.264C146.377 84.264 146.009 84.356 145.673 84.54C145.345 84.716 145.081 84.988 144.881 85.356C144.681 85.724 144.581 86.172 144.581 86.7C144.581 87.236 144.677 87.688 144.869 88.056C145.069 88.424 145.333 88.7 145.661 88.884C145.989 89.06 146.349 89.148 146.741 89.148ZM153.877 90.108C153.373 90.108 152.921 90.024 152.521 89.856C152.121 89.68 151.805 89.44 151.573 89.136C151.341 88.824 151.213 88.468 151.189 88.068H152.317C152.349 88.396 152.501 88.664 152.773 88.872C153.053 89.08 153.417 89.184 153.865 89.184C154.281 89.184 154.609 89.092 154.849 88.908C155.089 88.724 155.209 88.492 155.209 88.212C155.209 87.924 155.081 87.712 154.825 87.576C154.569 87.432 154.173 87.292 153.637 87.156C153.149 87.028 152.749 86.9 152.437 86.772C152.133 86.636 151.869 86.44 151.645 86.184C151.429 85.92 151.321 85.576 151.321 85.152C151.321 84.816 151.421 84.508 151.621 84.228C151.821 83.948 152.105 83.728 152.473 83.568C152.841 83.4 153.261 83.316 153.733 83.316C154.461 83.316 155.049 83.5 155.497 83.868C155.945 84.236 156.185 84.74 156.217 85.38H155.125C155.101 85.036 154.961 84.76 154.705 84.552C154.457 84.344 154.121 84.24 153.697 84.24C153.305 84.24 152.993 84.324 152.761 84.492C152.529 84.66 152.413 84.88 152.413 85.152C152.413 85.368 152.481 85.548 152.617 85.692C152.761 85.828 152.937 85.94 153.145 86.028C153.361 86.108 153.657 86.2 154.033 86.304C154.505 86.432 154.889 86.56 155.185 86.688C155.481 86.808 155.733 86.992 155.941 87.24C156.157 87.488 156.269 87.812 156.277 88.212C156.277 88.572 156.177 88.896 155.977 89.184C155.777 89.472 155.493 89.7 155.125 89.868C154.765 90.028 154.349 90.108 153.877 90.108ZM159.151 84.324V88.2C159.151 88.52 159.219 88.748 159.355 88.884C159.491 89.012 159.727 89.076 160.063 89.076H160.867V90H159.883C159.275 90 158.819 89.86 158.515 89.58C158.211 89.3 158.059 88.84 158.059 88.2V84.324H157.207V83.424H158.059V81.768H159.151V83.424H160.867V84.324H159.151ZM163.282 84.636C163.498 84.26 163.818 83.948 164.242 83.7C164.674 83.444 165.174 83.316 165.742 83.316C166.326 83.316 166.854 83.456 167.326 83.736C167.806 84.016 168.182 84.412 168.454 84.924C168.726 85.428 168.862 86.016 168.862 86.688C168.862 87.352 168.726 87.944 168.454 88.464C168.182 88.984 167.806 89.388 167.326 89.676C166.854 89.964 166.326 90.108 165.742 90.108C165.182 90.108 164.686 89.984 164.254 89.736C163.83 89.48 163.506 89.164 163.282 88.788V93.12H162.19V83.424H163.282V84.636ZM167.746 86.688C167.746 86.192 167.646 85.76 167.446 85.392C167.246 85.024 166.974 84.744 166.63 84.552C166.294 84.36 165.922 84.264 165.514 84.264C165.114 84.264 164.742 84.364 164.398 84.564C164.062 84.756 163.79 85.04 163.582 85.416C163.382 85.784 163.282 86.212 163.282 86.7C163.282 87.196 163.382 87.632 163.582 88.008C163.79 88.376 164.062 88.66 164.398 88.86C164.742 89.052 165.114 89.148 165.514 89.148C165.922 89.148 166.294 89.052 166.63 88.86C166.974 88.66 167.246 88.376 167.446 88.008C167.646 87.632 167.746 87.192 167.746 86.688ZM173.167 90.108C172.551 90.108 171.991 89.968 171.487 89.688C170.991 89.408 170.599 89.012 170.311 88.5C170.031 87.98 169.891 87.38 169.891 86.7C169.891 86.028 170.035 85.436 170.323 84.924C170.619 84.404 171.019 84.008 171.523 83.736C172.027 83.456 172.591 83.316 173.215 83.316C173.839 83.316 174.403 83.456 174.907 83.736C175.411 84.008 175.807 84.4 176.095 84.912C176.391 85.424 176.539 86.02 176.539 86.7C176.539 87.38 176.387 87.98 176.083 88.5C175.787 89.012 175.383 89.408 174.871 89.688C174.359 89.968 173.791 90.108 173.167 90.108ZM173.167 89.148C173.559 89.148 173.927 89.056 174.271 88.872C174.615 88.688 174.891 88.412 175.099 88.044C175.315 87.676 175.423 87.228 175.423 86.7C175.423 86.172 175.319 85.724 175.111 85.356C174.903 84.988 174.631 84.716 174.295 84.54C173.959 84.356 173.595 84.264 173.203 84.264C172.803 84.264 172.435 84.356 172.099 84.54C171.771 84.716 171.507 84.988 171.307 85.356C171.107 85.724 171.007 86.172 171.007 86.7C171.007 87.236 171.103 87.688 171.295 88.056C171.495 88.424 171.759 88.7 172.087 88.884C172.415 89.06 172.775 89.148 173.167 89.148ZM181.179 83.304C181.979 83.304 182.627 83.548 183.123 84.036C183.619 84.516 183.867 85.212 183.867 86.124V90H182.787V86.28C182.787 85.624 182.623 85.124 182.295 84.78C181.967 84.428 181.519 84.252 180.951 84.252C180.375 84.252 179.915 84.432 179.571 84.792C179.235 85.152 179.067 85.676 179.067 86.364V90H177.975V83.424H179.067V84.36C179.283 84.024 179.575 83.764 179.943 83.58C180.319 83.396 180.731 83.304 181.179 83.304ZM191.651 86.46C191.651 86.668 191.639 86.888 191.615 87.12H186.359C186.399 87.768 186.619 88.276 187.019 88.644C187.427 89.004 187.919 89.184 188.495 89.184C188.967 89.184 189.359 89.076 189.671 88.86C189.991 88.636 190.215 88.34 190.343 87.972H191.519C191.343 88.604 190.991 89.12 190.463 89.52C189.935 89.912 189.279 90.108 188.495 90.108C187.871 90.108 187.311 89.968 186.815 89.688C186.327 89.408 185.943 89.012 185.663 88.5C185.383 87.98 185.243 87.38 185.243 86.7C185.243 86.02 185.379 85.424 185.651 84.912C185.923 84.4 186.303 84.008 186.791 83.736C187.287 83.456 187.855 83.316 188.495 83.316C189.119 83.316 189.671 83.452 190.151 83.724C190.631 83.996 190.999 84.372 191.255 84.852C191.519 85.324 191.651 85.86 191.651 86.46ZM190.523 86.232C190.523 85.816 190.431 85.46 190.247 85.164C190.063 84.86 189.811 84.632 189.491 84.48C189.179 84.32 188.831 84.24 188.447 84.24C187.895 84.24 187.423 84.416 187.031 84.768C186.647 85.12 186.427 85.608 186.371 86.232H190.523ZM192.684 86.688C192.684 86.016 192.82 85.428 193.092 84.924C193.364 84.412 193.736 84.016 194.208 83.736C194.688 83.456 195.224 83.316 195.816 83.316C196.328 83.316 196.804 83.436 197.244 83.676C197.684 83.908 198.02 84.216 198.252 84.6V81.12H199.356V90H198.252V88.764C198.036 89.156 197.716 89.48 197.292 89.736C196.868 89.984 196.372 90.108 195.804 90.108C195.22 90.108 194.688 89.964 194.208 89.676C193.736 89.388 193.364 88.984 193.092 88.464C192.82 87.944 192.684 87.352 192.684 86.688ZM198.252 86.7C198.252 86.204 198.152 85.772 197.952 85.404C197.752 85.036 197.48 84.756 197.136 84.564C196.8 84.364 196.428 84.264 196.02 84.264C195.612 84.264 195.24 84.36 194.904 84.552C194.568 84.744 194.3 85.024 194.1 85.392C193.9 85.76 193.8 86.192 193.8 86.688C193.8 87.192 193.9 87.632 194.1 88.008C194.3 88.376 194.568 88.66 194.904 88.86C195.24 89.052 195.612 89.148 196.02 89.148C196.428 89.148 196.8 89.052 197.136 88.86C197.48 88.66 197.752 88.376 197.952 88.008C198.152 87.632 198.252 87.196 198.252 86.7Z" fill="white"/>
</g>
<defs>
<filter id="filter0_d_488_3" x="124" y="69" width="89" height="36" filterUnits="userSpaceOnUse" color-interpolation-filters="sRGB">
<feFlood flood-opacity="0" result="BackgroundImageFix"/>
<feColorMatrix in="SourceAlpha" type="matrix" values="0 0 0 0 0 0 0 0 0 0 0 0 0 0 0 0 0 0 127 0" result="hardAlpha"/>
<feOffset dy="1"/>
<feGaussianBlur stdDeviation="2"/>
<feComposite in2="hardAlpha" operator="out"/>
<feColorMatrix type="matrix" values="0 0 0 0 0 0 0 0 0 0 0 0 0 0 0 0 0 0 0.15 0"/>
<feBlend mode="normal" in2="BackgroundImageFix" result="effect1_dropShadow_488_3"/>
<feBlend mode="normal" in="SourceGraphic" in2="effect1_dropShadow_488_3" result="shape"/>
</filter>
</defs>
</svg>
