<svg width="13" height="13" viewBox="0 0 13 13" fill="none" xmlns="http://www.w3.org/2000/svg">
<circle cx="6.67224" cy="6.67224" r="5.67224" fill="white" stroke="#EA0000" stroke-width="0.5"/>
<path d="M6.69288 2.67841C7.41892 2.67841 7.99749 2.88261 8.42858 3.29101C8.86724 3.69185 9.08656 4.24394 9.08656 4.9473C9.08656 5.77167 8.83699 6.38049 8.33783 6.77376C7.83867 7.16704 7.14666 7.37124 6.26179 7.38637V8.81577H5.50171V6.83049H5.87607C6.60212 6.83049 7.18825 6.69813 7.63447 6.43343C8.08069 6.16873 8.30379 5.67335 8.30379 4.9473C8.30379 4.44815 8.15632 4.05865 7.86136 3.77882C7.5664 3.49143 7.16935 3.34773 6.67019 3.34773C6.14834 3.34773 5.7286 3.49521 5.41095 3.79017C5.09331 4.07756 4.93448 4.45571 4.93448 4.92461H4.1744C4.16684 4.4784 4.26894 4.08512 4.4807 3.74479C4.69247 3.40445 4.99121 3.14353 5.37692 2.96202C5.76263 2.77294 6.20128 2.67841 6.69288 2.67841ZM6.40927 9.90484V10.9258H5.36557V9.90484H6.40927Z" fill="#EA0000"/>
</svg>
