<svg width="335" height="173" viewBox="0 0 335 173" fill="none" xmlns="http://www.w3.org/2000/svg">
<line x1="1.22946" y1="0.55576" x2="334.229" y2="172.556" stroke="#F72323"/>
<line y1="-0.5" x2="374.797" y2="-0.5" transform="matrix(-0.88848 0.458915 0.458915 0.88848 334 1)" stroke="#F72323"/>
<g filter="url(#filter0_d_488_2)">
<rect x="127" y="73" width="78" height="28" rx="6" fill="#F04B40"/>
<path d="M145.328 91L143.336 87.58H142.016V91H140.924V82.636H143.624C144.256 82.636 144.788 82.744 145.22 82.96C145.66 83.176 145.988 83.468 146.204 83.836C146.42 84.204 146.528 84.624 146.528 85.096C146.528 85.672 146.36 86.18 146.024 86.62C145.696 87.06 145.2 87.352 144.536 87.496L146.636 91H145.328ZM142.016 86.704H143.624C144.216 86.704 144.66 86.56 144.956 86.272C145.252 85.976 145.4 85.584 145.4 85.096C145.4 84.6 145.252 84.216 144.956 83.944C144.668 83.672 144.224 83.536 143.624 83.536H142.016V86.704ZM154.225 87.46C154.225 87.668 154.213 87.888 154.189 88.12H148.933C148.973 88.768 149.193 89.276 149.593 89.644C150.001 90.004 150.493 90.184 151.069 90.184C151.541 90.184 151.933 90.076 152.245 89.86C152.565 89.636 152.789 89.34 152.917 88.972H154.093C153.917 89.604 153.565 90.12 153.037 90.52C152.509 90.912 151.853 91.108 151.069 91.108C150.445 91.108 149.885 90.968 149.389 90.688C148.901 90.408 148.517 90.012 148.237 89.5C147.957 88.98 147.817 88.38 147.817 87.7C147.817 87.02 147.953 86.424 148.225 85.912C148.497 85.4 148.877 85.008 149.365 84.736C149.861 84.456 150.429 84.316 151.069 84.316C151.693 84.316 152.245 84.452 152.725 84.724C153.205 84.996 153.573 85.372 153.829 85.852C154.093 86.324 154.225 86.86 154.225 87.46ZM153.097 87.232C153.097 86.816 153.005 86.46 152.821 86.164C152.637 85.86 152.385 85.632 152.065 85.48C151.753 85.32 151.405 85.24 151.021 85.24C150.469 85.24 149.997 85.416 149.605 85.768C149.221 86.12 149.001 86.608 148.945 87.232H153.097ZM156.254 83.356C156.046 83.356 155.87 83.284 155.726 83.14C155.59 82.996 155.522 82.82 155.522 82.612C155.522 82.404 155.59 82.228 155.726 82.084C155.87 81.94 156.046 81.868 156.254 81.868C156.462 81.868 156.634 81.94 156.77 82.084C156.914 82.228 156.986 82.404 156.986 82.612C156.986 82.82 156.914 82.996 156.77 83.14C156.634 83.284 156.462 83.356 156.254 83.356ZM156.794 92.428C156.794 93.012 156.646 93.44 156.35 93.712C156.054 93.984 155.622 94.12 155.054 94.12H154.418V93.196H154.874C155.178 93.196 155.39 93.136 155.51 93.016C155.638 92.896 155.702 92.692 155.702 92.404V84.424H156.794V92.428ZM164.643 87.46C164.643 87.668 164.631 87.888 164.607 88.12H159.351C159.391 88.768 159.611 89.276 160.011 89.644C160.419 90.004 160.911 90.184 161.487 90.184C161.959 90.184 162.351 90.076 162.663 89.86C162.983 89.636 163.207 89.34 163.335 88.972H164.511C164.335 89.604 163.983 90.12 163.455 90.52C162.927 90.912 162.271 91.108 161.487 91.108C160.863 91.108 160.303 90.968 159.807 90.688C159.319 90.408 158.935 90.012 158.655 89.5C158.375 88.98 158.235 88.38 158.235 87.7C158.235 87.02 158.371 86.424 158.643 85.912C158.915 85.4 159.295 85.008 159.783 84.736C160.279 84.456 160.847 84.316 161.487 84.316C162.111 84.316 162.663 84.452 163.143 84.724C163.623 84.996 163.991 85.372 164.247 85.852C164.511 86.324 164.643 86.86 164.643 87.46ZM163.515 87.232C163.515 86.816 163.423 86.46 163.239 86.164C163.055 85.86 162.803 85.632 162.483 85.48C162.171 85.32 161.823 85.24 161.439 85.24C160.887 85.24 160.415 85.416 160.023 85.768C159.639 86.12 159.419 86.608 159.363 87.232H163.515ZM165.676 87.7C165.676 87.02 165.812 86.428 166.084 85.924C166.356 85.412 166.732 85.016 167.212 84.736C167.7 84.456 168.256 84.316 168.88 84.316C169.688 84.316 170.352 84.512 170.872 84.904C171.4 85.296 171.748 85.84 171.916 86.536H170.74C170.628 86.136 170.408 85.82 170.08 85.588C169.76 85.356 169.36 85.24 168.88 85.24C168.256 85.24 167.752 85.456 167.368 85.888C166.984 86.312 166.792 86.916 166.792 87.7C166.792 88.492 166.984 89.104 167.368 89.536C167.752 89.968 168.256 90.184 168.88 90.184C169.36 90.184 169.76 90.072 170.08 89.848C170.4 89.624 170.62 89.304 170.74 88.888H171.916C171.74 89.56 171.388 90.1 170.86 90.508C170.332 90.908 169.672 91.108 168.88 91.108C168.256 91.108 167.7 90.968 167.212 90.688C166.732 90.408 166.356 90.012 166.084 89.5C165.812 88.988 165.676 88.388 165.676 87.7ZM174.705 85.324V89.2C174.705 89.52 174.773 89.748 174.909 89.884C175.045 90.012 175.281 90.076 175.617 90.076H176.421V91H175.437C174.829 91 174.373 90.86 174.069 90.58C173.765 90.3 173.613 89.84 173.613 89.2V85.324H172.761V84.424H173.613V82.768H174.705V84.424H176.421V85.324H174.705ZM183.744 87.46C183.744 87.668 183.732 87.888 183.708 88.12H178.452C178.492 88.768 178.712 89.276 179.112 89.644C179.52 90.004 180.012 90.184 180.588 90.184C181.06 90.184 181.452 90.076 181.764 89.86C182.084 89.636 182.308 89.34 182.436 88.972H183.612C183.436 89.604 183.084 90.12 182.556 90.52C182.028 90.912 181.372 91.108 180.588 91.108C179.964 91.108 179.404 90.968 178.908 90.688C178.42 90.408 178.036 90.012 177.756 89.5C177.476 88.98 177.336 88.38 177.336 87.7C177.336 87.02 177.472 86.424 177.744 85.912C178.016 85.4 178.396 85.008 178.884 84.736C179.38 84.456 179.948 84.316 180.588 84.316C181.212 84.316 181.764 84.452 182.244 84.724C182.724 84.996 183.092 85.372 183.348 85.852C183.612 86.324 183.744 86.86 183.744 87.46ZM182.616 87.232C182.616 86.816 182.524 86.46 182.34 86.164C182.156 85.86 181.904 85.632 181.584 85.48C181.272 85.32 180.924 85.24 180.54 85.24C179.988 85.24 179.516 85.416 179.124 85.768C178.74 86.12 178.52 86.608 178.464 87.232H182.616ZM184.778 87.688C184.778 87.016 184.914 86.428 185.186 85.924C185.458 85.412 185.83 85.016 186.302 84.736C186.782 84.456 187.318 84.316 187.91 84.316C188.422 84.316 188.898 84.436 189.338 84.676C189.778 84.908 190.114 85.216 190.346 85.6V82.12H191.45V91H190.346V89.764C190.13 90.156 189.81 90.48 189.386 90.736C188.962 90.984 188.466 91.108 187.898 91.108C187.314 91.108 186.782 90.964 186.302 90.676C185.83 90.388 185.458 89.984 185.186 89.464C184.914 88.944 184.778 88.352 184.778 87.688ZM190.346 87.7C190.346 87.204 190.246 86.772 190.046 86.404C189.846 86.036 189.574 85.756 189.23 85.564C188.894 85.364 188.522 85.264 188.114 85.264C187.706 85.264 187.334 85.36 186.998 85.552C186.662 85.744 186.394 86.024 186.194 86.392C185.994 86.76 185.894 87.192 185.894 87.688C185.894 88.192 185.994 88.632 186.194 89.008C186.394 89.376 186.662 89.66 186.998 89.86C187.334 90.052 187.706 90.148 188.114 90.148C188.522 90.148 188.894 90.052 189.23 89.86C189.574 89.66 189.846 89.376 190.046 89.008C190.246 88.632 190.346 88.196 190.346 87.7Z" fill="white"/>
</g>
<defs>
<filter id="filter0_d_488_2" x="123" y="70" width="86" height="36" filterUnits="userSpaceOnUse" color-interpolation-filters="sRGB">
<feFlood flood-opacity="0" result="BackgroundImageFix"/>
<feColorMatrix in="SourceAlpha" type="matrix" values="0 0 0 0 0 0 0 0 0 0 0 0 0 0 0 0 0 0 127 0" result="hardAlpha"/>
<feOffset dy="1"/>
<feGaussianBlur stdDeviation="2"/>
<feComposite in2="hardAlpha" operator="out"/>
<feColorMatrix type="matrix" values="0 0 0 0 0 0 0 0 0 0 0 0 0 0 0 0 0 0 0.15 0"/>
<feBlend mode="normal" in2="BackgroundImageFix" result="effect1_dropShadow_488_2"/>
<feBlend mode="normal" in="SourceGraphic" in2="effect1_dropShadow_488_2" result="shape"/>
</filter>
</defs>
</svg>
