<svg xmlns="http://www.w3.org/2000/svg" width="12" height="14.222" viewBox="0 0 12 14.222">
  <path id="Icon_metro-spoon-fork" data-name="Icon metro-spoon-fork" d="M6.2,1.928A2.915,2.915,0,0,0,3.535,5.039,3.052,3.052,0,0,0,5.586,8.067l-.441,7.2a.828.828,0,0,0,.834.887h.444a.828.828,0,0,0,.834-.887l-.441-7.2A3.052,3.052,0,0,0,8.868,5.039,2.915,2.915,0,0,0,6.2,1.928Zm8.963,0-.741,4.444h-.556L13.5,1.928h-.37l-.37,4.444H12.2l-.741-4.444h-.37V7.706a.444.444,0,0,0,.444.444h1.157l-.436,7.113a.828.828,0,0,0,.834.887h.444a.828.828,0,0,0,.834-.887L13.933,8.15H15.09a.444.444,0,0,0,.444-.444V1.928Z" transform="translate(-3.535 -1.928)" fill="#aaabbe"/>
</svg>
