<svg width="90" height="90" viewBox="0 0 90 90" fill="none" xmlns="http://www.w3.org/2000/svg">
<g id="&#240;&#159;&#166;&#134; icon &#34;alert triangle&#34;">
<path id="Vector" d="M84.6 61.1248L55.8375 13.4248C54.6744 11.6053 53.072 10.108 51.178 9.07079C49.284 8.03359 47.1594 7.48993 45 7.48993C42.8405 7.48993 40.7159 8.03359 38.8219 9.07079C36.9279 10.108 35.3255 11.6053 34.1624 13.4248L5.39995 61.1248C4.3839 62.8185 3.83166 64.7498 3.79874 66.7246C3.76583 68.6995 4.2534 70.6481 5.21245 72.3748C6.32125 74.3183 7.92617 75.9325 9.8632 77.0526C11.8002 78.1726 13.9999 78.7583 16.2374 78.7498H73.7625C75.9853 78.7735 78.175 78.2105 80.1107 77.1175C82.0464 76.0246 83.6596 74.4404 84.7875 72.5248C85.7747 70.7802 86.2778 68.8035 86.2449 66.7993C86.2119 64.795 85.644 62.8359 84.6 61.1248ZM45 63.7498C44.2583 63.7498 43.5332 63.5298 42.9166 63.1178C42.2999 62.7057 41.8192 62.1201 41.5354 61.4348C41.2516 60.7496 41.1773 59.9956 41.322 59.2682C41.4667 58.5407 41.8239 57.8726 42.3483 57.3481C42.8727 56.8237 43.5409 56.4665 44.2684 56.3218C44.9958 56.1771 45.7498 56.2514 46.435 56.5352C47.1202 56.819 47.7059 57.2997 48.118 57.9164C48.53 58.5331 48.75 59.2581 48.75 59.9998C48.75 60.9943 48.3549 61.9482 47.6516 62.6514C46.9483 63.3547 45.9945 63.7498 45 63.7498ZM48.75 48.7498C48.75 49.7443 48.3549 50.6982 47.6516 51.4014C46.9483 52.1047 45.9945 52.4998 45 52.4998C44.0054 52.4998 43.0516 52.1047 42.3483 51.4014C41.645 50.6982 41.25 49.7443 41.25 48.7498V33.7498C41.25 32.7552 41.645 31.8014 42.3483 31.0981C43.0516 30.3949 44.0054 29.9998 45 29.9998C45.9945 29.9998 46.9483 30.3949 47.6516 31.0981C48.3549 31.8014 48.75 32.7552 48.75 33.7498V48.7498Z" fill="#EA0000"/>
</g>
</svg>
